<?xml version="1.0" standalone="no"?>
<!DOCTYPE svg PUBLIC "-//W3C//DTD SVG 20010904//EN"
 "http://www.w3.org/TR/2001/REC-SVG-20010904/DTD/svg10.dtd">
<svg version="1.0" xmlns="http://www.w3.org/2000/svg"
 width="235.000000pt" height="419.000000pt" viewBox="0 0 235.000000 419.000000"
 preserveAspectRatio="xMidYMid meet">

<g transform="translate(0.000000,419.000000) scale(0.100000,-0.100000)"
fill="#000000" stroke="none">
<path d="M1938 3915 c4 -278 -4 -403 -30 -460 -18 -40 -50 -26 -148 68 -47 45
-112 97 -145 115 l-60 33 75 -5 c110 -8 177 -31 223 -77 34 -34 39 -43 35 -76
-3 -21 -8 -47 -12 -58 -8 -20 -7 -20 8 -1 22 27 20 84 -4 123 -36 60 -121 90
-295 103 -66 5 -139 12 -162 16 -27 4 -43 3 -43 -4 0 -5 33 -13 73 -17 111
-11 192 -54 300 -160 48 -48 87 -89 87 -91 0 -5 -142 -96 -144 -92 -2 2 -10
24 -20 51 -51 137 -171 252 -305 291 -67 20 -217 21 -286 2 -106 -28 -195 -88
-243 -164 -62 -97 -73 -191 -51 -436 23 -266 -35 -389 -235 -501 -99 -56 -140
-96 -156 -153 -27 -103 47 -260 204 -430 35 -37 56 -69 56 -83 0 -19 2 -21 10
-9 7 11 28 -5 102 -75 100 -97 121 -120 131 -148 13 -36 -5 -37 -64 -5 -73 38
-134 105 -153 167 -8 25 -15 37 -15 26 -2 -65 75 -158 169 -205 35 -18 60 -37
60 -46 0 -28 -40 -73 -100 -114 -66 -45 -100 -83 -100 -113 0 -25 55 -77 124
-116 51 -30 54 -33 46 -59 -14 -52 -38 -87 -89 -130 -46 -39 -51 -47 -51 -84
0 -22 7 -52 16 -67 16 -26 15 -28 -20 -63 -28 -28 -36 -44 -36 -72 0 -30 6
-40 31 -55 27 -16 53 -19 174 -20 79 -1 146 2 149 8 16 25 -114 37 -220 21
-78 -12 -85 -12 -104 5 -11 10 -20 28 -20 39 0 30 35 83 60 91 13 4 19 12 16
21 -3 8 -3 14 0 14 13 0 95 -47 151 -87 68 -49 115 -68 140 -59 13 6 4 20 -48
74 -36 37 -87 94 -114 126 -27 33 -64 68 -82 79 l-33 19 33 37 c18 20 38 52
46 71 26 69 45 111 52 115 4 3 16 -15 27 -39 45 -95 87 -103 126 -24 33 66 35
134 5 172 -31 39 -57 33 -114 -28 -41 -43 -56 -53 -80 -51 -17 1 -21 0 -10 -2
31 -7 38 -19 25 -44 -7 -13 -14 -26 -16 -28 -6 -7 -120 68 -148 98 -39 40 -30
72 31 114 72 49 133 107 139 133 4 13 9 24 12 24 3 0 33 -5 67 -11 85 -15 134
0 195 57 63 59 80 108 81 233 0 115 14 163 49 171 30 8 62 1 54 -11 -2 -5 4
-14 16 -21 12 -8 20 -23 20 -41 0 -15 9 -46 21 -68 17 -34 19 -53 15 -107 l-5
-67 11 64 10 64 26 -29 c14 -16 37 -39 51 -51 l26 -21 -30 -12 c-16 -6 -44
-22 -62 -36 -17 -13 -35 -24 -40 -24 -4 0 -19 -16 -32 -35 -13 -19 -27 -35
-32 -35 -5 0 -9 -11 -9 -25 0 -17 8 -28 23 -35 26 -10 217 -34 223 -27 3 3
-41 10 -98 17 -129 15 -140 18 -136 38 7 37 169 18 261 -30 l42 -22 -30 -7
-30 -7 32 -1 c17 0 34 3 38 8 14 24 -116 75 -221 87 -30 4 -54 10 -54 15 0 20
63 77 109 98 l50 24 66 -59 c90 -79 255 -253 255 -269 0 -23 -91 -94 -180
-142 -327 -175 -419 -287 -451 -543 -13 -109 0 -301 32 -452 17 -87 18 -94 2
-106 -70 -51 -306 -38 -453 26 -123 54 -188 144 -177 246 3 32 2 44 -3 31 -23
-55 -2 -138 51 -198 74 -85 212 -136 384 -144 106 -5 125 -2 205 30 11 5 22
-10 43 -56 15 -34 44 -80 63 -102 l36 -40 -36 51 c-20 28 -46 74 -60 103 l-24
52 37 72 c20 40 45 95 55 122 28 71 100 138 267 248 80 53 171 121 202 152
157 158 177 402 49 609 -21 35 -23 43 -13 76 26 86 6 165 -59 232 -55 57 -128
81 -225 76 l-64 -3 -56 55 c-54 53 -55 55 -55 112 0 55 1 58 23 53 12 -3 85
-9 162 -15 80 -6 173 -19 215 -30 41 -12 89 -24 105 -27 l30 -6 -25 27 c-61
67 -231 134 -364 143 -70 5 -89 3 -130 -16 -38 -16 -52 -18 -63 -10 -11 10
-11 15 4 31 18 21 24 87 10 124 -6 18 -3 20 29 21 63 2 94 53 94 159 0 67 12
76 84 68 70 -8 140 10 166 44 11 13 20 30 20 36 -1 6 -7 -1 -15 -15 -25 -46
-130 -73 -190 -50 -17 7 -16 9 10 15 17 4 36 12 42 18 40 33 -18 118 -80 118
-66 0 -97 -74 -54 -126 18 -21 23 -34 16 -45 -5 -8 -9 -36 -9 -64 0 -83 -16
-125 -55 -141 -36 -15 -56 -11 -94 18 -26 20 -41 23 -41 8 0 -5 13 -16 29 -25
35 -18 56 -71 47 -120 -8 -42 -26 -57 -75 -59 -73 -4 -91 -43 -91 -196 0 -78
-4 -104 -24 -145 -47 -103 -131 -146 -241 -125 -61 11 -61 12 -73 54 -9 36
-30 61 -126 150 -108 101 -115 110 -110 139 12 69 63 154 129 216 86 80 157
125 350 223 188 95 245 131 309 195 44 45 117 172 116 204 -1 8 -11 -12 -24
-43 -64 -152 -133 -212 -406 -348 -259 -129 -395 -236 -451 -354 -16 -33 -29
-71 -29 -83 0 -13 -4 -23 -9 -23 -21 0 -175 199 -213 276 -33 66 -40 92 -41
140 0 61 16 106 49 136 11 9 60 39 109 68 111 64 158 108 195 185 42 86 53
176 41 321 -24 274 -8 372 79 467 92 101 207 142 376 135 85 -3 108 -8 166
-35 113 -53 201 -150 244 -267 l21 -59 -31 -45 -31 -44 -6 59 c-6 64 -15 84
-66 152 -36 48 -61 71 -76 71 -5 0 9 -20 32 -45 22 -24 41 -46 41 -47 12 -92
31 -204 40 -238 12 -45 9 -287 -4 -340 l-7 -25 13 25 c8 17 12 82 13 203 0
128 3 177 12 177 6 0 25 18 41 41 l30 41 6 -44 c3 -23 8 -90 11 -148 8 -139
27 -229 66 -320 20 -48 35 -102 40 -150 l8 -75 -3 75 c-2 57 -10 92 -34 148
-38 88 -59 185 -67 312 -3 52 -8 123 -11 157 l-6 62 74 47 c40 26 87 50 103
54 36 7 50 33 64 120 12 72 13 411 2 560 -4 52 -5 -31 -3 -185z m-332 -635 c5
-34 3 -50 -5 -50 -6 0 -11 11 -11 24 0 13 -2 45 -5 72 -7 66 12 25 21 -46z
m30 -675 c38 -38 30 -74 -21 -92 -78 -27 -124 14 -92 82 14 30 21 35 52 35 25
0 44 -8 61 -25z m61 -535 c84 -20 197 -72 243 -111 21 -17 22 -20 5 -14 -81
27 -191 47 -320 57 -203 15 -235 29 -154 70 45 24 124 23 226 -2z m-282 -30
c-8 -13 -35 0 -35 16 0 12 4 12 20 4 11 -6 18 -15 15 -20z m24 -90 l0 -35 -14
25 c-16 27 -19 62 -8 74 10 10 22 -23 22 -64z m305 -184 c105 -32 160 -106
161 -218 0 -37 -4 -71 -10 -77 -7 -6 -29 12 -65 54 -30 36 -98 104 -150 151
-52 48 -96 91 -98 96 -6 13 111 9 162 -6z m196 -418 c49 -102 65 -194 50 -299
-22 -157 -92 -243 -319 -394 -203 -135 -238 -171 -298 -309 -27 -60 -52 -109
-58 -110 -14 -2 -42 151 -55 300 -19 213 8 365 85 480 68 104 145 163 367 284
53 29 114 69 135 90 21 21 41 39 45 39 4 1 25 -36 48 -81z m-866 50 c38 -55
-1 -203 -54 -203 -19 0 -31 12 -58 60 -38 68 -35 83 25 136 40 35 66 37 87 7z
m-254 -353 c16 -8 55 -48 86 -88 32 -39 83 -96 113 -124 86 -81 29 -70 -102
19 -32 22 -83 51 -112 64 -46 21 -54 29 -60 60 -4 25 -1 43 10 60 18 28 26 29
65 9z m180 -305 c16 -5 -16 -8 -85 -8 -69 0 -101 3 -85 8 14 4 52 8 85 8 33 0
71 -4 85 -8z"/>
<path d="M1421 1734 c0 -11 3 -14 6 -6 3 7 2 16 -1 19 -3 4 -6 -2 -5 -13z"/>
<path d="M731 702 c-17 -31 -13 -40 5 -14 9 13 14 26 11 29 -3 2 -10 -4 -16
-15z"/>
<path d="M711 649 c-1 -9 -12 -38 -26 -64 -14 -26 -24 -50 -21 -52 7 -8 58
106 53 119 -4 9 -6 8 -6 -3z"/>
</g>
</svg>
