<?xml version="1.0" encoding="utf-8"?>
<!-- Generator: Adobe Illustrator 26.4.0, SVG Export Plug-In . SVG Version: 6.00 Build 0)  -->
<svg version="1.1" id="Calque_1" xmlns="http://www.w3.org/2000/svg" xmlns:xlink="http://www.w3.org/1999/xlink" x="0px" y="0px"
	 viewBox="0 0 1920 1080" style="enable-background:new 0 0 1920 1080;" xml:space="preserve">
<style type="text/css">
	.st0{fill:url(#SVGID_1_);}
	.st1{fill:url(#SVGID_00000062173193515318051260000013700335289806686629_);}
	.st2{fill:url(#SVGID_00000158743412409690267290000009454596967931058357_);}
	.st3{fill:url(#SVGID_00000147210379112488335610000016721759019161490841_);}
	.st4{fill:url(#SVGID_00000179618815742589851790000006971471294472447662_);}
	.st5{fill:url(#SVGID_00000179638741362580532130000005119770334442131593_);}
	.st6{fill:url(#SVGID_00000139982356530398881820000004098267089370255534_);}
	.st7{fill:url(#SVGID_00000112619841144760727320000014385604041208271790_);}
	.st8{fill:url(#SVGID_00000037680223607346180010000017997969141462777019_);}
	.st9{fill:url(#SVGID_00000071538089275835557270000014997062560698904971_);}
	.st10{fill:url(#SVGID_00000022556560487563278600000011051875110859838640_);}
	.st11{fill:url(#SVGID_00000043454024475365003680000014422757740969087395_);}
	.st12{fill:url(#SVGID_00000167378285910815344220000000993876864665626513_);}
	.st13{fill:url(#SVGID_00000062192367495006231470000015200265671735550624_);}
	.st14{fill:url(#SVGID_00000017511299467625903950000000856342186014191793_);}
	.st15{fill:url(#SVGID_00000032648238889403732660000014345491250910831749_);}
	.st16{fill:url(#SVGID_00000168814188486681666110000004353972253831740062_);}
	.st17{fill:url(#SVGID_00000151536392704341157110000007905308599982856874_);}
	.st18{fill:url(#SVGID_00000004548120608594576870000017121535419548567445_);}
	.st19{fill:url(#SVGID_00000012430243998137773840000009328346220501523901_);}
	.st20{fill:url(#SVGID_00000149380992607704042730000015547754441201839261_);}
	.st21{fill:url(#SVGID_00000140695661623142860730000006238984006134504854_);}
	.st22{fill:url(#SVGID_00000114070804933417963930000013207678893647387310_);}
	.st23{fill:none;stroke:url(#SVGID_00000047044719813180315670000013718148589608895895_);stroke-miterlimit:10;}
</style>
<g>
	<g>
		<g>
			<radialGradient id="SVGID_1_" cx="988.7541" cy="547.1459" r="736.3176" gradientUnits="userSpaceOnUse">
				<stop  offset="7.458905e-08" style="stop-color:#918268"/>
				<stop  offset="0.25" style="stop-color:#C1AE8C"/>
				<stop  offset="0.2902" style="stop-color:#B7A585"/>
				<stop  offset="0.4229" style="stop-color:#9B8C70"/>
				<stop  offset="0.5" style="stop-color:#918268"/>
				<stop  offset="0.6278" style="stop-color:#857862"/>
				<stop  offset="0.75" style="stop-color:#7F735F"/>
				<stop  offset="0.7797" style="stop-color:#91836B"/>
				<stop  offset="0.8322" style="stop-color:#AC9B7D"/>
				<stop  offset="0.886" style="stop-color:#BFAC8A"/>
				<stop  offset="0.9412" style="stop-color:#CAB691"/>
				<stop  offset="1" style="stop-color:#CEB994"/>
			</radialGradient>
			<path class="st0" d="M-0.5,241.2c21.5-18.4,53-16.6,76.7-3.3c24.5,13.7,39.9,39.1,50.6,64.1c21.4,50,32.2,104.5,45.2,157.1
				c12.7,51.6,26.5,103.4,50.3,151.2c11.2,22.5,24.6,44.6,41.1,63.7c15.4,17.7,35.6,31.1,59.9,26.2c28.3-5.6,52.6-28.5,75.4-44.8
				c26.5-19.1,53-38.2,79.5-57.3c13.3-9.5,26.5-19.1,39.8-28.6c12.1-8.7,24-18.2,37.4-24.8c25.7-12.6,52.6-7.2,76.4,6.8
				c27.7,16.2,47.3,43.3,65,69.4c22.4,33,42.1,67.8,62.9,101.9c19.9,32.7,40.4,65.5,65.6,94.4c18.9,21.8,42.4,43.8,71.4,50.5
				c30.2,7,61.1-5,86.7-20.4c32.6-19.6,60.8-46.1,86.6-73.8c47.9-51.3,85.8-109.8,126.9-166.5c37.6-51.9,76.1-103.2,114-154.9
				c12.9-17.6,27.9-33.5,46.9-44.5c25.7-14.9,55.8-18.6,84.8-13.4c50.6,9.2,85.6,43,119.9,78.9c37.6,39.4,75.3,78.7,114.3,116.8
				c40.5,39.6,82.2,78.8,126.4,114.2c32.6,26.1,67.2,44.8,108.3,54.2c22.3,5.1,45,7.4,67.8,7.4c1.9,0,1.9-3,0-3
				c-47.9,0-97.2-10.3-138.5-35.3c-41.5-25.2-77.1-60.7-112.9-93.2c-43.7-39.7-85.2-81.7-126.2-124.2
				c-33.9-35.1-66.1-76.8-109.1-101.1c-39.2-22.2-90.1-27.6-131-6.7c-19,9.7-34.7,24.4-47.8,41.1c-16.8,21.6-32.4,44.1-48.7,66.1
				c-39,52.6-78.2,105.1-115.5,159c-13.4,19.3-27.2,38.2-41.8,56.5c-23.6,29.5-48.9,57.9-77.1,83c-27.2,24.2-59,48.3-95.2,56.4
				c-73.2,16.4-123.4-64-156.6-116.2c-22.1-34.6-42.3-70.4-64.2-105.1c-17.7-28-36.4-57.1-61.2-79.4c-28-25.1-67.5-38.9-102.6-20
				c-13.3,7.2-25.4,16.8-37.7,25.6c-13.3,9.5-26.5,19.1-39.8,28.6c-27,19.5-54.1,38.9-81.1,58.4c-23.7,17.1-52.6,44.8-84.1,41.9
				c-30.3-2.7-51-34.6-65.7-57.9c-29.4-46.5-46.3-99.4-60.1-152.2c-13.7-52.5-24.6-105.9-41.8-157.4
				c-14.6-43.8-37.7-94.9-88.2-104.6c-19.6-3.8-39.7-0.1-55,13C-4.1,240.3-2,242.5-0.5,241.2L-0.5,241.2z"/>
		</g>
	</g>
	<g>
		<g>
			
				<radialGradient id="SVGID_00000056407958240064793640000014434586171106671286_" cx="980.2852" cy="552.4769" r="731.9987" gradientUnits="userSpaceOnUse">
				<stop  offset="7.458905e-08" style="stop-color:#918268"/>
				<stop  offset="0.25" style="stop-color:#C1AE8C"/>
				<stop  offset="0.2902" style="stop-color:#B7A585"/>
				<stop  offset="0.4229" style="stop-color:#9B8C70"/>
				<stop  offset="0.5" style="stop-color:#918268"/>
				<stop  offset="0.6278" style="stop-color:#857862"/>
				<stop  offset="0.75" style="stop-color:#7F735F"/>
				<stop  offset="0.7797" style="stop-color:#91836B"/>
				<stop  offset="0.8322" style="stop-color:#AC9B7D"/>
				<stop  offset="0.886" style="stop-color:#BFAC8A"/>
				<stop  offset="0.9412" style="stop-color:#CAB691"/>
				<stop  offset="1" style="stop-color:#CEB994"/>
			</radialGradient>
			<path style="fill:url(#SVGID_00000056407958240064793640000014434586171106671286_);" d="M1973.7,745.3
				c-42.8-1.8-86.2-9.2-125.1-27.7c-32.8-15.6-61.8-38.5-90.2-60.9c-40-31.6-79.4-63.8-117.7-97.3c-32.8-28.7-64.1-59.1-97.1-87.6
				c-28.1-24.2-58-40.8-95.2-45.5c-41.4-5.2-81.4,6.7-112.4,34.9c-17.6,16-32.1,35.4-47.4,53.5c-17,20.1-34,40.2-50.8,60.5
				c-29.3,35.7-59.7,70.4-89.6,105.5c-28.3,33.3-57.4,66.2-90.3,95.1c-32.9,29-72.9,59.1-117.7,64.9c-46.9,6.2-83.3-26.2-112.2-59
				c-28.9-32.8-53.2-69.5-77.9-105.5c-22.6-32.9-45.2-66.5-73.3-95.1c-24.7-25.1-62.5-46.8-98.9-36.4c-22.1,6.3-40.8,23.1-59,36.4
				c-22.1,16.1-44.2,32.2-66.4,48.2c-22.1,16-44.4,31.8-66.7,47.5c-20.8,14.6-46,32.3-72.7,24c-23-7.2-40.3-29.8-53.7-48.7
				c-13.2-18.6-24.1-38.9-33.4-59.7c-19.5-43.6-32.6-89.6-47.7-134.8c-15.2-45.4-31.3-92-55.2-133.7c-19.3-33.6-48.9-62.2-89.6-63.6
				c-17.2-0.6-33.7,4.2-47.3,14.8c-1.5,1.2,0.6,3.3,2.1,2.1c18.7-14.6,43.6-17,66-10.7c23,6.5,41.3,22.4,55.1,41.5
				c28.5,39.4,44.9,88.8,60.6,134.4c28.3,82.1,48,177.7,111.8,241.2c14.1,14,31.6,24.4,52.1,21.8c21.9-2.8,40.7-17.2,58.2-29.5
				c44.2-31,87.9-62.8,131.5-94.6c20-14.6,40.9-33.5,66.6-36c19.7-1.9,39.7,5.3,56.7,15c19.2,11,34.6,29,48.5,45.8
				c13.2,16,25.3,32.8,37.2,49.8c24,34.3,46.9,69.5,72.7,102.5c24,30.8,52.3,65.1,89.6,79.9c36.2,14.3,75.1,1,107.2-17.6
				c38.2-22.2,71.1-52.9,101.3-84.8c62.6-66.1,118.5-138.5,177.6-207.7c31.6-36.9,60.9-80.8,109.9-95.3
				c38.8-11.5,84.5-4.2,118.9,16.7c35.5,21.7,64.9,54.2,95.7,81.9c36.1,32.5,72.8,64.5,110.8,94.7c33,26.2,65.3,53.9,100.9,76.6
				c31.4,20.1,65.9,32.8,102.7,39.4c17.9,3.2,36,4.9,54.2,5.7C1975.6,748.3,1975.6,745.3,1973.7,745.3L1973.7,745.3z"/>
		</g>
	</g>
	<g>
		<g>
			
				<radialGradient id="SVGID_00000022548801758657933360000016535665276313296025_" cx="971.9111" cy="557.5977" r="728.2873" gradientUnits="userSpaceOnUse">
				<stop  offset="7.458905e-08" style="stop-color:#918268"/>
				<stop  offset="0.25" style="stop-color:#C1AE8C"/>
				<stop  offset="0.2902" style="stop-color:#B7A585"/>
				<stop  offset="0.4229" style="stop-color:#9B8C70"/>
				<stop  offset="0.5" style="stop-color:#918268"/>
				<stop  offset="0.6278" style="stop-color:#857862"/>
				<stop  offset="0.75" style="stop-color:#7F735F"/>
				<stop  offset="0.7797" style="stop-color:#91836B"/>
				<stop  offset="0.8322" style="stop-color:#AC9B7D"/>
				<stop  offset="0.886" style="stop-color:#BFAC8A"/>
				<stop  offset="0.9412" style="stop-color:#CAB691"/>
				<stop  offset="1" style="stop-color:#CEB994"/>
			</radialGradient>
			<path style="fill:url(#SVGID_00000022548801758657933360000016535665276313296025_);" d="M1968.1,727.9
				c-41.3-3.4-82.8-9.9-121.4-25.7c-33.7-13.8-64.1-34.3-94-54.8c-38.9-26.6-77.9-53.1-115.9-81c-17.2-12.6-33.9-25.8-51.1-38.3
				c-16.5-12-31.5-25.9-48.3-37.6c-29.2-20.2-61-29.5-96.5-29.7c-41.8-0.3-79.4,16.7-109.4,45.3c-34.1,32.3-66.5,66.3-98.7,100.4
				c-15.9,16.9-32.1,33.7-49.2,49.5c-12.6,11.6-25.8,22.2-38,34.2c-31.4,30.8-63.3,61.3-99.7,86.2c-34.3,23.3-76.8,45.6-119.6,39.5
				c-43.6-6.2-77.9-43.3-105.8-74.6c-27.9-31.3-53.1-65-79.6-97.5c-12.4-15.2-25.2-30.3-39-44.4c-13.4-13.7-28.2-28.5-45.6-37
				c-13.4-6.5-29-11.3-43.9-12.3c-21.5-1.3-39.5,7.6-56.6,19.8c-40.8,29-80.4,59.5-121.3,88.4c-19.9,14-39.7,29.7-61.5,40.6
				c-25.2,12.6-49,10.5-70.7-7.7c-66.5-55.9-86.1-149.6-119.3-225.8c-18-41.2-39.2-82.3-66.7-118.1c-22.9-29.8-54.6-52-93.5-51.4
				c-17.2,0.3-33.9,5.2-48,15.3c-1.6,1.1-0.1,3.7,1.5,2.6c37.7-27,88.4-14.6,120.1,15.7c31.8,30.4,53.9,73.4,72.7,112.6
				c36.1,75.4,53.8,163.6,108.8,228.6c11.6,13.6,25.1,27.9,41.6,35.3c18.4,8.2,37.6,4.3,54.9-4.5c21.2-10.7,40.5-25.9,59.9-39.5
				c20.7-14.6,41.1-29.4,61.5-44.3c20-14.7,39.9-29.7,60-44.2c20.8-15,42.3-24,68.3-18.7c39.3,7.9,67.3,36.5,92.9,65.5
				c27.3,31,52,64.3,78.3,96.1c25.6,31,52.9,63.4,87,85.3c72.2,46.3,153.8-9.5,209.3-57.1c28.7-24.7,54.8-52.2,83.4-77
				c35.2-30.6,65.7-66,98.1-99.4c16.9-17.4,34.1-34.5,51.5-51.4c15.4-14.9,31.2-28.7,50.5-38.3c36.5-18.1,83.9-19.8,122.2-5.9
				c37.2,13.4,66.6,42.8,97.7,66.2c36.5,27.5,73,54.9,110.9,80.4c34.8,23.5,68.8,48.8,105.5,69.2c32.2,17.9,66.7,29.4,102.9,35.9
				c17.7,3.2,35.6,5.1,53.6,6.6C1970.1,731.1,1970.1,728.1,1968.1,727.9L1968.1,727.9z"/>
		</g>
	</g>
	<g>
		<g>
			
				<radialGradient id="SVGID_00000028287420805516991660000018045544731926547631_" cx="963.4344" cy="563.1766" r="725.2081" gradientUnits="userSpaceOnUse">
				<stop  offset="7.458905e-08" style="stop-color:#918268"/>
				<stop  offset="0.25" style="stop-color:#C1AE8C"/>
				<stop  offset="0.2902" style="stop-color:#B7A585"/>
				<stop  offset="0.4229" style="stop-color:#9B8C70"/>
				<stop  offset="0.5" style="stop-color:#918268"/>
				<stop  offset="0.6278" style="stop-color:#857862"/>
				<stop  offset="0.75" style="stop-color:#7F735F"/>
				<stop  offset="0.7797" style="stop-color:#91836B"/>
				<stop  offset="0.8322" style="stop-color:#AC9B7D"/>
				<stop  offset="0.886" style="stop-color:#BFAC8A"/>
				<stop  offset="0.9412" style="stop-color:#CAB691"/>
				<stop  offset="1" style="stop-color:#CEB994"/>
			</radialGradient>
			<path style="fill:url(#SVGID_00000028287420805516991660000018045544731926547631_);" d="M1962.6,710.5c-40-5-79.9-10.7-118.1-24
				c-34.3-11.9-66.2-29.6-97.6-47.6c-37.8-21.7-76.3-42-113.9-64.1c-16.8-9.9-34-19.7-50.5-30.1c-16.6-10.4-31.9-22.5-49.4-31.5
				c-30-15.4-63-18.9-96.3-16c-39,3.4-71.7,21-101.8,45c-36.8,29.3-73.4,59-110,88.6c-18.2,14.8-35.7,32-55,45.3
				c-10.9,7.5-21.3,14.9-31.6,23.5c-32.9,27.5-67.3,53.8-106.2,72.3c-40,19-86.3,29.3-127.6,8.3c-37.5-19.1-68.3-52-97-82.2
				c-27.6-29-54-59.4-83.1-86.9c-12.9-12.2-26.6-23.6-41.2-33.7c-14-9.7-28.8-14.7-45.5-17.9c-18.7-3.5-37.2-1.7-54,7.3
				c-19.3,10.3-36.5,25.4-53.9,38.4c-38.7,28.9-77.7,57.6-118.1,84.2c-20.5,13.4-44.6,28.3-70.1,21.1c-20-5.6-37-22.4-50.4-37.6
				c-52.8-59.7-69.7-141.8-109.3-209.5c-20-34.2-44.6-66.9-73.7-94c-26.7-24.9-60.4-40.7-97.5-37.7c-16.9,1.4-33.1,6.5-47.4,15.8
				c-1.6,1.1-0.1,3.7,1.5,2.6c35.9-23.5,83.3-19.2,118.4,3.4c34,21.9,61.4,57.7,83.4,91.1C210.5,511,228,591.2,274.1,655.9
				c18,25.3,46.4,58.9,80.2,59.6c20.5,0.4,39.3-10.6,56-21.4c19.9-12.9,39.4-26.5,58.7-40.3c19.4-13.9,38.7-28.1,57.8-42.4
				c18.2-13.5,35.9-28.9,55.6-40.2c21.1-12.1,43.1-11.9,66-6.1c20.5,5.2,36.3,16.1,52.6,29.3C762.4,644,807.3,711,869.1,760.2
				c31,24.6,64.5,39.2,104.6,33.6c38.8-5.5,74.9-24.9,107.1-46.3c16.8-11.2,32.9-23.4,48.4-36.2c12.7-10.5,24.9-22,39-30.5
				c17.3-10.4,32.7-26.5,48.5-39.3c18.4-15,37-29.8,55.5-44.7c18.3-14.7,36.4-29.6,54.7-44.3c15.3-12.3,30.6-24.7,48.1-33.9
				c35.4-18.5,79.3-24,118.6-16.3c38.1,7.5,67.7,33.3,100.3,52.3c36.6,21.4,72.7,43.6,110,63.8c35.2,19.1,69.3,40.4,105.7,57.2
				c32.5,15,66.7,24.7,101.9,30.8c16.9,2.9,34,5,51.1,7.2C1964.5,713.8,1964.5,710.8,1962.6,710.5L1962.6,710.5z"/>
		</g>
	</g>
	<g>
		<g>
			
				<radialGradient id="SVGID_00000182505605687520628180000010696081850407341460_" cx="954.9947" cy="568.6046" r="722.7894" gradientUnits="userSpaceOnUse">
				<stop  offset="7.458905e-08" style="stop-color:#918268"/>
				<stop  offset="0.25" style="stop-color:#C1AE8C"/>
				<stop  offset="0.2902" style="stop-color:#B7A585"/>
				<stop  offset="0.4229" style="stop-color:#9B8C70"/>
				<stop  offset="0.5" style="stop-color:#918268"/>
				<stop  offset="0.6278" style="stop-color:#857862"/>
				<stop  offset="0.75" style="stop-color:#7F735F"/>
				<stop  offset="0.7797" style="stop-color:#91836B"/>
				<stop  offset="0.8322" style="stop-color:#AC9B7D"/>
				<stop  offset="0.886" style="stop-color:#BFAC8A"/>
				<stop  offset="0.9412" style="stop-color:#CAB691"/>
				<stop  offset="1" style="stop-color:#CEB994"/>
			</radialGradient>
			<path style="fill:url(#SVGID_00000182505605687520628180000010696081850407341460_);" d="M1957.5,693.2
				c-38.6-6.5-77.4-11.6-115.2-22.4c-35.1-10.1-68.8-24.5-101.9-39.7c-38.2-17.5-77.8-31.4-116.1-48.7c-17.8-8-36-15.3-53.2-24.6
				c-15.5-8.4-31.5-16.3-48.5-21.2c-31-8.9-67.2-6.9-98.5,0c-38.8,8.6-71.7,30.5-104.4,51.9c-38.8,25.3-78.7,49-117.6,74.1
				c-8.8,5.7-17.7,13.1-27.4,17.2c-5.7,2.4-10.9,4.6-16.3,7.8c-16.7,10.1-32.3,21.8-49,31.9c-34.6,20.9-72.3,39.5-112.5,46
				c-20.8,3.4-42.5,3.2-62.8-2.8c-21.5-6.4-40.6-19.2-58.4-32.6c-61.5-46-111.5-107.4-177.8-146.9c-27.6-16.4-65-25.2-95.9-12.1
				c-19.4,8.2-35.9,23.2-52.5,35.8c-17.5,13.2-34.9,26.4-52.6,39.4c-18.6,13.6-37.5,26.9-56.7,39.6c-18.5,12.2-38.2,26.6-60.5,30.5
				c-40.2,7.1-75.9-33.1-96.4-63c-41.1-59.9-59-132.4-104.6-189.7C136.4,410.5,72.4,358.3,0.2,367.4c-17,2.2-33.3,7.5-48,16.3
				c-1.7,1-0.1,3.6,1.5,2.6c34.1-20.4,77.1-21.8,113.8-7.8c35.3,13.5,66.7,40.3,92.3,67.7c27,28.8,46.8,62.2,63.7,97.7
				c15.2,31.8,28.8,64.5,46.9,94.8c16.7,27.9,38.1,54.4,66.3,71.4c35.7,21.5,69.3,1.7,100.3-18.5c38.2-24.9,74.7-52.3,111.1-79.8
				c16-12.1,31.7-26.1,49.6-35.3c20.2-10.3,40.6-8.6,62.1-5.6c18.8,2.7,35.2,13.3,50.8,23.6c16,10.6,31,22.9,45.6,35.4
				c30.2,26,58.7,53.8,89.1,79.5c28.6,24.2,60.2,50.8,97.8,58.5c36.5,7.6,74.4-1.5,108.3-15.4c36-14.8,68-35.9,100.4-57.2
				c6.1-4,12.2-8.2,19-11c8.4-3.5,15.3-7.8,23-12.9c18.7-12.1,37.6-24,56.5-35.8c36.6-22.8,72.6-46.5,109.4-69
				c34.9-21.4,71.8-30.4,112.4-32.2c19-0.8,37.5,0.8,55.6,6.8c18.4,6.1,35.5,15.5,52.4,24.8c7.4,4.1,15.7,6.5,23.5,10
				c9.8,4.4,19.5,9.1,29.3,13.3c17.3,7.5,34.8,14.4,52.3,21.6c37.6,15.5,74.4,33.1,112.4,47.8c34.3,13.2,69.5,22.4,105.7,28.7
				c17.8,3.1,35.7,5.6,53.5,8.6C1958.6,696.4,1959.4,693.6,1957.5,693.2L1957.5,693.2z"/>
		</g>
	</g>
	<g>
		<g>
			
				<radialGradient id="SVGID_00000048501835171644554290000016169241375595321777_" cx="946.525" cy="573.7278" r="721.0999" gradientUnits="userSpaceOnUse">
				<stop  offset="7.458905e-08" style="stop-color:#918268"/>
				<stop  offset="0.25" style="stop-color:#C1AE8C"/>
				<stop  offset="0.2902" style="stop-color:#B7A585"/>
				<stop  offset="0.4229" style="stop-color:#9B8C70"/>
				<stop  offset="0.5" style="stop-color:#918268"/>
				<stop  offset="0.6278" style="stop-color:#857862"/>
				<stop  offset="0.75" style="stop-color:#7F735F"/>
				<stop  offset="0.7797" style="stop-color:#91836B"/>
				<stop  offset="0.8322" style="stop-color:#AC9B7D"/>
				<stop  offset="0.886" style="stop-color:#BFAC8A"/>
				<stop  offset="0.9412" style="stop-color:#CAB691"/>
				<stop  offset="1" style="stop-color:#CEB994"/>
			</radialGradient>
			<path style="fill:url(#SVGID_00000048501835171644554290000016169241375595321777_);" d="M1952,675.9
				c-37.4-7.8-75.4-12.5-112.7-21c-34.9-7.9-69.2-18.3-103.2-29.6c-38.7-12.9-79.1-20-118.2-31.6c-8.6-2.6-17.2-5.4-26-6.9
				c-9.1-1.6-17.7-6.1-26.3-9.2c-16.2-5.9-32.8-10.6-50-12.3c-17.3-1.6-34.4,0.5-51.5,2.4c-18.3,2.1-36.1,5.6-53.6,11.4
				c-36,12-69.3,31.3-103.9,46.8c-20.2,9-40.4,18-60.6,27.1c-19.9,9-39.6,19.6-59.9,27.6c-6,2.4-12.4,2.9-18.5,5.3
				c-6.9,2.7-13.5,6.1-20.1,9.5c-18.3,9.3-36.6,18.4-55.7,26c-37.1,14.7-77.6,25.6-117.8,21.9c-42.7-4-77.6-28.2-111.4-52.7
				c-32.1-23.3-62.8-48.4-95.4-71c-14.6-10.2-29.6-19.9-45.4-28.1c-14.3-7.4-30.5-16-46.7-18.2c-15-2-32.1-2.2-46.9,0.9
				c-19.2,4-34.6,15.5-49.9,27.3c-33.8,26-67.4,52.2-102.6,76.3c-33.5,22.9-76.9,58.2-119.1,37.6c-31.6-15.4-54.9-43.2-72.9-72.6
				c-35.8-58.4-56.2-125.7-107.5-173.6c-48.7-45.5-117.5-77.4-185-66.3c-17.7,2.9-34.6,8.5-50.3,17.1c-1.7,0.9-0.2,3.5,1.5,2.6
				C12.6,384.1,95,409.3,155,455.2c29.7,22.7,52.8,51.7,71,84.2c16.4,29.4,29.8,60.2,46.1,89.6c15,27,32.8,53.3,57.4,72.4
				c12.1,9.5,26,18.7,41.3,22.1c16.5,3.7,32.9-0.5,47.9-7.5c37.3-17.3,71.4-44.2,104.2-68.7c16.6-12.4,33.1-25.1,49.5-37.7
				c16.9-13,33.6-27.4,54.9-32.3c16-3.7,37.9-4.1,54,0c18.2,4.6,36,14.3,52.2,23.8c33,19.3,63.2,43.3,93.6,66.4
				c31,23.6,62.6,49.4,98.2,65.8c32.9,15.1,69.5,16.2,104.6,9.7c37.4-7,73.2-21.7,107.1-38.8c15-7.6,29.2-15.4,45.6-19.1
				c7.1-1.6,14.2-6.2,20.9-9.3c10.6-4.9,21.2-9.8,31.8-14.6c38.5-17.5,77.1-34.9,115.6-52.6c17.9-8.3,35.1-17.5,53.7-24.2
				c19.4-7,39.2-11.4,59.7-13.7c16.6-1.9,33.1-4,49.9-2.6c19.2,1.6,37.6,7.3,55.5,14c35,13.2,72.4,21.1,108.7,30.3
				c20.4,5.1,40.8,10.3,60.8,16.9c18,5.9,36,11.6,54.2,16.8c34.7,9.9,69.9,17.2,105.4,23.2c17.6,3,35.3,5.7,52.7,9.4
				C1953.1,679.2,1953.9,676.3,1952,675.9L1952,675.9z"/>
		</g>
	</g>
	<g>
		<g>
			
				<radialGradient id="SVGID_00000039839966384638647160000000198515058868849332_" cx="938.0549" cy="581.6157" r="720.4111" gradientUnits="userSpaceOnUse">
				<stop  offset="7.458905e-08" style="stop-color:#918268"/>
				<stop  offset="0.25" style="stop-color:#C1AE8C"/>
				<stop  offset="0.2902" style="stop-color:#B7A585"/>
				<stop  offset="0.4229" style="stop-color:#9B8C70"/>
				<stop  offset="0.5" style="stop-color:#918268"/>
				<stop  offset="0.6278" style="stop-color:#857862"/>
				<stop  offset="0.75" style="stop-color:#7F735F"/>
				<stop  offset="0.7797" style="stop-color:#91836B"/>
				<stop  offset="0.8322" style="stop-color:#AC9B7D"/>
				<stop  offset="0.886" style="stop-color:#BFAC8A"/>
				<stop  offset="0.9412" style="stop-color:#CAB691"/>
				<stop  offset="1" style="stop-color:#CEB994"/>
			</radialGradient>
			<path style="fill:url(#SVGID_00000039839966384638647160000000198515058868849332_);" d="M1946.4,658.5
				c-36.7-9.3-74.6-13.7-111.8-19.8c-35.7-5.9-71.2-12.3-106.7-19.3c-37.1-7.3-75.8-6.9-113.3-11.5c-8.4-1-16.8-1.1-25.2-2
				c-9.6-1-19.1-4-28.7-5.6c-16.2-2.8-32.5-4.2-49-3.2c-36.3,2.3-73.7,11.2-108,23c-16.7,5.7-33,12.7-49.9,17.8
				c-20.1,6-40.2,12-60.4,17.6c-20.3,5.5-40.5,11.1-60.8,16.8c-10.1,2.8-20.1,5.7-30.1,8.6c-8.3,2.4-16.1,2.9-24.5,4.2
				c-16.9,2.7-33.1,10.1-49.4,15.4c-18.1,5.8-36.5,10.8-55.2,14.4c-40.6,7.9-84,9.6-123.6-4c-38.3-13.2-72.8-38.7-106.8-60.2
				c-32-20.2-64.3-40.9-99.2-56c-15.2-6.6-31.1-12.1-47.3-15.7c-15-3.4-31.1-1.8-46.2,0.3c-36.8,5-63.8,32.2-92,54
				c-32.8,25.4-66,50.4-101.7,71.7c-18.3,10.9-38.5,22.4-60.5,22c-19.2-0.3-37.7-10.7-52.8-21.8c-25.9-19-44.2-46.4-59.8-74
				c-31.4-55.4-55.2-115.2-109.3-153.1C119,439.2,45,424.4-21,438.8c-17.2,3.8-33.8,9.5-49.6,17.4c-1.7,0.9-0.2,3.5,1.5,2.6
				c68.5-34.2,152.8-27.5,219.5,8.1c32.4,17.3,59.1,42.4,79.2,73c16.8,25.6,30,53.3,44.5,80.1c14,25.8,29.2,51.7,50.2,72.6
				c20.5,20.5,50.2,40.3,80.5,36.9c17.5-2,33.7-10.4,48.7-19.1c17.1-9.9,33.6-20.8,49.7-32.2c32.5-22.8,63.2-48,94.8-72
				c16.9-12.8,34.3-21.9,55.7-24.3c19-2.1,36.1-2,54.6,3.4c35.4,10.3,67.6,27.8,99,46.8c34.1,20.6,67,43,101.6,62.8
				c32.9,18.8,67.5,29.1,105.6,29.2c36.8,0.1,73.2-7.7,108.2-18.5c17.4-5.3,34.5-13.1,52.3-16.8c6.4-1.3,12.8-0.5,19-2.2
				c10.7-3,21.3-6.2,31.9-9.2c40.5-11.4,81.2-21.9,121.4-34.3c36.1-11.1,70.6-26.8,107.9-34.1c36.2-7.1,71-11.9,107.7-5.2
				c8.5,1.6,17.3,4.8,25.9,5.5c7.9,0.7,15.9,0.4,23.9,1.4c18.5,2.2,37,3.8,55.5,5.2c20.1,1.6,40.8,2.8,60.6,6.7
				c19.1,3.8,38.3,7.4,57.5,10.9c35.6,6.3,71.4,11.8,107.1,17.6c17.4,2.8,34.8,5.9,52,10.2C1947.5,661.9,1948.3,659,1946.4,658.5
				L1946.4,658.5z"/>
		</g>
	</g>
	<g>
		<g>
			
				<radialGradient id="SVGID_00000025410490112050794730000010069256479166918301_" cx="929.5848" cy="598.9196" r="721.2694" gradientUnits="userSpaceOnUse">
				<stop  offset="7.458905e-08" style="stop-color:#918268"/>
				<stop  offset="0.25" style="stop-color:#C1AE8C"/>
				<stop  offset="0.2902" style="stop-color:#B7A585"/>
				<stop  offset="0.4229" style="stop-color:#9B8C70"/>
				<stop  offset="0.5" style="stop-color:#918268"/>
				<stop  offset="0.6278" style="stop-color:#857862"/>
				<stop  offset="0.75" style="stop-color:#7F735F"/>
				<stop  offset="0.7797" style="stop-color:#91836B"/>
				<stop  offset="0.8322" style="stop-color:#AC9B7D"/>
				<stop  offset="0.886" style="stop-color:#BFAC8A"/>
				<stop  offset="0.9412" style="stop-color:#CAB691"/>
				<stop  offset="1" style="stop-color:#CEB994"/>
			</radialGradient>
			<path style="fill:url(#SVGID_00000025410490112050794730000010069256479166918301_);" d="M1940.9,641.2
				c-34.9-10.3-71.7-14.4-107.8-18c-37.2-3.7-75-6.8-112.4-7.5c-20.1-0.4-40.7,2.2-60.6,4.2c-19,2-38.2,2.6-57.2,4.9
				c-17,2.1-33.8,0.8-51,1.4c-17.6,0.6-35.2,3-52.4,7.1c-35.8,8.5-71,18.2-106.5,28.1c-37.8,10.5-77.1,13-115.9,17.1
				c-21,2.2-42,4.4-62.9,6.8c-16.3,1.8-32.3,0-48.5,2.4c-38.2,5.7-75.6,12.7-114.4,12.4c-43.1-0.4-84.4-8.9-123.1-28.2
				c-36-17.9-70.9-38.1-107.3-55.3c-31.3-14.8-64-28.2-98.5-33.4c-31.4-4.8-66.3-1.8-94.5,14.1c-16,9-30,21.6-44.4,33
				c-16.5,13.1-33,26.1-49.9,38.6c-15.8,11.7-32,23-48.8,33.4c-17.1,10.6-35.1,21.5-54.7,26.8c-35.7,9.5-71.7-10.9-96.1-35.9
				c-20.6-21.2-35.6-47.1-49.8-72.7c-14.4-25.9-28.1-52.5-45.9-76.2c-19.3-25.6-44.1-46.1-73.3-59.4c-60.6-27.7-133.3-27-196.7-10.3
				c-17.3,4.6-34.2,10.5-50.5,18c-1.8,0.8-0.2,3.4,1.5,2.6c66.8-30.3,148.3-39.1,218.9-17.2c34.1,10.6,65.1,29.6,88.5,56.8
				c19.4,22.5,33.7,49,48,75c26.5,48.2,55.2,100.5,110,120.3c34.9,12.6,67.3-4.3,96.8-22.1c32.4-19.6,62.5-42.6,92.2-66
				c15.8-12.5,31.1-26,47.9-37.1c16.2-10.7,33.8-15.2,52.6-18.6c36.9-6.6,74.7,4.1,109.1,17.6c36.6,14.3,71.4,33.1,106.1,51.5
				c35.3,18.7,69.5,36.6,109.3,43.5c36.1,6.2,73.1,5.4,109.5,1.2c17.8-2.1,35.4-5.4,53.1-8.4c8.5-1.4,17.3-2.8,25.9-2.3
				c3.1,0.2,6.2,1.2,9.2,1.2c5.8,0,11.8-1.4,17.6-2c41-4.6,82.1-7.9,123-13.2c16.9-2.2,33.7-4.6,50.2-9c17.6-4.7,35-10.3,52.5-15.1
				c35.1-9.7,72.2-19.8,108.7-21.5c16.5-0.8,33.5,1.8,49.7-0.9c19.1-3.1,38.9-3.1,58.2-5.2c19.4-2,38.8-3.9,58.3-4.6
				c19.8-0.7,40.1,1.8,59.9,3c38.2,2.3,76.4,5.7,114.3,11.5c17.3,2.7,34.4,6,51.2,10.9C1942,644.6,1942.8,641.7,1940.9,641.2
				L1940.9,641.2z"/>
		</g>
	</g>
	<g>
		<g>
			
				<radialGradient id="SVGID_00000025409003710199108830000005499956720386379697_" cx="921.1922" cy="613.3124" r="722.4406" gradientUnits="userSpaceOnUse">
				<stop  offset="7.458905e-08" style="stop-color:#918268"/>
				<stop  offset="0.25" style="stop-color:#C1AE8C"/>
				<stop  offset="0.2902" style="stop-color:#B7A585"/>
				<stop  offset="0.4229" style="stop-color:#9B8C70"/>
				<stop  offset="0.5" style="stop-color:#918268"/>
				<stop  offset="0.6278" style="stop-color:#857862"/>
				<stop  offset="0.75" style="stop-color:#7F735F"/>
				<stop  offset="0.7797" style="stop-color:#91836B"/>
				<stop  offset="0.8322" style="stop-color:#AC9B7D"/>
				<stop  offset="0.886" style="stop-color:#BFAC8A"/>
				<stop  offset="0.9412" style="stop-color:#CAB691"/>
				<stop  offset="1" style="stop-color:#CEB994"/>
			</radialGradient>
			<path style="fill:url(#SVGID_00000025409003710199108830000005499956720386379697_);" d="M1935.4,623.8
				c-34.7-11.8-72.2-15.6-108.7-16.6c-19.4-0.5-38.9,0.1-58.3,1.4c-18.3,1.2-37.4,1.8-55.5,5.4c-18.3,3.7-36.4,8.5-54.4,13.8
				c-18.5,5.4-37.4,9.7-55.7,15.6c-16.5,5.4-33.8,7.3-50.8,11c-18.4,4-36.5,9.2-54.4,15.2c-17.3,5.8-35,10.2-52.6,15.1
				c-18.9,5.3-38,10.5-57.5,12.9c-18.8,2.3-38.2,0.9-57.1-0.1c-20.7-1.1-41.4-1.1-62.1-1.7c-37.4-1.1-73.9-9.2-111.3-10.2
				c-39.1-1-77.9-1.6-116.7-7.9c-41.4-6.8-79.4-20-117.4-37.5c-35.1-16.1-70.7-31.8-107.6-43.3c-33.5-10.4-67.7-16.5-102.9-14.9
				c-33,1.6-67.1,15.9-92.9,36c-30.6,23.8-59.8,49.1-91.6,71.2c-30.5,21.3-69.4,49.3-108.4,47.2c-65.6-3.5-101.8-68.8-130.6-118.8
				c-13.7-23.7-27.5-47.8-45.5-68.5c-20.7-23.8-47.4-41.2-77.4-51.1c-65.9-21.7-139.9-8.6-204.6,10.9c-18.5,5.6-36.7,12.1-54.6,19.4
				c-1.8,0.7-1,3.6,0.8,2.9c68-28.1,147.5-49.2,221.6-38.6c34.9,5,68.6,18.3,95.4,41.7c22.3,19.6,38.5,45,53.4,70.4
				c26.4,44.8,51.3,98.7,100.4,122.8c13.9,6.8,29.1,12,44.7,12c16.6,0.1,32.6-5.5,47.5-12.5c33.6-15.9,64.1-38.1,93.3-60.7
				c14.7-11.4,29.2-23.2,43.7-34.9c16.9-13.6,33.2-26.5,53.8-34c16.9-6.2,34.8-11.8,52.8-12.4c18.6-0.7,37,0.4,55.4,3.6
				c38.6,6.8,75.6,20.9,111.5,36.2c35,14.9,68.8,33.1,105.4,43.8c36.7,10.8,74.7,16.2,112.8,18.4c37.3,2.2,74.1,1,111.2,7
				c38.4,6.2,77.4,4.4,116.1,6.3c19.1,0.9,38.6,2.7,57.7,0.7c17-1.7,33.8-5.8,50.3-10.3c36.2-9.8,71.8-22.5,108.3-31.2
				c16.8-4,34.4-5.5,51.1-9.8c8.4-2.2,16.6-5.7,25-7.9c9.4-2.5,18.8-5,28.2-7.7c18.4-5.3,36.6-10.5,55.3-14.8
				c19.8-4.5,40-6,60.2-7.5c39.4-2.9,78.8-2.8,118,2.5c18.3,2.5,36.4,6.2,53.9,12.1C1936.4,627.3,1937.2,624.4,1935.4,623.8
				L1935.4,623.8z"/>
		</g>
	</g>
	<g>
		<g>
			
				<radialGradient id="SVGID_00000087369974099011304430000012469651157286918551_" cx="912.7157" cy="625.7044" r="723.9065" gradientUnits="userSpaceOnUse">
				<stop  offset="7.458905e-08" style="stop-color:#918268"/>
				<stop  offset="0.25" style="stop-color:#C1AE8C"/>
				<stop  offset="0.2902" style="stop-color:#B7A585"/>
				<stop  offset="0.4229" style="stop-color:#9B8C70"/>
				<stop  offset="0.5" style="stop-color:#918268"/>
				<stop  offset="0.6278" style="stop-color:#857862"/>
				<stop  offset="0.75" style="stop-color:#7F735F"/>
				<stop  offset="0.7797" style="stop-color:#91836B"/>
				<stop  offset="0.8322" style="stop-color:#AC9B7D"/>
				<stop  offset="0.886" style="stop-color:#BFAC8A"/>
				<stop  offset="0.9412" style="stop-color:#CAB691"/>
				<stop  offset="1" style="stop-color:#CEB994"/>
			</radialGradient>
			<path style="fill:url(#SVGID_00000087369974099011304430000012469651157286918551_);" d="M1929.9,606.5
				c-34.9-13.4-73.5-16.7-110.6-14.5c-37.6,2.2-78.3,8.9-113.4,22.9c-34.4,13.7-68.3,30-101.1,47.2c-16.7,8.7-34.5,14.9-52,21.9
				c-17.4,7-34.6,14.4-52,21.4c-34.6,14-75.1,27.3-112.9,24.7c-20.4-1.5-40.4-6.8-60.3-11c-20.3-4.3-40.6-8-60.9-12.3
				c-37.2-7.9-73.1-20.3-110.5-27.4c-38.1-7.2-76.1-14.7-113.5-25c-39.9-10.9-77.9-25.6-116.4-40.5c-36.5-14.1-74.2-26.1-113-32
				c-33.7-5.1-68.3-5.2-101.5,3c-34,8.4-64.7,27.5-91.5,49.5c-30.3,24.9-60.3,50.3-93.3,71.5c-35,22.5-75,43.8-117.5,31.9
				c-57.6-16.1-85.9-72.9-114.7-120.2c-13.7-22.5-28.2-45.1-47.1-63.6c-22.8-22.3-51.9-36.6-83.1-43C93,496.5,19.8,520.7-47,543.8
				c-19.3,6.7-38.4,13.7-57.5,20.9c-1.8,0.7-1,3.6,0.8,2.9c37.7-14.1,75.5-27.8,114.1-39.1c36.6-10.7,74.3-19.3,112.6-18.8
				c35.4,0.5,71.1,8.9,100.8,28.9c25.2,17,43.6,41.5,59.7,66.9c27.2,42.8,50,95,95,122.4c27.7,16.8,60,21.2,90.8,10.8
				c35.2-11.9,67-34.2,96.3-56.5c13.8-10.5,27.3-21.5,40.8-32.6c16.1-13.2,31.8-27.6,50-38c32.9-19,69.1-29.5,107.2-30.2
				c38.5-0.7,76.8,7.5,113.4,18.7c38,11.6,74.1,28.4,111.7,41.1c38,12.9,76.8,23.1,116.1,31.4c36.4,7.7,73,13.1,108.6,24
				c38.3,11.7,78,17.9,117.1,26.3c18.4,3.9,36.8,8.6,55.6,10.2c16.5,1.4,33.3-0.8,49.5-4.3c37.7-8.2,72.6-23.4,108.2-37.8
				c16.3-6.6,32.9-12.7,49.2-19.4c16.4-6.8,32.4-16,48.5-23.8c35.4-17.3,69.9-33.3,108.5-42.1c40.2-9.2,81.3-13.6,122.5-9.3
				c19.4,2.1,38.4,6.2,56.6,13.1C1930.9,610,1931.7,607.1,1929.9,606.5L1929.9,606.5z"/>
		</g>
	</g>
	<g>
		<g>
			
				<radialGradient id="SVGID_00000033364843578077251230000018269496470002197685_" cx="904.3195" cy="645.0155" r="726.1766" gradientUnits="userSpaceOnUse">
				<stop  offset="7.458905e-08" style="stop-color:#918268"/>
				<stop  offset="0.25" style="stop-color:#C1AE8C"/>
				<stop  offset="0.2902" style="stop-color:#B7A585"/>
				<stop  offset="0.4229" style="stop-color:#9B8C70"/>
				<stop  offset="0.5" style="stop-color:#918268"/>
				<stop  offset="0.6278" style="stop-color:#857862"/>
				<stop  offset="0.75" style="stop-color:#7F735F"/>
				<stop  offset="0.7797" style="stop-color:#91836B"/>
				<stop  offset="0.8322" style="stop-color:#AC9B7D"/>
				<stop  offset="0.886" style="stop-color:#BFAC8A"/>
				<stop  offset="0.9412" style="stop-color:#CAB691"/>
				<stop  offset="1" style="stop-color:#CEB994"/>
			</radialGradient>
			<path style="fill:url(#SVGID_00000033364843578077251230000018269496470002197685_);" d="M1924.7,589.3
				c-68.5-29.2-151.9-11.8-215.4,22.6c-35.3,19.1-67.9,43.6-100.4,67.1c-30.9,22.3-64.1,42-98.2,59.1c-36.7,18.5-79.9,32.5-121,22.1
				c-19-4.8-37.2-12.5-55.5-19.5c-18.7-7.1-37.5-14-56.2-21.1c-37.8-14.4-74.6-31.1-112.5-45.1c-38.2-14.1-76.5-28.2-114.7-42.4
				c-73.8-27.5-148.7-59.5-228.5-62.2c-36.9-1.2-74,4.3-108.1,18.7c-34.6,14.7-64.2,37.5-92.7,61.4c-30.2,25.3-60.5,51-94.8,70.6
				c-35.9,20.5-76.5,34.5-117.3,20c-54.1-19.2-80.6-77.8-109.7-122.7c-14.3-22-30.2-43.8-51-60.2c-24.9-19.7-55.3-30.2-86.7-33.3
				c-77.2-7.6-149.9,27.2-219.8,54.9c-19.2,7.6-38.6,15-58.2,21.6c-1.8,0.6-1,3.5,0.8,2.9c39.1-13.2,77-29.5,115.4-44.4
				c37.2-14.5,75.3-27.8,115.2-31.7c35.7-3.5,72.9,0,105.4,16c28,13.8,49,36.4,66.7,61.6c29.4,41.9,51,93.8,94,124.1
				c24,16.9,54.1,23.9,83.1,18.9c36-6.2,69.3-26.7,98.5-47.7c31.3-22.5,59.2-49.1,89.9-72.4c31.5-24,68.2-42.6,107.2-50.5
				c80.5-16.3,159.3,9.8,234.2,36.9c38.5,13.9,76.9,28.4,115.3,42.7c38,14.1,76.1,27.7,113.3,43.6c36.3,15.5,73.4,28.8,110.3,42.8
				c34.6,13.2,67.7,27.3,105.5,21.8c37-5.4,71-22.5,103.2-40.6c33.4-18.8,64.4-40.4,95.6-62.5c33.9-24,67.6-47.6,106.5-62.8
				c37.5-14.7,77.5-23.8,118-21.5c21,1.2,41.6,5.6,61,13.9C1924.9,592.6,1926.5,590,1924.7,589.3L1924.7,589.3z"/>
		</g>
	</g>
	<g>
		<g>
			
				<radialGradient id="SVGID_00000035490262622828408320000017836409749187892636_" cx="895.8495" cy="669.953" r="729.0984" gradientUnits="userSpaceOnUse">
				<stop  offset="7.458905e-08" style="stop-color:#918268"/>
				<stop  offset="0.25" style="stop-color:#C1AE8C"/>
				<stop  offset="0.2902" style="stop-color:#B7A585"/>
				<stop  offset="0.4229" style="stop-color:#9B8C70"/>
				<stop  offset="0.5" style="stop-color:#918268"/>
				<stop  offset="0.6278" style="stop-color:#857862"/>
				<stop  offset="0.75" style="stop-color:#7F735F"/>
				<stop  offset="0.7797" style="stop-color:#91836B"/>
				<stop  offset="0.8322" style="stop-color:#AC9B7D"/>
				<stop  offset="0.886" style="stop-color:#BFAC8A"/>
				<stop  offset="0.9412" style="stop-color:#CAB691"/>
				<stop  offset="1" style="stop-color:#CEB994"/>
			</radialGradient>
			<path style="fill:url(#SVGID_00000035490262622828408320000017836409749187892636_);" d="M1919.2,571.9
				c-66.9-31.7-143.4-6.5-201.5,32.4c-65.1,43.6-113.5,107.3-177.2,152.7c-35.1,25-78.2,48.5-122.8,39.8c-21.1-4.1-40.3-14.8-59-25
				c-20.9-11.5-41.8-23-62.7-34.5c-41.2-22.7-82.4-45.3-123.6-68c-38.9-21.4-77.6-43.1-117.8-61.9c-73.9-34.5-155.3-59-237.6-48.3
				c-36.9,4.8-71.9,17.2-103.5,36.7c-29,17.9-55,40.1-80.8,62.2c-26.9,23.1-54,46.4-84.5,64.6c-34.1,20.2-76.3,36.3-116.3,27.7
				c-61-13.1-90-77.2-121.7-124c-15.7-23.1-33.4-45.6-56.7-61.5c-29.1-19.7-64.6-27.2-99.3-26.5C73.9,540,4.6,582.1-66.4,613.9
				c-19.8,8.9-40,16.9-60.8,23.2c-1.8,0.6-1.1,3.5,0.8,2.9c78.6-23.9,147.2-74.2,227.8-92.1c37.4-8.3,77.5-10.1,114.3,1.9
				c33.4,10.9,58.9,33.5,79.7,61.1c32.8,43.5,55.6,101.5,104.5,130.2c60.9,35.7,133.4-1.2,183.6-39
				c54.6-41.1,101.9-94.3,165.8-121.8c79.9-34.3,171.1-22.2,250.4,7.2c83.8,31,161.2,78.8,239.2,121.7
				c41.5,22.8,82.9,45.9,124.6,68.5c16.9,9.2,34.4,18.1,53.4,21.9c17.8,3.5,36,2,53.4-3c36.4-10.4,68.7-33.3,97.6-57.1
				c30.3-25,57.9-53.1,86.7-79.7c56.2-52.1,125.8-102.9,206.5-99.4c19.7,0.8,38.9,5.6,56.7,14
				C1919.4,575.3,1920.9,572.7,1919.2,571.9L1919.2,571.9z"/>
		</g>
	</g>
	<g>
		<g>
			
				<radialGradient id="SVGID_00000132048298006683446410000003111196857099920036_" cx="903.0272" cy="664.7955" r="725.5305" gradientUnits="userSpaceOnUse">
				<stop  offset="7.458905e-08" style="stop-color:#918268"/>
				<stop  offset="0.25" style="stop-color:#C1AE8C"/>
				<stop  offset="0.2902" style="stop-color:#B7A585"/>
				<stop  offset="0.4229" style="stop-color:#9B8C70"/>
				<stop  offset="0.5" style="stop-color:#918268"/>
				<stop  offset="0.6278" style="stop-color:#857862"/>
				<stop  offset="0.75" style="stop-color:#7F735F"/>
				<stop  offset="0.7797" style="stop-color:#91836B"/>
				<stop  offset="0.8322" style="stop-color:#AC9B7D"/>
				<stop  offset="0.886" style="stop-color:#BFAC8A"/>
				<stop  offset="0.9412" style="stop-color:#CAB691"/>
				<stop  offset="1" style="stop-color:#CEB994"/>
			</radialGradient>
			<path style="fill:url(#SVGID_00000132048298006683446410000003111196857099920036_);" d="M-115.2,626.9
				c77.4-20.7,147.4-64.9,227-77.9c36.5-6,75.1-5.6,110.3,6.8c31.5,11.1,56.4,32.2,77.4,57.7c34.2,41.7,60,98.1,110.3,123.3
				c60.4,30.3,129.9-4,180.1-39.2c55-38.6,104.1-89,168.4-112.3c81.1-29.4,174.3-11.9,253.3,16c82.1,28.9,159.5,71.2,237.9,108.8
				c39.3,18.8,78.5,37.8,117.8,56.6c17.2,8.2,35,16.1,53.9,19.2c17.7,2.9,35.7,1.2,52.9-3.5c72.5-19.8,129.8-78,186.4-124.2
				c58.3-47.6,128.3-91.8,206.5-89.1c18.7,0.6,36.9,4.5,54.2,11.4c1.8,0.7,2.6-2.2,0.8-2.9c-67.2-27-142.6-3-201.6,33
				c-65,39.7-116.4,97.8-181.1,138c-36.3,22.6-79,42.3-122.7,33.3c-21.3-4.4-41-14.6-60.4-24c-19.6-9.5-39.3-18.9-58.9-28.3
				c-78.6-37.6-156.2-78.3-236.5-112.4c-75.2-31.9-158.4-56-240.9-48.5c-35.9,3.3-70,14-101.4,31.6c-28.5,16-54.3,36.3-80,56.5
				c-53.9,42.4-121.1,97.8-194.9,87.4c-62-8.7-94.4-69.3-128.2-114.9c-16.5-22.4-34.8-44-58.2-59.5c-28.3-18.7-62.2-26.7-95.8-27.5
				c-78.1-1.8-148.1,34.8-219.1,62.2c-19.2,7.4-38.6,14.1-58.5,19.4C-117.8,624.5-117,627.4-115.2,626.9L-115.2,626.9z"/>
		</g>
	</g>
	<g>
		<g>
			
				<radialGradient id="SVGID_00000021119669730391034100000011194094082513125263_" cx="910.2897" cy="659.4852" r="721.9644" gradientUnits="userSpaceOnUse">
				<stop  offset="7.458905e-08" style="stop-color:#918268"/>
				<stop  offset="0.25" style="stop-color:#C1AE8C"/>
				<stop  offset="0.2902" style="stop-color:#B7A585"/>
				<stop  offset="0.4229" style="stop-color:#9B8C70"/>
				<stop  offset="0.5" style="stop-color:#918268"/>
				<stop  offset="0.6278" style="stop-color:#857862"/>
				<stop  offset="0.75" style="stop-color:#7F735F"/>
				<stop  offset="0.7797" style="stop-color:#91836B"/>
				<stop  offset="0.8322" style="stop-color:#AC9B7D"/>
				<stop  offset="0.886" style="stop-color:#BFAC8A"/>
				<stop  offset="0.9412" style="stop-color:#CAB691"/>
				<stop  offset="1" style="stop-color:#CEB994"/>
			</radialGradient>
			<path style="fill:url(#SVGID_00000021119669730391034100000011194094082513125263_);" d="M-103.9,613.8
				c76.2-17.5,147.5-55.3,225.9-63.3c35.2-3.6,71.6-1.4,105.1,10.8c31.6,11.5,56.9,32.5,78.8,57.5c34.8,39.7,63.4,92.2,114.3,113.6
				c61.1,25.7,129-8.2,179.8-41.8C654.4,654.7,705,608.3,768.9,590c41.5-11.9,85.2-10.3,127.6-4.7c42.4,5.6,84.1,15.2,124.7,28.5
				c78,25.4,152.6,60.8,228.5,91.8c39.2,16,78.4,31.9,117.4,48.1c35.5,14.8,69.1,24.1,107.5,15.2c72.5-17,132.6-70,192-112
				c59.8-42.4,128.9-80.2,204.3-79.3c18.3,0.2,36.3,3.1,53.7,8.8c1.8,0.6,2.6-2.3,0.8-2.9c-66.3-21.8-138.7-0.7-198,31.1
				c-65.9,35.3-120.6,88-186.2,123.8c-37.4,20.4-80.1,37.8-123.3,29.2c-19.2-3.8-37.3-11.6-55.3-19.1c-19.6-8.2-39.2-16.2-58.8-24.2
				c-77.1-31.4-153.3-65.4-231-95.4c-76.1-29.3-159-52.7-241.3-51c-35.8,0.7-70.2,8.7-102.4,24.2c-29,14-55.5,32.7-81.6,51.5
				c-54.5,39.1-117,87.6-188,84.4c-63.8-2.9-100.5-59-136.6-103.9c-17.5-21.8-36.4-43-59.9-58.4c-27.8-18.3-60.7-27.1-93.7-29.3
				c-75.5-5-145.5,25-215.8,48c-19.1,6.3-38.4,11.9-58.1,16.4C-106.6,611.4-105.8,614.2-103.9,613.8L-103.9,613.8z"/>
		</g>
	</g>
	<g>
		<g>
			
				<radialGradient id="SVGID_00000159449108559105534930000011272221567364715141_" cx="917.5492" cy="653.8778" r="718.4706" gradientUnits="userSpaceOnUse">
				<stop  offset="7.458905e-08" style="stop-color:#918268"/>
				<stop  offset="0.25" style="stop-color:#C1AE8C"/>
				<stop  offset="0.2902" style="stop-color:#B7A585"/>
				<stop  offset="0.4229" style="stop-color:#9B8C70"/>
				<stop  offset="0.5" style="stop-color:#918268"/>
				<stop  offset="0.6278" style="stop-color:#857862"/>
				<stop  offset="0.75" style="stop-color:#7F735F"/>
				<stop  offset="0.7797" style="stop-color:#91836B"/>
				<stop  offset="0.8322" style="stop-color:#AC9B7D"/>
				<stop  offset="0.886" style="stop-color:#BFAC8A"/>
				<stop  offset="0.9412" style="stop-color:#CAB691"/>
				<stop  offset="1" style="stop-color:#CEB994"/>
			</radialGradient>
			<path style="fill:url(#SVGID_00000159449108559105534930000011272221567364715141_);" d="M-92.7,600.7
				c74.8-14.3,146.9-45,223.6-48.3c34.7-1.5,70.1,2.3,102.7,15c30.4,11.8,55.4,31.7,77.7,55.1c35.7,37.5,66.9,85.9,117.6,104.4
				c61.5,22.4,128.5-10.5,180.3-42.3c54.7-33.6,107.2-76.6,171.6-89.7c41.8-8.5,84.5-3.1,126.1,3.5c39.3,6.3,78.3,14.4,116.6,25.4
				c77.1,22.1,151.7,52.5,227.6,78.2c39.1,13.2,78.3,26.1,117.2,39.7c35.5,12.4,69.1,21.1,106.7,13.6
				c71.6-14.3,133.9-60.6,195.1-97.8c61.9-37.7,130.6-70.5,204.5-71.4c17.9-0.2,35.7,1.8,53.1,6.2c1.9,0.5,2.7-2.4,0.8-2.9
				c-65.9-16.8-135.9,2-195.9,30.2c-66.7,31.3-124.8,78.2-191.6,109.4c-37.1,17.3-78.2,31.7-119.6,25c-19.9-3.2-39-10.4-57.9-17
				c-19.5-6.8-39.1-13.4-58.7-20c-77.2-25.9-153.5-54.5-230.8-80.4C1036.6,623.9,998.7,613,960,605c-38.9-8.1-78.8-15.4-118.6-17.2
				c-36-1.7-71,3.7-104.2,17.6c-28.7,12-55.2,28.6-81.2,45.5c-55.3,35.9-115.7,79.8-184.6,80.2c-63.9,0.4-103.7-50-142.3-93.6
				c-18.6-21-38.2-41.5-62.1-56.7c-27.1-17.2-58.5-26.5-90.2-30.1c-73-8.1-143,15.1-212.6,33.6c-19.1,5.1-38.3,9.7-57.7,13.4
				C-95.4,598.2-94.6,601.1-92.7,600.7L-92.7,600.7z"/>
		</g>
	</g>
	<g>
		<g>
			
				<radialGradient id="SVGID_00000116924838492317573680000008412677039718327691_" cx="924.8045" cy="647.7141" r="715.0627" gradientUnits="userSpaceOnUse">
				<stop  offset="7.458905e-08" style="stop-color:#918268"/>
				<stop  offset="0.25" style="stop-color:#C1AE8C"/>
				<stop  offset="0.2902" style="stop-color:#B7A585"/>
				<stop  offset="0.4229" style="stop-color:#9B8C70"/>
				<stop  offset="0.5" style="stop-color:#918268"/>
				<stop  offset="0.6278" style="stop-color:#857862"/>
				<stop  offset="0.75" style="stop-color:#7F735F"/>
				<stop  offset="0.7797" style="stop-color:#91836B"/>
				<stop  offset="0.8322" style="stop-color:#AC9B7D"/>
				<stop  offset="0.886" style="stop-color:#BFAC8A"/>
				<stop  offset="0.9412" style="stop-color:#CAB691"/>
				<stop  offset="1" style="stop-color:#CEB994"/>
			</radialGradient>
			<path style="fill:url(#SVGID_00000116924838492317573680000008412677039718327691_);" d="M-81.4,587.6
				c73.1-11,145.2-34.1,219.7-33.2c34.1,0.4,68.6,5.7,100.3,18.5c30.5,12.3,56.1,32.1,79.6,54.8c37.2,36,72,81.1,124.3,95
				c62.4,16.6,127.7-16.2,180.5-46.5c55.7-32,111.7-71.4,177.7-76.5c39.2-3.1,78.2,5.2,116.6,12.1c38.3,6.9,76.5,14,114.2,23.6
				c75.5,19.2,149.5,44.2,224.8,64.3c37.8,10.1,75.7,19.6,113.3,30.3c34.6,9.8,67.6,17.7,103.8,12c71.2-11.3,136.2-51.1,199.4-83.5
				c64-32.9,132.8-61.3,205.7-63.9c17.6-0.6,35.2,0.5,52.6,3.6c1.9,0.3,2.7-2.6,0.8-2.9c-66.9-12-136.3,5.5-198.1,31.1
				c-66.6,27.6-127.3,67.5-194.6,93.6c-37.7,14.6-77.9,25.9-118.6,19.6c-18.4-2.8-36.2-8.4-54-13.4c-19.5-5.5-39-10.7-58.6-15.8
				c-75.5-19.8-150.1-42.2-225.1-63.9c-37.4-10.8-75-20.4-113.2-27.9c-37.4-7.4-75.1-14.9-112.9-19.7c-35.3-4.5-70.4-3.3-104.5,7.6
				c-28.6,9.1-55.2,23.2-81.1,38.1c-56.9,32.7-115,73.3-182.4,79c-32.9,2.8-63.6-6.4-90.5-25.1c-23.5-16.3-43.1-37.5-63-57.8
				c-19.7-20-40.1-39.7-64.1-54.5c-27.6-17-59.2-26.9-91.2-31.4c-69.6-9.8-138.1,6.4-206,20.1c-18.7,3.8-37.4,7.3-56.2,10.1
				C-84.1,585-83.3,587.9-81.4,587.6L-81.4,587.6z"/>
		</g>
	</g>
	<g>
		<g>
			
				<radialGradient id="SVGID_00000125565519577546611230000010404403939550054018_" cx="932.0554" cy="641.1028" r="711.7263" gradientUnits="userSpaceOnUse">
				<stop  offset="7.458905e-08" style="stop-color:#918268"/>
				<stop  offset="0.25" style="stop-color:#C1AE8C"/>
				<stop  offset="0.2902" style="stop-color:#B7A585"/>
				<stop  offset="0.4229" style="stop-color:#9B8C70"/>
				<stop  offset="0.5" style="stop-color:#918268"/>
				<stop  offset="0.6278" style="stop-color:#857862"/>
				<stop  offset="0.75" style="stop-color:#7F735F"/>
				<stop  offset="0.7797" style="stop-color:#91836B"/>
				<stop  offset="0.8322" style="stop-color:#AC9B7D"/>
				<stop  offset="0.886" style="stop-color:#BFAC8A"/>
				<stop  offset="0.9412" style="stop-color:#CAB691"/>
				<stop  offset="1" style="stop-color:#CEB994"/>
			</radialGradient>
			<path style="fill:url(#SVGID_00000125565519577546611230000010404403939550054018_);" d="M-70.6,574.5
				c71.8-7.8,143.6-23.3,216.2-18.1c35.1,2.5,70.1,9.7,102.4,23.9c28.8,12.6,53.6,31.3,77,52c39.4,34.7,78,76.2,132.2,85.6
				c62.7,10.9,126.1-21.1,179.8-49.5c57-30,115.2-64,181.8-61.6c38.7,1.4,76.5,12.4,114.4,19.5c35.9,6.7,71.9,12.7,107.5,20.6
				c73.1,16,145.4,35.4,218.9,49.8c38.8,7.6,77.8,14.5,116.5,22.9c33.3,7.3,65.4,13,99.5,8.3c72-9.9,139.5-43.8,205.9-71.4
				c65.1-27,133.2-50.1,204.1-53.8c16.4-0.8,32.7-0.5,49,1.2c1.9,0.2,1.9-2.8,0-3c-143.2-15-267.1,68.4-398.2,109.4
				c-36.1,11.3-73.6,19.7-111.6,15.4c-38.2-4.4-76-15.2-113.8-22.3c-74.2-14.1-147.5-30.7-220.9-48.3
				c-72.7-17.4-146.4-30.4-219.7-44.7c-33.6-6.5-67.4-9.5-101.1-2.4c-28.1,5.9-54.8,17.3-80.5,29.9c-57.5,28.3-112.9,64.9-177.1,76
				c-34.9,6.1-69,1.5-100.1-15.8c-24.2-13.5-45-32.3-65.4-50.8c-20.8-18.9-41.7-38-65.6-53.1c-27.4-17.3-58.1-28.5-89.8-34.8
				c-67.1-13.5-135.2-4.6-202.3,4.6c-19.7,2.7-39.4,5.3-59.2,7.5C-72.5,571.7-72.5,574.7-70.6,574.5L-70.6,574.5z"/>
		</g>
	</g>
	<g>
		<g>
			
				<radialGradient id="SVGID_00000003077238698805293880000004553771801536041661_" cx="939.3065" cy="633.1896" r="708.5011" gradientUnits="userSpaceOnUse">
				<stop  offset="7.458905e-08" style="stop-color:#918268"/>
				<stop  offset="0.25" style="stop-color:#C1AE8C"/>
				<stop  offset="0.2902" style="stop-color:#B7A585"/>
				<stop  offset="0.4229" style="stop-color:#9B8C70"/>
				<stop  offset="0.5" style="stop-color:#918268"/>
				<stop  offset="0.6278" style="stop-color:#857862"/>
				<stop  offset="0.75" style="stop-color:#7F735F"/>
				<stop  offset="0.7797" style="stop-color:#91836B"/>
				<stop  offset="0.8322" style="stop-color:#AC9B7D"/>
				<stop  offset="0.886" style="stop-color:#BFAC8A"/>
				<stop  offset="0.9412" style="stop-color:#CAB691"/>
				<stop  offset="1" style="stop-color:#CEB994"/>
			</radialGradient>
			<path style="fill:url(#SVGID_00000003077238698805293880000004553771801536041661_);" d="M-59.3,561.4
				c71.1-4.6,142.8-12.6,213.8-2.8c33.9,4.7,67.4,13.2,98.7,27.3c28.6,12.9,54,30.9,78.4,50.4c41.5,33,83.6,69.9,138.6,75.7
				c62.9,6.6,124.9-24.1,180.1-50.2c59.4-28.1,120.1-56.1,187.5-45.7c35,5.4,68.8,16.9,103.6,23.4c35.1,6.6,70.5,11.6,105.6,17.9
				c72,13,143.6,27.3,216.2,36.3c38,4.7,76.2,8.5,114,14.3c34.1,5.2,67.2,9.9,101.8,5.7c70.3-8.4,138.1-34.3,205.1-56.1
				c66.8-21.7,135-40.9,205.3-46.4c16.1-1.3,32.3-1.7,48.4-1.3c1.9,0.1,1.9-2.9,0-3c-140.3-3.9-267.6,59.7-400.9,92.6
				c-36.4,9-73.6,15.6-111.3,12.3c-36.2-3.2-72.1-10.4-108.2-14.6c-74.6-8.8-148.4-20-222.2-33.8c-71.4-13.4-143.5-22.8-213.9-40.8
				c-32.5-8.3-65.1-14.7-98.8-10.6c-28.5,3.4-55.9,12.7-82.3,23.7c-57.9,24.3-112.8,57.5-175,69.9c-33.9,6.8-67.9,5.3-99.9-8.5
				c-26.5-11.4-49.6-29.1-72-46.9c-22.2-17.7-44.1-35.9-68.4-50.7c-27.3-16.5-57.2-28.1-88.1-35.7c-66.2-16.3-134.6-13.8-202-9
				c-18.1,1.3-36.2,2.6-54.3,3.8C-61.2,558.5-61.3,561.5-59.3,561.4L-59.3,561.4z"/>
		</g>
	</g>
	<g>
		<g>
			
				<radialGradient id="SVGID_00000121252344715106870810000001659981970721217666_" cx="946.5517" cy="625.1133" r="705.5766" gradientUnits="userSpaceOnUse">
				<stop  offset="7.458905e-08" style="stop-color:#918268"/>
				<stop  offset="0.25" style="stop-color:#C1AE8C"/>
				<stop  offset="0.2902" style="stop-color:#B7A585"/>
				<stop  offset="0.4229" style="stop-color:#9B8C70"/>
				<stop  offset="0.5" style="stop-color:#918268"/>
				<stop  offset="0.6278" style="stop-color:#857862"/>
				<stop  offset="0.75" style="stop-color:#7F735F"/>
				<stop  offset="0.7797" style="stop-color:#91836B"/>
				<stop  offset="0.8322" style="stop-color:#AC9B7D"/>
				<stop  offset="0.886" style="stop-color:#BFAC8A"/>
				<stop  offset="0.9412" style="stop-color:#CAB691"/>
				<stop  offset="1" style="stop-color:#CEB994"/>
			</radialGradient>
			<path style="fill:url(#SVGID_00000121252344715106870810000001659981970721217666_);" d="M-48.1,548.3c69.5-1.4,139.5-1.7,208,12
				c33.2,6.7,65.9,16.4,96.7,30.5c28.1,12.8,53.7,29.6,78.9,47.3c45.6,32.1,92.6,66,150.5,67.4c63.3,1.6,123.7-27.5,180.8-51.1
				c27.6-11.4,55.7-22.5,84.9-29c33.3-7.5,66.4-7.5,99.6,0.8c33.6,8.4,65.8,20.6,100,26.8c34.1,6.2,68.8,10,103.1,14.8
				c70.5,9.8,141,19.2,212.1,22.9c36.2,1.9,72.4,2.7,108.5,5.6c35.6,2.9,70.6,6.9,106.3,3.4c69-6.7,137-24.9,204.3-41
				c68-16.2,136.3-31.3,205.9-39c16.5-1.8,33-3.2,49.6-4c1.9-0.1,1.9-3.1,0-3c-137.8,6.9-268.9,51-403.8,75.6
				c-37,6.8-74.2,11.7-111.9,9.3c-35.6-2.2-71-6.1-106.7-7.7c-73.1-3.2-145.5-9-218.1-18.8c-69-9.3-139.9-15.1-206.7-35.6
				c-31.5-9.7-62.9-19.6-96.2-19.1c-28.5,0.5-56.5,7.3-83.3,16.4c-59.2,20.1-114.6,50.8-176,64c-33.5,7.2-67.4,7.9-100.3-2.9
				c-27.5-9-52.2-24.5-75.9-40.8c-24.1-16.6-47.5-34.2-72.8-48.9c-27.7-16-57.5-28.1-88.1-37c-63.6-18.4-130-22.8-195.9-22.7
				c-17.8,0-35.7,0.3-53.5,0.7C-50,545.4-50,548.4-48.1,548.3L-48.1,548.3z"/>
		</g>
	</g>
	<g>
		<g>
			
				<radialGradient id="SVGID_00000049196543345833125810000017904102393889356444_" cx="953.7911" cy="615.3629" r="702.9498" gradientUnits="userSpaceOnUse">
				<stop  offset="7.458905e-08" style="stop-color:#918268"/>
				<stop  offset="0.25" style="stop-color:#C1AE8C"/>
				<stop  offset="0.2902" style="stop-color:#B7A585"/>
				<stop  offset="0.4229" style="stop-color:#9B8C70"/>
				<stop  offset="0.5" style="stop-color:#918268"/>
				<stop  offset="0.6278" style="stop-color:#857862"/>
				<stop  offset="0.75" style="stop-color:#7F735F"/>
				<stop  offset="0.7797" style="stop-color:#91836B"/>
				<stop  offset="0.8322" style="stop-color:#AC9B7D"/>
				<stop  offset="0.886" style="stop-color:#BFAC8A"/>
				<stop  offset="0.9412" style="stop-color:#CAB691"/>
				<stop  offset="1" style="stop-color:#CEB994"/>
			</radialGradient>
			<path style="fill:url(#SVGID_00000049196543345833125810000017904102393889356444_);" d="M-36.8,535.2
				c68.2,1.7,136.3,8.9,202.3,26.7c32.9,8.8,65.3,20.2,96.2,34.6c27.8,13,53.9,29,80,45.1c48.6,30,99.3,58.6,158.2,56.9
				c63.2-1.8,122.7-28.8,181.5-49.4c29.2-10.2,59.1-19.4,89.9-22.8c32.6-3.6,64,1.1,94.9,11.8c32.1,11.1,63,23.2,96.8,28.8
				c33.8,5.6,68.1,8.3,102.2,11.5c70.6,6.7,141.4,11,212.3,9.2c34.8-0.9,69.6-2.6,104.5-2c34.6,0.6,69,2.6,103.6,0
				c67.7-5.2,135.2-15.9,202.3-26.2c68-10.4,136-21.1,204.2-30.7c17.4-2.4,34.9-4.8,52.3-7c1.9-0.2,1.9-3.2,0-3
				c-135.8,17.4-270.5,42.1-406.4,58.4c-34.5,4.1-69.1,7.6-103.9,7c-34.9-0.6-69.6-2.1-104.5-1.1c-71,1.9-141.4,2.4-212.4-3.1
				c-35.6-2.8-71.2-6.3-106.7-10c-34.8-3.6-69.3-8.5-102.5-19.9c-30.4-10.4-59.9-23.6-92.2-27.1c-28.9-3.1-58.1,1-86.1,8.1
				c-60.6,15.4-117.1,43.9-178.3,57.5c-32.9,7.3-66.4,9.8-99.4,2.1c-29-6.8-55.8-20.1-81.4-35c-25.8-15.1-50.7-31.7-76.9-46.2
				c-28.1-15.5-57.8-28.2-88.2-38.5C143.8,550,79,538.9,14,534.5c-16.9-1.2-33.9-1.9-50.8-2.3C-38.8,532.2-38.8,535.2-36.8,535.2
				L-36.8,535.2z"/>
		</g>
	</g>
	<g>
		<g>
			
				<radialGradient id="SVGID_00000146461357928383140590000015061077686213361031_" cx="961.0698" cy="605.2047" r="700.3292" gradientUnits="userSpaceOnUse">
				<stop  offset="7.458905e-08" style="stop-color:#918268"/>
				<stop  offset="0.25" style="stop-color:#C1AE8C"/>
				<stop  offset="0.2902" style="stop-color:#B7A585"/>
				<stop  offset="0.4229" style="stop-color:#9B8C70"/>
				<stop  offset="0.5" style="stop-color:#918268"/>
				<stop  offset="0.6278" style="stop-color:#857862"/>
				<stop  offset="0.75" style="stop-color:#7F735F"/>
				<stop  offset="0.7797" style="stop-color:#91836B"/>
				<stop  offset="0.8322" style="stop-color:#AC9B7D"/>
				<stop  offset="0.886" style="stop-color:#BFAC8A"/>
				<stop  offset="0.9412" style="stop-color:#CAB691"/>
				<stop  offset="1" style="stop-color:#CEB994"/>
			</radialGradient>
			<path style="fill:url(#SVGID_00000146461357928383140590000015061077686213361031_);" d="M-25.6,522.1
				c67.8,5,134.2,19.5,198.4,41.6c32.6,11.2,64.6,24.3,95.7,39.2c28.3,13.6,55.5,29.1,83.3,43.8c53,28.1,108.2,49.5,169.2,43.6
				c62.9-6.1,121.7-31.3,182.2-47.6c29.6-8,60.2-14,91-13.3c34.4,0.8,64.8,12.2,95.9,25.8c28.7,12.5,57.3,21.7,88.4,25.7
				c34.3,4.5,69.2,6,103.7,7.6c70.2,3.1,140.2,1.6,210.1-5.6c34.4-3.6,68.8-7.7,103.3-8.9c33.9-1.2,67.7-1.1,101.5-2.9
				c134.2-7.4,269.6-12.1,402.3-34.4c16.2-2.7,32.4-5.8,48.6-9.1c1.9-0.4,1.1-3.3-0.8-2.9c-133.3,27.7-269.8,32.7-405.3,40.8
				c-33.7,2-67.5,4.3-101.3,4.8c-34.2,0.5-68.1,1.5-102.2,4.8c-69.5,6.8-138.3,13.1-208.2,11.9c-34.8-0.6-69.5-2.3-104.2-4.7
				c-35.1-2.4-70.5-5.4-103.9-17.3c-29.7-10.5-57.3-26.4-88.1-33.6c-27.7-6.5-56.3-6.1-84.2-1.9c-61.7,9.4-119.4,35.2-180,49.4
				c-34.2,8-69.2,12.5-104.2,7.3c-30-4.5-58.7-15.4-85.9-28.5c-27.2-13.1-53.4-28.4-80.2-42.4c-28.6-15-58-28.5-88.1-40.4
				c-61.2-24.2-125.1-42.1-190.4-50.9c-15.5-2.1-31.1-3.7-46.8-4.8C-27.5,518.9-27.5,521.9-25.6,522.1L-25.6,522.1z"/>
		</g>
	</g>
	<g>
		<g>
			
				<radialGradient id="SVGID_00000128486013751330438940000004165569196072603780_" cx="968.3139" cy="601.7563" r="698.1389" gradientUnits="userSpaceOnUse">
				<stop  offset="7.458905e-08" style="stop-color:#918268"/>
				<stop  offset="0.25" style="stop-color:#C1AE8C"/>
				<stop  offset="0.2902" style="stop-color:#B7A585"/>
				<stop  offset="0.4229" style="stop-color:#9B8C70"/>
				<stop  offset="0.5" style="stop-color:#918268"/>
				<stop  offset="0.6278" style="stop-color:#857862"/>
				<stop  offset="0.75" style="stop-color:#7F735F"/>
				<stop  offset="0.7797" style="stop-color:#91836B"/>
				<stop  offset="0.8322" style="stop-color:#AC9B7D"/>
				<stop  offset="0.886" style="stop-color:#BFAC8A"/>
				<stop  offset="0.9412" style="stop-color:#CAB691"/>
				<stop  offset="1" style="stop-color:#CEB994"/>
			</radialGradient>
			<path style="fill:url(#SVGID_00000128486013751330438940000004165569196072603780_);" d="M-14.4,509
				c67.4,8.3,131.8,30,194.1,56.4c61,25.9,119.2,57.8,179.8,84.6c56.7,25.1,115.2,40,177.4,32c62.7-8,122.1-31.1,184-42.8
				c31.7-6,64.4-8.9,96.4-3.5c33.1,5.6,61.2,22,91.1,36.2c58.4,27.8,125.6,26,188.9,25.3c67.1-0.8,133.7-7.3,199.8-19.1
				c33.8-6,67.5-12.6,101.6-16c34.1-3.4,68.6-4.2,102.9-4.8c133.7-2.7,269.5,13.9,401.7-12.3c16.2-3.2,32.2-7.1,48.1-11.7
				c1.9-0.5,1.1-3.4-0.8-2.9c-130.9,37.8-268.3,23.9-402.6,23.5c-66.7-0.2-133.8,1.2-199.7,12.1c-68.3,11.4-135.7,23.5-205,26.8
				c-33.9,1.6-67.9,1.9-101.8,0.9c-34.4-0.9-69.6-2-102.6-12.6c-29.5-9.5-55.4-27-84.1-38.2c-28.2-11-58.5-14.5-88.6-12.7
				c-61.9,3.7-120.8,26-180.8,39.8c-33.4,7.7-67.7,13.2-102.1,11c-31.2-2-61.6-9.9-90.8-20.8c-61.8-23.1-119.6-56.6-179.7-83.7
				c-58.5-26.4-118.9-50.2-182-63.2c-14.9-3.1-30-5.5-45.1-7.3C-16.3,505.7-16.2,508.7-14.4,509L-14.4,509z"/>
		</g>
	</g>
	<g>
		<g>
			
				<radialGradient id="SVGID_00000002356203050686916360000016483915860825983891_" cx="975.5162" cy="600.3632" r="696.2253" gradientUnits="userSpaceOnUse">
				<stop  offset="7.458905e-08" style="stop-color:#918268"/>
				<stop  offset="0.25" style="stop-color:#C1AE8C"/>
				<stop  offset="0.2902" style="stop-color:#B7A585"/>
				<stop  offset="0.4229" style="stop-color:#9B8C70"/>
				<stop  offset="0.5" style="stop-color:#918268"/>
				<stop  offset="0.6278" style="stop-color:#857862"/>
				<stop  offset="0.75" style="stop-color:#7F735F"/>
				<stop  offset="0.7797" style="stop-color:#91836B"/>
				<stop  offset="0.8322" style="stop-color:#AC9B7D"/>
				<stop  offset="0.886" style="stop-color:#BFAC8A"/>
				<stop  offset="0.9412" style="stop-color:#CAB691"/>
				<stop  offset="1" style="stop-color:#CEB994"/>
			</radialGradient>
			<path style="fill:url(#SVGID_00000002356203050686916360000016483915860825983891_);" d="M-3.5,495.8
				c119.8,20.7,220.7,93.4,330.4,140.9c51.4,22.3,105.9,39.3,162.3,40.9c65.3,1.9,128.5-17.7,191.8-31c66-13.8,133-19.1,194.1,14.4
				c29.3,16,56.3,34.4,89.5,41.2c34.2,7,70,5.9,104.6,4.8c73.5-2.4,146.6-12.6,217.9-30.1c36.8-9,73.4-19.5,110.8-26
				c35.1-6,70.7-7.9,106.3-7.3c133.4,2.3,269.3,40,401.9,10c16.5-3.7,32.6-8.6,48.4-14.5c1.8-0.7,1-3.6-0.8-2.9
				c-130.4,48.4-270.8,14.8-404.9,6.3c-33.7-2.2-67.5-2.9-101.2-0.6c-34.7,2.4-68.7,8.9-102.5,17.1c-36.1,8.8-72,18.7-108.5,25.8
				c-38,7.4-76.4,12.8-115,16c-36.4,3-73.1,4.5-109.6,3.3c-37.3-1.2-70.8-8.8-103.4-27.2c-28.2-15.9-54.9-32.6-86.9-39.6
				c-29.5-6.5-59.9-6.1-89.7-2.5c-65.5,7.9-128.3,30.1-193.8,37.5c-59.9,6.8-118.5-3.5-174.7-24.2
				c-111-40.8-208.3-113.5-322.9-145.6c-14.3-4-28.7-7.2-43.3-9.8C-4.6,492.6-5.4,495.5-3.5,495.8L-3.5,495.8z"/>
		</g>
	</g>
</g>
<radialGradient id="SVGID_00000059994824059966633980000011718671636425488517_" cx="1978.5" cy="362.5" r="0" gradientUnits="userSpaceOnUse">
	<stop  offset="7.458905e-08" style="stop-color:#918268"/>
	<stop  offset="0.25" style="stop-color:#C1AE8C"/>
	<stop  offset="0.2902" style="stop-color:#B7A585"/>
	<stop  offset="0.4229" style="stop-color:#9B8C70"/>
	<stop  offset="0.5" style="stop-color:#918268"/>
	<stop  offset="0.6278" style="stop-color:#857862"/>
	<stop  offset="0.75" style="stop-color:#7F735F"/>
	<stop  offset="0.7797" style="stop-color:#91836B"/>
	<stop  offset="0.8322" style="stop-color:#AC9B7D"/>
	<stop  offset="0.886" style="stop-color:#BFAC8A"/>
	<stop  offset="0.9412" style="stop-color:#CAB691"/>
	<stop  offset="1" style="stop-color:#CEB994"/>
</radialGradient>
<path style="fill:none;stroke:url(#SVGID_00000059994824059966633980000011718671636425488517_);stroke-miterlimit:10;" d="
	M1978.5,362.5"/>
</svg>
