<?xml version="1.0" encoding="utf-8"?>
<!-- Generator: Adobe Illustrator 26.4.0, SVG Export Plug-In . SVG Version: 6.00 Build 0)  -->
<svg version="1.1" id="Calque_1" xmlns="http://www.w3.org/2000/svg" xmlns:xlink="http://www.w3.org/1999/xlink" x="0px" y="0px"
	 viewBox="0 0 1920 1080" style="enable-background:new 0 0 1920 1080;" xml:space="preserve">
<g>
	<g>
		<g>
			<path d="M-29.14,179.1c120.1,50.74,249.67,68.72,377.02,91.91c63.83,11.63,127.56,24.76,189.49,44.36
				c65.39,20.7,125.21,51.28,185.82,82.89c59.28,30.91,119.29,55.93,185.74,66.32c66.64,10.42,134.35,9.32,201.56,7.49
				c69.01-1.87,137.71-3.16,206.62,2c71.7,5.37,142.93,15.54,213.89,26.94c137.87,22.16,275.52,49.26,415.32,55.76
				c17.32,0.8,34.64,1.26,51.98,1.41c1.93,0.02,1.93-2.98,0-3c-141.01-1.17-280.11-26.15-418.79-49.23
				c-136.92-22.79-273.53-41.41-412.66-38.37c-68,1.48-136.16,5.18-204.1,0.11c-69.65-5.2-135.44-21.88-198.46-52.08
				c-59.28-28.4-115.59-62.4-177.12-86.03c-60.66-23.3-123.9-38.98-187.51-51.75c-126.71-25.45-256.43-39.8-378.99-82.69
				c-16.29-5.7-32.39-11.92-48.29-18.63C-29.39,175.77-30.92,178.35-29.14,179.1L-29.14,179.1z"/>
		</g>
	</g>
	<g>
		<g>
			<path d="M-31.49,191.89c120.1,50.74,249.67,68.72,377.02,91.91c63.83,11.63,127.56,24.76,189.49,44.36
				c65.39,20.7,125.21,51.28,185.82,82.89c59.28,30.91,119.29,55.93,185.74,66.32c66.64,10.42,134.35,9.32,201.56,7.49
				c69.01-1.87,137.71-3.16,206.62,2c71.7,5.37,142.93,15.54,213.89,26.94c137.87,22.16,275.52,49.26,415.32,55.76
				c17.32,0.8,34.64,1.26,51.98,1.41c1.93,0.02,1.93-2.98,0-3c-141.01-1.17-280.11-26.15-418.79-49.23
				c-136.92-22.79-273.53-41.41-412.66-38.37c-68,1.48-136.16,5.18-204.1,0.11c-69.65-5.2-135.44-21.88-198.46-52.08
				c-59.28-28.4-115.59-62.4-177.12-86.03c-60.66-23.3-123.9-38.98-187.51-51.75c-126.71-25.45-256.43-39.8-378.99-82.69
				c-16.29-5.7-32.39-11.92-48.29-18.63C-31.73,188.56-33.26,191.14-31.49,191.89L-31.49,191.89z"/>
		</g>
	</g>
	<g>
		<g>
			<path d="M-33.83,204.68c120.1,50.74,249.67,68.72,377.02,91.91c63.83,11.63,127.56,24.76,189.49,44.36
				c65.39,20.7,125.21,51.28,185.82,82.89c59.28,30.91,119.29,55.93,185.74,66.32c66.64,10.42,134.35,9.32,201.56,7.49
				c69.01-1.87,137.71-3.16,206.62,2c71.7,5.37,142.93,15.54,213.89,26.94c137.87,22.16,275.52,49.26,415.32,55.76
				c17.32,0.8,34.64,1.26,51.98,1.41c1.93,0.02,1.93-2.98,0-3c-141.01-1.17-280.11-26.15-418.79-49.23
				c-136.92-22.79-273.53-41.41-412.66-38.37c-68,1.48-136.16,5.18-204.1,0.11c-69.65-5.2-135.44-21.88-198.46-52.08
				c-59.28-28.4-115.59-62.4-177.12-86.03c-60.66-23.3-123.9-38.98-187.51-51.75c-126.71-25.45-256.43-39.8-378.99-82.69
				c-16.29-5.7-32.39-11.92-48.29-18.63C-34.08,201.35-35.61,203.94-33.83,204.68L-33.83,204.68z"/>
		</g>
	</g>
	<g>
		<g>
			<path d="M-36.18,217.48c120.1,50.74,249.67,68.72,377.02,91.91c63.83,11.63,127.56,24.76,189.49,44.36
				c65.39,20.7,125.21,51.28,185.82,82.89c59.28,30.91,119.29,55.93,185.74,66.32c66.64,10.42,134.35,9.32,201.56,7.49
				c69.01-1.87,137.71-3.16,206.62,2c71.7,5.37,142.93,15.54,213.89,26.94c137.87,22.16,275.52,49.26,415.32,55.76
				c17.32,0.8,34.64,1.26,51.98,1.41c1.93,0.02,1.93-2.98,0-3c-141.01-1.17-280.11-26.15-418.79-49.23
				c-136.92-22.79-273.53-41.41-412.66-38.37c-68,1.48-136.16,5.18-204.1,0.11c-69.65-5.2-135.44-21.88-198.46-52.08
				c-59.28-28.4-115.59-62.4-177.12-86.03c-60.66-23.3-123.9-38.98-187.51-51.75c-126.71-25.45-256.43-39.8-378.99-82.69
				c-16.29-5.7-32.39-11.92-48.29-18.63C-36.42,214.14-37.95,216.73-36.18,217.48L-36.18,217.48z"/>
		</g>
	</g>
	<g>
		<g>
			<path d="M-38.52,230.27c120.1,50.74,249.67,68.72,377.02,91.91c63.83,11.63,127.56,24.76,189.49,44.36
				c65.39,20.7,125.21,51.28,185.82,82.89c59.28,30.91,119.29,55.93,185.74,66.32c66.64,10.42,134.35,9.32,201.56,7.49
				c69.01-1.87,137.71-3.16,206.62,2c71.7,5.37,142.93,15.54,213.89,26.94c137.87,22.16,275.52,49.26,415.32,55.76
				c17.32,0.8,34.64,1.26,51.98,1.41c1.93,0.02,1.93-2.98,0-3c-141.01-1.17-280.11-26.15-418.79-49.23
				c-136.92-22.79-273.53-41.41-412.66-38.37c-68,1.48-136.16,5.18-204.1,0.11c-69.65-5.2-135.44-21.88-198.46-52.08
				c-59.28-28.4-115.59-62.4-177.12-86.03c-60.66-23.3-123.9-38.98-187.51-51.75c-126.71-25.45-256.43-39.8-378.99-82.69
				c-16.29-5.7-32.39-11.92-48.29-18.63C-38.77,226.94-40.3,229.52-38.52,230.27L-38.52,230.27z"/>
		</g>
	</g>
	<g>
		<g>
			<path d="M-40.87,243.06c120.1,50.74,249.67,68.72,377.02,91.91c63.83,11.63,127.56,24.76,189.49,44.36
				c65.39,20.7,125.21,51.28,185.82,82.89c59.28,30.91,119.29,55.93,185.74,66.32c66.64,10.42,134.35,9.32,201.56,7.49
				c69.01-1.87,137.71-3.16,206.62,2c71.7,5.37,142.93,15.54,213.89,26.94c137.87,22.16,275.52,49.26,415.32,55.76
				c17.32,0.8,34.64,1.26,51.98,1.41c1.93,0.02,1.93-2.98,0-3c-141.01-1.17-280.11-26.15-418.79-49.23
				c-136.92-22.79-273.53-41.41-412.66-38.37c-68,1.48-136.16,5.18-204.1,0.11c-69.65-5.2-135.44-21.88-198.46-52.08
				c-59.28-28.4-115.59-62.4-177.12-86.03c-60.66-23.3-123.9-38.98-187.51-51.75c-126.71-25.45-256.43-39.8-378.99-82.69
				c-16.29-5.7-32.39-11.92-48.29-18.63C-41.11,239.73-42.64,242.31-40.87,243.06L-40.87,243.06z"/>
		</g>
	</g>
	<g>
		<g>
			<path d="M-43.21,255.86c120.1,50.74,249.67,68.72,377.02,91.91c63.83,11.63,127.56,24.76,189.49,44.36
				c65.39,20.7,125.21,51.28,185.82,82.89c59.28,30.91,119.29,55.93,185.74,66.32c66.64,10.42,134.35,9.32,201.56,7.49
				c69.01-1.87,137.71-3.16,206.62,2c71.7,5.37,142.93,15.54,213.89,26.94c137.87,22.16,275.52,49.26,415.32,55.76
				c17.32,0.8,34.64,1.26,51.98,1.41c1.93,0.02,1.93-2.98,0-3c-141.01-1.17-280.11-26.15-418.79-49.23
				c-136.92-22.79-273.53-41.41-412.66-38.37c-68,1.48-136.16,5.18-204.1,0.11c-69.65-5.2-135.44-21.88-198.46-52.08
				c-59.28-28.4-115.59-62.4-177.12-86.03c-60.66-23.3-123.9-38.98-187.51-51.75c-126.71-25.45-256.43-39.8-378.99-82.69
				c-16.29-5.7-32.39-11.92-48.29-18.63C-43.46,252.52-44.99,255.11-43.21,255.86L-43.21,255.86z"/>
		</g>
	</g>
	<g>
		<g>
			<path d="M-45.56,268.65c120.1,50.74,249.67,68.72,377.02,91.91c63.83,11.63,127.56,24.76,189.49,44.36
				c65.39,20.7,125.21,51.28,185.82,82.89c59.28,30.91,119.29,55.93,185.74,66.32c66.64,10.42,134.35,9.32,201.56,7.49
				c69.01-1.87,137.71-3.16,206.62,2c71.7,5.37,142.93,15.54,213.89,26.94c137.87,22.16,275.52,49.26,415.32,55.76
				c17.32,0.8,34.64,1.26,51.98,1.41c1.93,0.02,1.93-2.98,0-3c-141.01-1.17-280.11-26.15-418.79-49.23
				c-136.92-22.79-273.53-41.41-412.66-38.37c-68,1.48-136.16,5.18-204.1,0.11c-69.65-5.2-135.44-21.88-198.46-52.08
				c-59.28-28.4-115.59-62.4-177.12-86.03c-60.66-23.3-123.9-38.98-187.51-51.75c-126.71-25.45-256.43-39.8-378.99-82.69
				c-16.29-5.7-32.39-11.92-48.29-18.63C-45.8,265.32-47.33,267.9-45.56,268.65L-45.56,268.65z"/>
		</g>
	</g>
	<g>
		<g>
			<path d="M-47.9,281.44c120.1,50.74,249.67,68.72,377.02,91.91c63.83,11.63,127.56,24.76,189.49,44.36
				C584,438.41,643.82,469,704.42,500.6c59.28,30.91,119.29,55.93,185.74,66.32c66.64,10.42,134.35,9.32,201.56,7.49
				c69.01-1.87,137.71-3.16,206.62,2c71.7,5.37,142.93,15.54,213.89,26.94c137.87,22.16,275.52,49.26,415.32,55.76
				c17.32,0.8,34.64,1.26,51.98,1.41c1.93,0.02,1.93-2.98,0-3c-141.01-1.17-280.11-26.15-418.79-49.23
				c-136.92-22.79-273.53-41.41-412.66-38.37c-68,1.48-136.16,5.18-204.1,0.11c-69.65-5.2-135.44-21.88-198.46-52.08
				c-59.28-28.4-115.59-62.4-177.12-86.03c-60.66-23.3-123.9-38.98-187.51-51.75c-126.71-25.45-256.43-39.8-378.99-82.69
				c-16.29-5.7-32.39-11.92-48.29-18.63C-48.15,278.11-49.68,280.69-47.9,281.44L-47.9,281.44z"/>
		</g>
	</g>
	<g>
		<g>
			<path d="M-50.25,294.23c120.1,50.74,249.67,68.72,377.02,91.91c63.83,11.63,127.56,24.76,189.49,44.36
				c65.39,20.7,125.21,51.28,185.82,82.89c59.28,30.91,119.29,55.93,185.74,66.32c66.64,10.42,134.35,9.32,201.56,7.49
				c69.01-1.87,137.71-3.16,206.62,2c71.7,5.37,142.93,15.54,213.89,26.94c137.87,22.16,275.52,49.26,415.32,55.76
				c17.32,0.8,34.64,1.26,51.98,1.41c1.93,0.02,1.93-2.98,0-3c-141.01-1.17-280.11-26.15-418.79-49.23
				c-136.92-22.79-273.53-41.41-412.66-38.37c-68,1.48-136.16,5.18-204.1,0.11c-69.65-5.2-135.44-21.88-198.46-52.08
				c-59.28-28.4-115.59-62.4-177.12-86.03c-60.66-23.3-123.9-38.98-187.51-51.75c-126.71-25.45-256.43-39.8-378.99-82.69
				c-16.29-5.7-32.39-11.92-48.29-18.63C-50.49,290.9-52.02,293.48-50.25,294.23L-50.25,294.23z"/>
		</g>
	</g>
	<g>
		<g>
			<path d="M-52.59,307.03c120.1,50.74,249.67,68.72,377.02,91.91c63.83,11.63,127.56,24.76,189.49,44.36
				c65.39,20.7,125.21,51.28,185.82,82.89c59.28,30.91,119.29,55.93,185.74,66.32c66.64,10.42,134.35,9.32,201.56,7.49
				c69.01-1.87,137.71-3.16,206.62,2c71.7,5.37,142.93,15.54,213.89,26.94c137.87,22.16,275.52,49.26,415.32,55.76
				c17.32,0.8,34.64,1.26,51.98,1.41c1.93,0.02,1.93-2.98,0-3c-141.01-1.17-280.11-26.15-418.79-49.23
				c-136.92-22.79-273.53-41.41-412.66-38.37c-68,1.48-136.16,5.18-204.1,0.11c-69.65-5.2-135.44-21.88-198.46-52.08
				c-59.28-28.4-115.59-62.4-177.12-86.03c-60.66-23.3-123.9-38.98-187.51-51.75c-126.71-25.45-256.43-39.8-378.99-82.69
				c-16.29-5.7-32.39-11.92-48.29-18.63C-52.84,303.69-54.37,306.28-52.59,307.03L-52.59,307.03z"/>
		</g>
	</g>
	<g>
		<g>
			<path d="M-54.94,319.82c120.1,50.74,249.67,68.72,377.02,91.91c63.83,11.63,127.56,24.76,189.49,44.36
				c65.39,20.7,125.21,51.28,185.82,82.89c59.28,30.91,119.29,55.93,185.74,66.32c66.64,10.42,134.35,9.32,201.56,7.49
				c69.01-1.87,137.71-3.16,206.62,2c71.7,5.37,142.93,15.54,213.89,26.94c137.87,22.16,275.52,49.26,415.32,55.76
				c17.32,0.8,34.64,1.26,51.98,1.41c1.93,0.02,1.93-2.98,0-3c-141.01-1.17-280.11-26.15-418.79-49.23
				c-136.92-22.79-273.53-41.41-412.66-38.37c-68,1.48-136.16,5.18-204.1,0.11c-69.65-5.2-135.44-21.88-198.46-52.08
				c-59.28-28.4-115.59-62.4-177.12-86.03c-60.66-23.3-123.9-38.98-187.51-51.75c-126.71-25.45-256.43-39.8-378.99-82.69
				c-16.29-5.7-32.39-11.92-48.29-18.63C-55.18,316.49-56.71,319.07-54.94,319.82L-54.94,319.82z"/>
		</g>
	</g>
	<g>
		<g>
			<path d="M-57.28,332.61c120.1,50.74,249.67,68.72,377.02,91.91c63.83,11.63,127.56,24.76,189.49,44.36
				c65.39,20.7,125.21,51.28,185.82,82.89c59.28,30.91,119.29,55.93,185.74,66.32c66.64,10.42,134.35,9.32,201.56,7.49
				c69.01-1.87,137.71-3.16,206.62,2c71.7,5.37,142.93,15.54,213.89,26.94c137.87,22.16,275.52,49.26,415.32,55.76
				c17.32,0.8,34.64,1.26,51.98,1.41c1.93,0.02,1.93-2.98,0-3c-141.01-1.17-280.11-26.15-418.79-49.23
				c-136.92-22.79-273.53-41.41-412.66-38.37c-68,1.48-136.16,5.18-204.1,0.11c-69.65-5.2-135.44-21.88-198.46-52.08
				c-59.28-28.4-115.59-62.4-177.12-86.03c-60.66-23.3-123.9-38.98-187.51-51.75C244.8,405.9,115.08,391.54-7.48,348.66
				c-16.29-5.7-32.39-11.92-48.29-18.63C-57.53,329.28-59.06,331.86-57.28,332.61L-57.28,332.61z"/>
		</g>
	</g>
	<g>
		<g>
			<path d="M-59.63,345.4c120.1,50.74,249.67,68.72,377.02,91.91c63.83,11.63,127.56,24.76,189.49,44.36
				c65.39,20.7,125.21,51.28,185.82,82.89c59.28,30.91,119.29,55.93,185.74,66.32c66.64,10.42,134.35,9.32,201.56,7.49
				c69.01-1.87,137.71-3.16,206.62,2c71.7,5.37,142.93,15.54,213.89,26.94c137.87,22.16,275.52,49.26,415.32,55.76
				c17.32,0.8,34.64,1.26,51.98,1.41c1.93,0.02,1.93-2.98,0-3c-141.01-1.17-280.11-26.15-418.79-49.23
				c-136.92-22.79-273.53-41.41-412.66-38.37c-68,1.48-136.16,5.18-204.1,0.11c-69.65-5.2-135.44-21.88-198.46-52.08
				c-59.28-28.4-115.59-62.4-177.12-86.03c-60.66-23.3-123.9-38.98-187.51-51.75c-126.71-25.45-256.43-39.8-378.99-82.69
				c-16.29-5.7-32.39-11.92-48.29-18.63C-59.87,342.07-61.4,344.65-59.63,345.4L-59.63,345.4z"/>
		</g>
	</g>
	<g>
		<g>
			<path d="M-61.97,358.2c120.1,50.74,249.67,68.72,377.02,91.91c63.83,11.63,127.56,24.76,189.49,44.36
				c65.39,20.7,125.21,51.28,185.82,82.89c59.28,30.91,119.29,55.93,185.74,66.32c66.64,10.42,134.35,9.32,201.56,7.49
				c69.01-1.87,137.71-3.16,206.62,2c71.7,5.37,142.93,15.54,213.89,26.94c137.87,22.16,275.52,49.26,415.32,55.76
				c17.32,0.8,34.64,1.26,51.98,1.41c1.93,0.02,1.93-2.98,0-3c-141.01-1.17-280.11-26.15-418.79-49.23
				c-136.92-22.79-273.53-41.41-412.66-38.37c-68,1.48-136.16,5.18-204.1,0.11c-69.65-5.2-135.44-21.88-198.46-52.08
				c-59.28-28.4-115.59-62.4-177.12-86.03c-60.66-23.3-123.9-38.98-187.51-51.75c-126.71-25.45-256.43-39.8-378.99-82.69
				c-16.29-5.7-32.39-11.92-48.29-18.63C-62.22,354.86-63.75,357.45-61.97,358.2L-61.97,358.2z"/>
		</g>
	</g>
	<g>
		<g>
			<path d="M-64.32,370.99c120.1,50.74,249.67,68.72,377.02,91.91c63.83,11.63,127.56,24.76,189.49,44.36
				c65.39,20.7,125.21,51.28,185.82,82.89c59.28,30.91,119.29,55.93,185.74,66.32c66.64,10.42,134.35,9.32,201.56,7.49
				c69.01-1.87,137.71-3.16,206.62,2c71.7,5.37,142.93,15.54,213.89,26.94c137.87,22.16,275.52,49.26,415.32,55.76
				c17.32,0.8,34.64,1.26,51.98,1.41c1.93,0.02,1.93-2.98,0-3c-141.01-1.17-280.11-26.15-418.79-49.23
				c-136.92-22.79-273.53-41.41-412.66-38.37c-68,1.48-136.16,5.18-204.1,0.11c-69.65-5.2-135.44-21.88-198.46-52.08
				c-59.28-28.4-115.59-62.4-177.12-86.03c-60.66-23.3-123.9-38.98-187.51-51.75c-126.71-25.45-256.43-39.8-378.99-82.69
				c-16.29-5.7-32.39-11.92-48.29-18.63C-64.56,367.66-66.09,370.24-64.32,370.99L-64.32,370.99z"/>
		</g>
	</g>
	<g>
		<g>
			<path d="M-66.67,383.78c120.1,50.74,249.67,68.72,377.02,91.91c63.83,11.63,127.56,24.76,189.49,44.36
				c65.39,20.7,125.21,51.28,185.82,82.89c59.28,30.91,119.29,55.93,185.74,66.32c66.64,10.42,134.35,9.32,201.56,7.49
				c69.01-1.87,137.71-3.16,206.62,2c71.7,5.37,142.93,15.54,213.89,26.94c137.87,22.16,275.52,49.26,415.32,55.76
				c17.32,0.8,34.64,1.26,51.98,1.41c1.93,0.02,1.93-2.98,0-3c-141.01-1.17-280.11-26.15-418.79-49.23
				c-136.92-22.79-273.53-41.41-412.66-38.37c-68,1.48-136.16,5.18-204.1,0.11c-69.65-5.2-135.44-21.88-198.46-52.08
				c-59.28-28.4-115.59-62.4-177.12-86.03c-60.66-23.3-123.9-38.98-187.51-51.75c-126.71-25.45-256.43-39.8-378.99-82.69
				c-16.29-5.7-32.39-11.92-48.29-18.63C-66.91,380.45-68.44,383.03-66.67,383.78L-66.67,383.78z"/>
		</g>
	</g>
	<g>
		<g>
			<path d="M-69.01,396.57c120.1,50.74,249.67,68.72,377.02,91.91c63.83,11.63,127.56,24.76,189.49,44.36
				c65.39,20.7,125.21,51.28,185.82,82.89c59.28,30.91,119.29,55.93,185.74,66.32c66.64,10.42,134.35,9.32,201.56,7.49
				c69.01-1.87,137.71-3.16,206.62,2c71.7,5.37,142.93,15.54,213.89,26.94c137.87,22.16,275.52,49.26,415.32,55.76
				c17.32,0.8,34.64,1.26,51.98,1.41c1.93,0.02,1.93-2.98,0-3c-141.01-1.17-280.11-26.15-418.79-49.23
				c-136.92-22.79-273.53-41.41-412.66-38.37c-68,1.48-136.16,5.18-204.1,0.11c-69.65-5.2-135.44-21.88-198.46-52.08
				c-59.28-28.4-115.59-62.4-177.12-86.03c-60.66-23.3-123.9-38.98-187.51-51.75c-126.71-25.45-256.43-39.8-378.99-82.69
				c-16.29-5.7-32.39-11.92-48.29-18.63C-69.25,393.24-70.78,395.82-69.01,396.57L-69.01,396.57z"/>
		</g>
	</g>
	<g>
		<g>
			<path d="M-71.36,409.37c120.1,50.74,249.67,68.72,377.02,91.91c63.83,11.63,127.56,24.76,189.49,44.36
				c65.39,20.7,125.21,51.28,185.82,82.89c59.28,30.91,119.29,55.93,185.74,66.32c66.64,10.42,134.35,9.32,201.56,7.49
				c69.01-1.87,137.71-3.16,206.62,2c71.7,5.37,142.93,15.54,213.89,26.94c137.87,22.16,275.52,49.26,415.32,55.76
				c17.32,0.8,34.64,1.26,51.98,1.41c1.93,0.02,1.93-2.98,0-3c-141.01-1.17-280.11-26.15-418.79-49.23
				c-136.92-22.79-273.53-41.41-412.66-38.37c-68,1.48-136.16,5.18-204.1,0.11c-69.65-5.2-135.44-21.88-198.46-52.08
				c-59.28-28.4-115.59-62.4-177.12-86.03c-60.66-23.3-123.9-38.98-187.51-51.75C230.73,482.65,101,468.3-21.55,425.41
				c-16.29-5.7-32.39-11.92-48.29-18.63C-71.6,406.03-73.13,408.62-71.36,409.37L-71.36,409.37z"/>
		</g>
	</g>
	<g>
		<g>
			<path d="M-73.7,422.16c120.1,50.74,249.67,68.72,377.02,91.91c63.83,11.63,127.56,24.76,189.49,44.36
				c65.39,20.7,125.21,51.28,185.82,82.89c59.28,30.91,119.29,55.93,185.74,66.32c66.64,10.42,134.35,9.32,201.56,7.49
				c69.01-1.87,137.71-3.16,206.62,2c71.7,5.37,142.93,15.54,213.89,26.94c137.87,22.16,275.52,49.26,415.32,55.76
				c17.32,0.8,34.64,1.26,51.98,1.41c1.93,0.02,1.93-2.98,0-3c-141.01-1.17-280.11-26.15-418.79-49.23
				c-136.92-22.79-273.53-41.41-412.66-38.37c-68,1.48-136.16,5.18-204.1,0.11c-69.65-5.2-135.44-21.88-198.46-52.08
				c-59.28-28.4-115.59-62.4-177.12-86.03c-60.66-23.3-123.9-38.98-187.51-51.75C228.38,495.44,98.66,481.09-23.9,438.2
				c-16.29-5.7-32.39-11.92-48.29-18.63C-73.94,418.83-75.47,421.41-73.7,422.16L-73.7,422.16z"/>
		</g>
	</g>
	<g>
		<g>
			<path d="M-76.05,434.95c120.1,50.74,249.67,68.72,377.02,91.91c63.83,11.63,127.56,24.76,189.49,44.36
				c65.39,20.7,125.21,51.28,185.82,82.89c59.28,30.91,119.29,55.93,185.74,66.32c66.64,10.42,134.35,9.32,201.56,7.49
				c69.01-1.87,137.71-3.16,206.62,2c71.7,5.37,142.93,15.54,213.89,26.94c137.87,22.16,275.52,49.26,415.32,55.76
				c17.32,0.8,34.64,1.26,51.98,1.41c1.93,0.02,1.93-2.98,0-3c-141.01-1.17-280.11-26.15-418.79-49.23
				c-136.92-22.79-273.53-41.41-412.66-38.37c-68,1.48-136.16,5.18-204.1,0.11c-69.65-5.2-135.44-21.88-198.46-52.08
				c-59.28-28.4-115.59-62.4-177.12-86.03c-60.66-23.3-123.9-38.98-187.51-51.75C226.04,508.24,96.31,493.88-26.24,451
				c-16.29-5.7-32.39-11.92-48.29-18.63C-76.29,431.62-77.82,434.2-76.05,434.95L-76.05,434.95z"/>
		</g>
	</g>
	<g>
		<g>
			<path d="M-78.39,447.75c120.1,50.74,249.67,68.72,377.02,91.91c63.83,11.63,127.56,24.76,189.49,44.36
				c65.39,20.7,125.21,51.28,185.82,82.89c59.28,30.91,119.29,55.93,185.74,66.32c66.64,10.42,134.35,9.32,201.56,7.49
				c69.01-1.87,137.71-3.16,206.62,2c71.7,5.37,142.93,15.54,213.89,26.94c137.87,22.16,275.52,49.26,415.32,55.76
				c17.32,0.8,34.64,1.26,51.98,1.41c1.93,0.02,1.93-2.98,0-3c-141.01-1.17-280.11-26.15-418.79-49.23
				c-136.92-22.79-273.53-41.41-412.66-38.37c-68,1.48-136.16,5.18-204.1,0.11c-69.65-5.2-135.44-21.88-198.46-52.08
				c-59.28-28.4-115.59-62.4-177.12-86.03c-60.66-23.3-123.9-38.98-187.51-51.75c-126.71-25.45-256.43-39.8-378.99-82.69
				c-16.29-5.7-32.39-11.92-48.29-18.63C-78.63,444.41-80.17,447-78.39,447.75L-78.39,447.75z"/>
		</g>
	</g>
</g>
</svg>
