<?xml version="1.0" encoding="utf-8"?>
<!-- Generator: Adobe Illustrator 26.4.0, SVG Export Plug-In . SVG Version: 6.00 Build 0)  -->
<svg version="1.1" id="Calque_1" xmlns="http://www.w3.org/2000/svg" xmlns:xlink="http://www.w3.org/1999/xlink" x="0px" y="0px"
	 viewBox="0 0 1920 1080" style="enable-background:new 0 0 1920 1080;" xml:space="preserve">
<style type="text/css">
	.st0{fill:url(#SVGID_1_);}
	.st1{fill:url(#SVGID_00000086657475754653057420000001224730638241552044_);}
	.st2{fill:url(#SVGID_00000004533778288175768510000016678436275856802992_);}
	.st3{fill:url(#SVGID_00000152257387933593712370000006671886465366556805_);}
	.st4{fill:url(#SVGID_00000080891410317953562870000002873872461458016667_);}
	.st5{fill:url(#SVGID_00000021801763668116806620000017301260392218430105_);}
	.st6{fill:url(#SVGID_00000173138308164472221140000007264420962192150423_);}
	.st7{fill:url(#SVGID_00000072275245959804803470000018328989625719783100_);}
	.st8{fill:url(#SVGID_00000119836021460949211390000011771733844823906190_);}
	.st9{fill:url(#SVGID_00000053524996568714481030000007433588321883277986_);}
	.st10{fill:url(#SVGID_00000023263651322515023740000000174255618052011432_);}
	.st11{fill:url(#SVGID_00000166672387294081642390000010490425209544563366_);}
	.st12{fill:url(#SVGID_00000107585104755292878670000010941934929638419863_);}
	.st13{fill:url(#SVGID_00000076602437188725050340000005814856360088878509_);}
	.st14{fill:url(#SVGID_00000027598073426574890550000007179843335856659364_);}
	.st15{fill:url(#SVGID_00000119117603581318575380000003518932753462635196_);}
	.st16{fill:url(#SVGID_00000175305709019913840490000009555409506962049187_);}
	.st17{fill:url(#SVGID_00000052814212711478634290000010465853090833836163_);}
	.st18{fill:url(#SVGID_00000143617532848575202020000014983283352232325550_);}
	.st19{fill:url(#SVGID_00000154418975714566145930000006785430184756283048_);}
	.st20{fill:url(#SVGID_00000002377586544900709910000003933535690281010090_);}
	.st21{fill:url(#SVGID_00000132794145455657821630000009980726600705137796_);}
</style>
<g>
	<g>
		<g>
			
				<linearGradient id="SVGID_1_" gradientUnits="userSpaceOnUse" x1="-0.9605" y1="475.7549" x2="1936.6292" y2="475.7549" gradientTransform="matrix(1 0 0 -1 0 1080)">
				<stop  offset="1.598337e-07" style="stop-color:#000000"/>
				<stop  offset="1" style="stop-color:#C1AE8C;stop-opacity:0.5"/>
			</linearGradient>
			<path class="st0" d="M0.1,191.9c101.7,27.8,207.8,68.4,283.9,144.2c23,22.9,42.7,49.1,57.2,78.2c15.5,31.2,23.5,64.5,28,98.9
				c5.5,42.2,9.9,84.4,19.2,126c14.2,63.2,35.3,125.7,62.6,184.5c16.1,34.6,35,69.2,60.9,97.5c13.7,15,29.8,27.4,47,38.3
				c80.3,50.7,185.1,63.6,271.5,20.1c34.4-17.3,63.6-43.6,81.8-77.6c11.7-21.9,20-45.6,27.2-69.3c10.7-35.6,19.2-71.9,27.1-108.2
				c15.7-72,27.3-145,34.9-218.3c7-67.6,13-139.6,54.2-196.5c19.4-26.7,45.8-47.5,77.6-57.2c31.5-9.6,65.5-8.6,97.2-0.5
				c64.2,16.4,115,62.2,157.2,111.2c93.7,109,165.2,235.3,247.5,352.8c63,89.9,135.9,171.5,220.7,241.5
				c26.2,21.7,53.4,42.2,81.3,61.8c1.6,1.1,3.1-1.5,1.5-2.6c-100.7-70.6-190.6-155.3-265.2-253.1c-81.3-106.8-148-224-227.9-331.8
				c-69.3-93.6-167.4-213.2-299.7-185.5c-57.5,12-97.5,57-118.8,109.9c-26.2,65.3-26.2,138.6-35.3,207.5
				c-10,75.4-24.4,150.2-43.1,224c-12.1,47.8-24.8,101.4-57,140.4c-65.3,79.1-186,91.4-277,56.3c-29.4-11.3-57.8-27.1-82-47.3
				c-21.3-17.7-37.9-40.3-52.1-63.8c-31.9-52.8-53.9-111.8-72-170.6c-15.3-49.9-25.6-100.8-31.9-152.6
				c-4.2-34.7-7.3-69.6-18.6-102.9c-9.8-29.1-24.8-56.4-43.4-80.7C260,295.1,177.2,250.4,94.8,219.2C64,207.6,32.6,197.7,0.9,189.1
				C-1,188.5-1.8,191.4,0.1,191.9L0.1,191.9z"/>
		</g>
	</g>
	<g>
		<g>
			
				<linearGradient id="SVGID_00000132789393826896124920000008852360089322168750_" gradientUnits="userSpaceOnUse" x1="-0.8355" y1="479.5086" x2="1937.8391" y2="479.5086" gradientTransform="matrix(1 0 0 -1 0 1080)">
				<stop  offset="1.598337e-07" style="stop-color:#000000"/>
				<stop  offset="1" style="stop-color:#C1AE8C;stop-opacity:0.5"/>
			</linearGradient>
			<path style="fill:url(#SVGID_00000132789393826896124920000008852360089322168750_);" d="M0.2,211.9
				c97.7,25.9,198.7,63.5,274.2,133.1c49.2,45.3,80.6,102.1,92,168c7.1,41.2,11.7,82.5,21.2,123.3c14.1,60.3,34.7,119.8,60.8,176
				c16.2,35,35.1,70,61.2,98.7c12.7,14,27.5,24.9,43.4,35c35,22.3,74.3,38.2,115.6,43.8c45.1,6.2,93.4-0.6,135.6-17.7
				c35.7-14.5,68.8-38.5,90.1-71c28.9-43.8,41-98.2,53.7-148.3c17.1-67.7,31-136.3,41.5-205.3c10.2-67.1,12.3-138.9,43.6-200.5
				c14.5-28.5,34.9-54.4,62.4-71.2c27.4-16.8,60-22.9,91.8-20.6c64.6,4.6,120.3,40.9,165.4,85.1c47.8,46.9,88.2,101.5,127.4,155.5
				c40.3,55.6,78.6,112.6,118.1,168.7c71,100.7,160.8,187.4,259.4,260.9c26.1,19.5,53,37.8,80.4,55.5c1.6,1,3.1-1.5,1.5-2.6
				c-106.8-69-204.3-151.6-287-248.3c-44.7-52.2-81.7-110.7-121-166.9c-39-55.8-78.6-111.2-121.8-163.9
				c-37.9-46.1-79.4-91.3-132.5-120.1c-49.4-26.8-111.7-37.9-164.8-15.5c-55.2,23.3-87.1,79.3-102,134.9
				c-8.6,32-12.6,64.9-16.8,97.7c-4.7,35.9-10,71.6-16.4,107.2c-12.5,69.5-27.8,139-47.8,206.8c-11.4,38.5-25.4,79.2-53.3,109.2
				c-68.8,74-187.3,86.3-277,47.7c-24-10.3-47.6-23.8-68.2-40c-22.3-17.7-39.2-41.8-53.6-66c-30.4-51-52-107.6-69.8-164
				c-15.2-48.3-25.4-97.6-32.6-147.7c-5-34.8-10.1-69.6-23.7-102.2c-11.1-26.5-26.4-51.1-44.9-73.2
				c-55.5-66.3-135.7-107.9-215.7-137.1C61.2,226.2,31.3,217.1,1,209.1C-0.8,208.6-1.6,211.5,0.2,211.9L0.2,211.9z"/>
		</g>
	</g>
	<g>
		<g>
			
				<linearGradient id="SVGID_00000010295888403304813030000008989908768894682496_" gradientUnits="userSpaceOnUse" x1="-0.7148" y1="476.5045" x2="1939.0448" y2="476.5045" gradientTransform="matrix(1 0 0 -1 0 1080)">
				<stop  offset="1.598337e-07" style="stop-color:#000000"/>
				<stop  offset="1" style="stop-color:#C1AE8C;stop-opacity:0.5"/>
			</linearGradient>
			<path style="fill:url(#SVGID_00000010295888403304813030000008989908768894682496_);" d="M0.3,232
				c95.6,24.5,194.2,60.2,269.3,126.5c48.8,43,81.8,97.5,95,161.3c8.4,40.3,13.8,81.1,24,121.1c14.8,58,35.5,115.2,61.5,169.2
				c16.2,33.7,35.1,67.6,61.1,94.9c13.2,13.9,28.7,23.6,45,33.3c34.8,20.7,73.4,35.2,114,38.9c42.6,3.9,88.1-4.8,127.5-21.4
				c35.2-14.8,67.2-39.1,88.2-71.3c28.2-43.3,40.3-96.3,53.4-145.5c17.5-66.2,32.5-133.1,44.4-200.6
				c11.3-64.1,15.8-132.8,48.3-190.6c15.5-27.5,36.7-51.8,64.7-67c27.6-14.9,59.6-19.5,90.6-16c62.9,7,117.1,42.8,161.7,85.8
				c47.1,45.4,87.8,97.7,127.5,149.5c40.2,52.5,77.9,106.7,117.6,159.5c34.8,46.3,77.4,88.1,122.1,124.9
				c46.3,38,94.2,75.1,144,108.4c25.9,17.3,52.4,33.8,79.2,49.7c1.7,1,3.2-1.6,1.5-2.6c-53.4-31.9-104.3-66.3-153.8-104
				c-25.7-19.5-51.3-39-76-59.7c-21.1-17.7-40.3-37-59.9-56.4c-47.1-46.7-83-101.9-122.3-155c-39.4-53.1-79.1-106-122.1-156.3
				c-38.3-44.8-79.6-89.1-131.6-118.1c-48.3-26.9-108.9-40.4-162.2-20.5c-54,20.1-87.4,71.6-104.3,124.4
				c-10.1,31.6-15,64.4-20.2,97.1c-5.3,33.3-11.2,66.5-17.8,99.5c-13.5,67.4-29.6,134.6-49.1,200.5c-11.6,39.1-25.7,80.3-53.5,111.1
				c-63.9,70.8-177.4,89.1-264.2,55.6c-24.6-9.5-49.1-22.6-70.7-37.9c-22.6-16-39.6-39.7-54-62.9c-30.4-49.1-52.2-103.8-70.4-158.4
				c-15.6-46.9-26.4-94.8-34.8-143.5c-5.8-33.8-12-67.4-26.3-98.8c-11.9-26.1-28-50.1-47-71.5c-56-63-134.5-102.5-212.9-130.1
				C59.4,245.1,30.4,236.5,1.1,229C-0.7,228.6-1.5,231.5,0.3,232L0.3,232z"/>
		</g>
	</g>
	<g>
		<g>
			
				<linearGradient id="SVGID_00000149355429122868431550000006483494823978864037_" gradientUnits="userSpaceOnUse" x1="-0.5901" y1="473.3592" x2="1940.2546" y2="473.3592" gradientTransform="matrix(1 0 0 -1 0 1080)">
				<stop  offset="1.598337e-07" style="stop-color:#000000"/>
				<stop  offset="1" style="stop-color:#C1AE8C;stop-opacity:0.5"/>
			</linearGradient>
			<path style="fill:url(#SVGID_00000149355429122868431550000006483494823978864037_);" d="M0.5,252
				c93.9,23.2,190.4,57.2,265.2,120.7c49.2,41.7,83.1,94.9,97.9,157.8c9.4,39.9,16.1,80.3,27.4,119.8c15.9,55.8,37,111.1,63.5,162.8
				c16.1,31.4,34.8,63.1,60.3,87.8c13.9,13.4,30.7,22,47.6,31.1c36.1,19.5,75.8,32.1,117,32.4c41.1,0.3,85.9-11.5,122.6-30
				c32.6-16.4,60.8-41.4,79.3-72.9C908,816.2,920.3,763,934,712.9c17.2-63.2,32.6-126.9,45.5-191.1c12.4-61.2,19.8-125.7,55.3-178.9
				c17-25.5,39.4-46.8,67.8-58.9c29.3-12.5,62.1-14,93.2-8c61.2,11.7,112.9,48.9,156.7,91.6c44.8,43.7,84.9,92.3,124.1,140.9
				c20.3,25.1,40.3,50.5,60.3,75.9c18.8,23.8,35.8,48.9,55.2,72.2c19.6,23.6,43,41.9,65.6,62.3c18.2,16.4,38,30.6,58.2,44.4
				c47.8,32.6,95.8,65.8,145.4,95.6c26.1,15.7,52.7,30.6,79.3,45.3c1.7,0.9,3.2-1.7,1.5-2.6c-51.8-28.6-101.9-58.8-151-91.9
				c-25.3-17.1-51.1-33.5-76.3-50.8c-22.2-15.2-42.6-31.7-62.9-49.3c-23.1-19.9-44.9-39.1-64-63.1c-19-23.9-36.6-48.9-55.6-73
				c-39.8-50.5-79.7-100.9-122.2-149.1c-38.7-43.8-79.4-87.7-129.7-118.3c-47.4-28.8-106.9-46.5-161.8-31.1
				c-53.6,15.1-89.5,60.7-109.5,110.6c-11.7,29.2-17.9,60.2-23.8,90.9c-5.9,31-12.1,61.8-18.9,92.6
				c-14.3,64.6-30.9,128.7-49.3,192.3c-12.1,41.6-25.5,86.2-53.6,120.2c-28.2,34.2-67.4,55.8-109.7,67.6
				c-22.4,6.3-45,11.3-68.4,11.8c-25,0.5-50-3.5-73.8-11.2c-26.1-8.5-51-21.5-74.5-35.5c-22.7-13.5-39.8-36.4-54-58
				c-30.1-45.7-51.7-97.3-70.2-148.5c-16.8-46.5-28.9-94-38.7-142.3c-6.7-33-13.5-65.9-28.2-96.4c-12.4-25.8-29.2-49.6-48.6-70.6
				C241.3,338.1,164.3,300.4,87.2,274c-28.2-9.7-57-17.8-85.9-25C-0.6,248.6-1.4,251.5,0.5,252L0.5,252z"/>
		</g>
	</g>
	<g>
		<g>
			
				<linearGradient id="SVGID_00000080894292208754119870000018268515378583724960_" gradientUnits="userSpaceOnUse" x1="-0.4692" y1="470.1021" x2="1941.4612" y2="470.1021" gradientTransform="matrix(1 0 0 -1 0 1080)">
				<stop  offset="1.598337e-07" style="stop-color:#000000"/>
				<stop  offset="1" style="stop-color:#C1AE8C;stop-opacity:0.5"/>
			</linearGradient>
			<path style="fill:url(#SVGID_00000080894292208754119870000018268515378583724960_);" d="M0.6,272c91.8,21.8,186,53.9,260.2,114
				c49.2,39.9,84.7,91,101.3,152.3c10.6,38.9,18.3,78.5,30.2,117c16.8,54.2,38.3,107.9,65.3,157.8c16.1,29.8,34.8,60.2,60.4,82.9
				c14.4,12.8,32.3,20.2,49.4,28.6c36.4,17.8,76.1,28.3,116.9,25.7c21.6-1.4,42.3-7.1,62.9-13.3c19.2-5.8,38-13.2,55.4-23.2
				c30.5-17.5,55.8-42.9,72.8-73.7c25.7-46.6,38.3-100.3,52.8-151.1c17.2-60.3,33-121,47.3-182.1c13.8-59.2,24.6-120.2,63.5-169.1
				c18.9-23.8,43.7-42,73-50.6c30.3-8.9,62.6-6.8,92.8,1.4c57.7,15.6,106,52.1,148.5,92.9c44.4,42.7,85.2,89.4,125.2,136.2
				c20.1,23.4,40.4,46.8,59.8,70.8c17.5,21.7,33.6,44.6,52.9,64.7c19.2,19.9,42.7,34.2,64.6,50.8c19.7,14.8,41.4,26.8,63,38.7
				c48.7,26.9,95.9,56.4,144.9,82.7c25.8,13.8,51.9,27.1,78,40.4c1.7,0.9,3.2-1.7,1.5-2.6c-49.4-25.2-98.4-50.8-145.9-79.6
				c-47-28.5-99.3-50.6-142.8-84.4c-23.3-18.1-47.8-33-67.7-55.2c-18.7-20.8-34.7-43.8-52.6-65.3c-40.3-48.2-81-96.3-123.7-142.5
				c-38.6-41.9-78.7-84.1-126.9-115.1c-45.4-29.2-101.7-49.8-156.2-40.5C1002.2,302,986.3,452.3,961.8,551.8
				c-15.2,61.6-32,122.8-50.1,183.6c-12.8,43.1-25.6,88.9-53.1,125.4c-25.8,34.4-63,57.2-103.5,70.6c-20.5,6.8-41.5,13-63,15.3
				c-25.1,2.7-50.5,0.4-74.8-6.1c-27.1-7.2-52-20.1-77-32.5c-22.9-11.4-40.4-33.8-54.6-54.3c-30.4-43.9-52.3-94-71.2-143.7
				c-17.2-45.1-30-91.3-41-138.3c-7.5-31.8-15.3-63.5-30.6-92.6c-13.1-24.9-30.2-47.8-49.9-67.9c-56.6-58-132.5-93.9-208.5-118.9
				c-27.3-9-55.1-16.6-83.1-23.2C-0.5,268.6-1.3,271.5,0.6,272L0.6,272z"/>
		</g>
	</g>
	<g>
		<g>
			
				<linearGradient id="SVGID_00000034066727131698235840000000280974230379132840_" gradientUnits="userSpaceOnUse" x1="-0.342" y1="467.6456" x2="1942.6738" y2="467.6456" gradientTransform="matrix(1 0 0 -1 0 1080)">
				<stop  offset="1.598337e-07" style="stop-color:#000000"/>
				<stop  offset="1" style="stop-color:#C1AE8C;stop-opacity:0.5"/>
			</linearGradient>
			<path style="fill:url(#SVGID_00000034066727131698235840000000280974230379132840_);" d="M0.7,292
				c146.3,33.2,312.8,99.6,360.5,256.2c11.4,37.3,20.1,75.3,32.6,112.4c17.4,51.6,38.9,102.8,65.6,150.4
				c16.3,28.9,35.3,58.8,61.4,80c14.9,12.1,33.7,18.5,51.1,26.1c36.6,16,76,24.2,116,18.8c20.5-2.8,40-9.6,59.5-16.4
				c19.5-6.9,38.5-15.3,55.9-26.7c74.9-49.2,93.8-141.6,118.1-221.9c17.4-57.7,34-115.7,49.7-173.9c15.2-56,28.5-113,68.2-157.5
				c41.1-46.1,100.5-57.6,158.7-41.7c57.2,15.6,105.6,50.9,148.8,90.4c88.2,80.9,163,174.8,247.2,259.7c4.5,4.5,8.3,8.7,13.7,11.8
				c5.8,3.2,11.8,5.8,17.5,9.3c10.7,6.5,20.6,14.1,31.4,20.4c21.7,12.5,45,22.2,67.9,32.2c48.4,21.3,94.2,47.3,141.9,70
				c25.4,12.1,51,23.9,76.5,36c1.7,0.8,3.3-1.8,1.5-2.6c-48.1-22.7-96.8-44.5-143.5-70c-47.1-25.7-99-42.2-145.1-69.5
				c-10-5.9-19.3-13-29.2-19c-5.7-3.5-11.8-6-17.5-9.3c-8-4.6-14.3-12.5-20.8-19.1c-21.7-22.2-42.6-45-63.5-68
				c-40.5-44.5-80.8-89.2-123-132.2c-39.1-39.8-79.4-79.9-127.2-109.3c-44.1-27.2-98.1-47.2-150.5-39.4
				c-52.2,7.8-90.9,44.2-115.8,88.9c-13.5,24.2-22,50.6-29.3,77.2c-7.9,28.8-15.4,57.7-23.4,86.4c-16,57.4-32.9,114.5-50.4,171.4
				c-13.6,44-26.3,90.6-53.3,128.7c-24,33.8-58.8,57.3-97.3,71.8c-42.7,16.1-85.8,26.4-131.5,17.1c-28.2-5.7-53.4-18.7-79.9-29.3
				c-23.3-9.3-41.3-31.6-55.6-51.3c-30.7-42.4-53-91.3-72.4-139.7c-17.2-42.9-30.4-86.9-42.4-131.4c-8.4-31.4-17.5-62.5-33.8-90.9
				c-13.8-24-31.4-45.8-51.2-65C231.1,368,156.5,334,81.8,310.5c-26.4-8.3-53.3-15.3-80.3-21.4C-0.3,288.6-1.1,291.5,0.7,292
				L0.7,292z"/>
		</g>
	</g>
	<g>
		<g>
			
				<linearGradient id="SVGID_00000014630730883410447720000003160882343526600856_" gradientUnits="userSpaceOnUse" x1="-0.2192" y1="469.7368" x2="1943.8826" y2="469.7368" gradientTransform="matrix(1 0 0 -1 0 1080)">
				<stop  offset="1.598337e-07" style="stop-color:#000000"/>
				<stop  offset="1" style="stop-color:#C1AE8C;stop-opacity:0.5"/>
			</linearGradient>
			<path style="fill:url(#SVGID_00000014630730883410447720000003160882343526600856_);" d="M0.9,312
				c143.3,30.9,307,93.5,359.1,244.1c12.7,36.8,22.6,74.5,36.1,111c18,49,39.5,97.7,66.1,142.6c16.1,27.2,35,55.4,60.5,74.8
				c15.7,12,36,17.5,54.3,24.5c37.4,14.4,77.1,19.8,116.5,10.9c19.4-4.4,38.2-12.2,56.6-19.7c19.5-8,38.3-17.8,55.1-30.6
				c26.3-20.1,46-46.6,60.2-76.3c22.7-47.4,36.1-99.4,52.1-149.3c17.6-55,35.1-110,52.1-165.1c16.6-53.9,35-106.9,78.4-145.4
				c94.3-83.6,224.4,0.6,299.9,67.7c44.4,39.4,86.4,81.5,128,123.7c20.6,20.9,41.1,42,61.8,62.8c10.3,10.3,20.7,20.5,31.2,30.6
				c8.6,8.2,17.6,19.4,27.8,25.5c6.1,3.7,14.8,5.1,21.4,8.3c5.5,2.7,10.9,5.7,16.2,8.7c8.4,4.8,16.9,9,25.8,12.6
				c22.9,9.4,46.7,16.6,70,24.7c48.2,16.7,93.7,39.9,140.6,59.7c24.6,10.4,49.2,20.7,73.6,31.4c1.8,0.8,3.3-1.8,1.5-2.6
				c-45.7-20-92.5-38-137.5-59.5c-24.3-11.6-48.8-21.9-74.1-30.7c-23.6-8.2-47.6-15.4-70.8-24.8c-10.5-4.2-20.4-9.3-30.3-14.9
				c-10.5-5.9-21.4-9.8-32.2-14.7c-12.3-5.6-22.9-19.1-32.5-28.4c-11.9-11.4-23.6-23.1-35.2-34.8c-42.2-42.5-83.7-85.6-126.8-127.2
				c-39.1-37.7-78.9-75.9-124.3-105.8c-42.4-27.9-93.7-50.6-145.4-49.4c-50.9,1.1-92.4,29.1-121.4,69.5c-32,44.5-44.5,99.4-60.5,151
				c-17.2,55.2-34.8,110.2-52.5,165.2c-14.7,45.8-27.4,94.1-53.2,135.3c-20.8,33.2-51.3,58.2-86.8,74.7
				c-40.3,18.7-83.8,33.6-128.8,28.7c-30.8-3.4-57.3-16.7-86.3-25.9c-23.9-7.6-42.4-29-57.1-48.3c-29.7-39-51.3-84.3-70.7-129.1
				c-18.4-42.3-32.8-86-46.2-130.1c-9.2-30.2-19.1-60.3-35.7-87.5c-14.6-23.8-33-45.2-53.5-64C226.4,383,152.8,350.9,79.1,328.8
				c-25.5-7.6-51.4-14.1-77.4-19.7C-0.2,308.7-1,311.6,0.9,312L0.9,312z"/>
		</g>
	</g>
	<g>
		<g>
			
				<linearGradient id="SVGID_00000175307640255539306140000006963857524892817813_" gradientUnits="userSpaceOnUse" x1="-9.571537e-02" y1="471.731" x2="1945.0919" y2="471.731" gradientTransform="matrix(1 0 0 -1 0 1080)">
				<stop  offset="1.598337e-07" style="stop-color:#000000"/>
				<stop  offset="1" style="stop-color:#C1AE8C;stop-opacity:0.5"/>
			</linearGradient>
			<path style="fill:url(#SVGID_00000175307640255539306140000006963857524892817813_);" d="M1,332c142.6,29,303.2,88.8,359.2,235.9
				c13.7,36.1,25,73,39.5,108.9c19,47,40.8,93.9,68.2,136.7c16,25,34.9,51.2,60.2,67.5c7.7,4.9,15.3,7.8,24,9.9
				c11.8,3,23.1,8.2,34.8,11.7c40.5,12.4,82.9,12.2,122.5-3.3c34.7-13.6,70-29.1,98-54.2c25-22.5,42.3-51.2,55.5-81.9
				c21.2-49.2,35.9-101.5,53.4-152.1c17.6-51,35.5-102,53.8-152.8c18.1-50.2,44.2-103.5,92.4-131.3c49.9-28.8,106.3-19.9,157.3,1.1
				c49.3,20.3,91.9,53.7,132.2,88c43.7,37.3,85.8,76.4,127.8,115.6c21.9,20.5,43.7,41.2,66.1,61.2c10.1,9.1,20.3,18,30.8,26.8
				c3.5,3,7.4,7.2,11.4,9.4c5.1,2.8,13.6,2.7,19.4,4.3c9.7,2.7,17.9,9,27.4,11.3c10.5,2.5,21,5,31.5,7.5
				c24.3,5.9,48.6,12.3,72.5,19.8c44.8,14.2,88.1,33.6,132.2,50c25.1,9.3,50.1,18.9,74.8,29c1.8,0.7,2.6-2.2,0.8-2.9
				c-45.4-18.4-91.8-34.2-137.1-52.7c-47.5-19.3-95.3-34.8-145.2-46.8c-9.5-2.3-19.3-4.1-28.7-6.8c-10.5-3.1-19.5-9.3-30.4-12.1
				c-7.7-2-14.3-2.7-21-7.5c-4.9-3.5-9.4-7.8-13.9-11.7c-11.4-9.7-22.5-19.7-33.6-29.8c-43.2-39.4-85.3-80-128.7-119.2
				c-39.2-35.3-78.7-71.3-122.6-100.8c-41.6-28-90.3-51.5-141-55.1c-49.1-3.5-92.6,17.7-124.5,54.3c-33.6,38.6-48.9,86.6-65.8,134
				c-18.5,51.8-36.5,103.8-54.3,155.8c-16.4,47.9-29.6,98.6-54.7,142.9c-18.5,32.7-45.2,59.1-78.1,77.3
				c-14.7,8.2-30.3,14.4-45.7,21.1c-24.7,10.8-49.8,18-77,17.9c-20,0-39.7-3.7-58.8-9.7c-11.3-3.6-22.2-8.5-33.8-11.3
				c-23.2-5.7-40.8-22.6-55.8-40.4c-30.9-36.7-52-80.5-72.8-123.3c-20.1-41.5-35.2-85.2-50.2-128.7c-10-29.2-20.7-58.2-37.7-84.2
				c-15.4-23.6-34.7-44.7-56-63.1c-57-49.3-128.3-79.5-200-100.1c-25.6-7.4-51.6-13.5-77.7-18.8C-0.1,328.7-0.9,331.6,1,332L1,332z"
				/>
		</g>
	</g>
	<g>
		<g>
			
				<linearGradient id="SVGID_00000050656197132904012320000004681364681020789183_" gradientUnits="userSpaceOnUse" x1="2.895630e-02" y1="473.4592" x2="1946.3026" y2="473.4592" gradientTransform="matrix(1 0 0 -1 0 1080)">
				<stop  offset="1.598337e-07" style="stop-color:#000000"/>
				<stop  offset="1" style="stop-color:#C1AE8C;stop-opacity:0.5"/>
			</linearGradient>
			<path style="fill:url(#SVGID_00000050656197132904012320000004681364681020789183_);" d="M1.1,352
				c140.3,26.7,297.8,82.9,358.3,224.2c15.2,35.5,27.7,72.2,43.2,107.6c20,45.8,42.6,91.8,71.3,132.9c15.9,22.7,34.9,47.1,60,60.1
				c8.1,4.2,16.3,5.3,25,7.6c12.5,3.2,24.7,7.6,37.3,10.5c41.4,9.2,82,3,119.9-15.7c34.4-17,68.3-32.7,94.5-61.8
				c20.9-23.2,35.5-50.6,47.4-79.4c20.5-49.8,36.4-101.6,55.5-152.1c19-50.2,37.9-100.8,60-149.7c21.1-46.8,55.3-92.9,105.2-111
				c49.3-17.9,102.4-3.5,148.2,17.9c48.2,22.5,90.4,55.3,131.5,88.5c43.6,35.2,86.3,71.6,128.9,108.1c21.3,18.3,42.7,36.5,64.8,53.9
				c4.4,3.5,8.8,6.9,13.3,10.3c4.1,3.1,9.5,8.8,14.3,10.6c4.2,1.5,10,1,14.5,1.6c6.6,0.8,13.3,1.9,19.7,4.1c3.2,1.2,6.4,3.5,9.6,4.4
				c4.6,1.3,10.2,1.2,15,1.8c11.3,1.4,22.6,2.9,33.9,4.6c25.8,3.9,51.4,8.8,76.6,15.4c42.6,11.2,84.5,27.1,126.3,40.9
				c24.1,7.9,48.1,16.3,71.9,25.2c1.8,0.7,2.6-2.2,0.8-2.9c-44.1-16.6-89-30.3-133.6-45.3c-22.6-7.6-45-15.8-68.2-21.7
				c-24.6-6.3-49.5-11-74.6-14.7c-9.3-1.4-18.5-2.6-27.8-3.8c-5.1-0.7-10.4-1-15.5-1.9c-4.9-0.9-8.9-3.3-13.6-4.9
				c-10.1-3.5-20.4-2.8-30.6-5.3c-6.6-1.6-11.9-6.7-17.2-10.7c-7.7-5.8-15.3-11.8-22.8-17.9c-43.5-35-85.2-72.2-128-108.1
				c-40.4-33.9-80.9-68.3-124.4-98.1c-41.2-28.2-87.9-52.6-137.6-60.9c-43.6-7.3-87.1,3.4-120.9,32.3c-38.1,32.6-58.3,75.5-77,121
				c-20.2,49.2-39.5,98.7-57.9,148.6c-17.9,48.6-32,99.6-55.3,145.9c-16.3,32.5-39.1,60.9-69.5,81.4C757.9,855.9,741,864,724,872
				c-20.7,9.7-40.7,19-63.6,22.5c-21.1,3.3-42.6,2-63.3-2.6c-12.6-2.8-24.8-7.2-37.3-10.5c-9.4-2.4-18.1-3.7-26.8-8.6
				c-11.3-6.4-21.2-15.3-30.1-24.7c-31.1-32.9-52.3-73.7-72.8-113.7c-21.4-41.8-38.8-85-55.7-128.8c-11.1-28.8-22.8-57.6-40.5-83.1
				c-15.9-22.9-35.6-43.2-57-60.9c-57.6-47.5-128.6-76.2-200-95.6c-24.7-6.7-49.7-12.3-74.9-17C0,348.7-0.8,351.6,1.1,352L1.1,352z"
				/>
		</g>
	</g>
	<g>
		<g>
			
				<linearGradient id="SVGID_00000168107698478280467750000013214837894705885091_" gradientUnits="userSpaceOnUse" x1="0.1477" y1="474.8712" x2="1947.5074" y2="474.8712" gradientTransform="matrix(1 0 0 -1 0 1080)">
				<stop  offset="1.598337e-07" style="stop-color:#000000"/>
				<stop  offset="1" style="stop-color:#C1AE8C;stop-opacity:0.5"/>
			</linearGradient>
			<path style="fill:url(#SVGID_00000168107698478280467750000013214837894705885091_);" d="M1.2,372
				c139.1,24.5,293.6,77.5,358.2,214.2c37.5,79.2,67,163,120.8,233.4c15.5,20.2,34.3,41.9,58.5,51.9c8.7,3.6,17.8,3.9,26.8,6
				c12.9,3,25.6,6.4,38.7,8.2c18,2.4,36.4,2.1,54.2-1.5c21.7-4.4,40.5-13.8,59.8-24c33.8-18,65.6-36,90.1-66.3
				c21-26,35.2-56.5,47.2-87.5c19.1-49.4,36.7-99.2,57.2-148c19.8-47.1,39.4-95.7,65.2-139.9c25.1-42.9,65-80.7,115-90.5
				c49.8-9.8,102.8,10.7,146.3,33.3c45.4,23.5,86.4,54.7,127.2,85.3c42.7,32.1,84.8,64.9,127.2,97.5c21.6,16.6,43.3,33,66,48
				c3.8,2.5,8.1,6.3,12.4,7.8c4.5,1.5,12,0,16.9,0.2c5.4,0.2,10.9,0.5,16.2,1.6c3.9,0.8,7.5,3,11.3,3.8c8.8,1.8,19.8,0.3,28.8,0.6
				c11.1,0.4,22.3,1,33.4,1.8c26.3,2,52.5,5.3,78.2,10.8c40.3,8.6,80.4,21.3,120,32.8c24.1,6.9,47.9,14.5,71.6,22.7
				c1.8,0.6,2.6-2.3,0.8-2.9c-43.4-15.1-87.6-27.2-131.9-39.4c-21-5.8-41.8-12.4-63.2-16.8c-23.8-4.9-48-8-72.3-10
				c-10.7-0.8-21.5-1.5-32.3-1.9c-10-0.4-20.8,0.6-30.7-0.7c-7.2-0.9-13.8-4.2-21.1-4.9c-6.1-0.6-12.3-0.2-18.4-0.7
				c-8.5-0.6-14.1-4.8-21-9.4c-45.1-30.2-87.2-64.8-130.2-97.9c-41.3-31.8-82.6-63.9-125.6-93.4c-41.5-28.5-86-53.4-134.9-66.6
				c-41.5-11.2-87.1-9.6-124,14.6c-40.3,26.4-66,65.6-86.4,108.2c-21.5,45-41.6,90.6-60.2,136.8c-19.3,47.9-34.6,97.8-56,144.8
				c-14.7,32.2-34,62.1-61.4,85c-15.8,13.1-33.5,23.4-51.7,32.8c-19,9.9-37.4,20.7-58.2,26.5c-35.4,10-68.3,4.2-103.1-3.8
				c-9.4-2.2-18.8-2.5-27.7-6.4c-11.8-5.2-22.2-13.6-31.4-22.5c-30.5-29.5-52.7-67.6-72.3-104.9c-21.1-40.2-40.1-80.9-58-122.6
				c-12.5-29.2-25.4-58.4-44.4-84.1c-16.7-22.5-37.2-42.4-59.3-59.6c-57.7-44.9-127.6-71.9-198-89.9c-24.2-6.2-48.6-11.2-73.2-15.6
				C0.1,368.8-0.7,371.7,1.2,372L1.2,372z"/>
		</g>
	</g>
	<g>
		<g>
			
				<linearGradient id="SVGID_00000145042241266168318760000002548521965604532403_" gradientUnits="userSpaceOnUse" x1="0.2777" y1="476.2192" x2="1948.7233" y2="476.2192" gradientTransform="matrix(1 0 0 -1 0 1080)">
				<stop  offset="1.598337e-07" style="stop-color:#000000"/>
				<stop  offset="1" style="stop-color:#C1AE8C;stop-opacity:0.5"/>
			</linearGradient>
			<path style="fill:url(#SVGID_00000145042241266168318760000002548521965604532403_);" d="M1.4,392c81.6,13.1,164,34.6,235.5,77.2
				c53,31.6,95.6,74,124,129c38.8,75.2,69.9,156.4,124.7,222.1c16,19.2,36.6,40.7,61.9,46.5c9.3,2.1,19,2.3,28.4,4.1
				c13.4,2.5,26.9,4.6,40.6,4.8c18.8,0.2,37.5-3.1,55.1-9.6c18.5-6.8,34.9-17.6,51.9-27.3c31.7-18.1,60.1-38.8,81.9-68.5
				c22.5-30.7,36.5-66.4,49.9-101.8c17.8-47.1,37.2-93.5,58.9-138.9c38.9-81.5,88.9-193,194.4-195.3c48.8-1.1,98.5,21.5,140.4,44.3
				c43.6,23.8,84.3,52.9,125.2,81c43.4,29.8,86.3,60.3,130.1,89.5c10.3,6.9,20.7,13.7,31.2,20.1c8.5,5.2,18.7,13.7,28.4,16.1
				c4.5,1.1,12.7-1,17.5-1.3c4.8-0.3,9.7-0.5,14.5-0.2c4.7,0.3,8.6,2,13,2.7c3.9,0.6,8.9-0.8,12.9-1.1c47.5-4,95.9-3.8,142.9,4.4
				c38.1,6.6,76.2,16.2,113.7,25.7c23.9,6,47.7,12.8,71.1,20.4c1.8,0.6,2.6-2.3,0.8-2.9c-43.2-13.9-87.1-24.6-131.4-34.3
				c-42.4-9.4-83.7-17.6-127.3-18.5c-22.4-0.5-44.9,0.3-67.2,2.1c-4.2,0.3-8.6,1.2-12.7,1.2c-3.7-0.1-7.2-1.5-10.9-2
				c-11.2-1.6-22.1,1.5-33.2,0.8c-11.6-0.7-24.1-11.4-33.7-17.4c-11.6-7.2-23-14.8-34.4-22.4c-21.7-14.7-43.1-29.7-64.7-44.6
				c-42.5-29.4-84.9-59.1-128.1-87.5c-41.2-27.1-84-51.4-131-67c-39.7-13.1-79.9-16.8-119.4-0.9c-41.3,16.7-73.7,54.1-95.6,91.7
				c-24,41-45,84-64.5,127.4c-20.7,45.9-37.4,93.3-56.8,139.7c-13.4,32.2-30,63.6-54.3,89c-15.1,15.8-33,28.5-51.8,39.6
				c-16.1,9.6-32.3,20.1-49.2,28c-34.8,16.2-70.3,17.3-107.4,10.3c-9.8-1.8-20.2-2-29.8-4.4c-12-3.1-22.8-10.1-32.2-17.9
				c-30.4-25.1-52.6-60.1-72.1-93.9c-23.1-40-43.6-81.1-63.5-122.9c-13.5-28.4-27.3-56.9-46.7-81.8c-17.2-22.1-38-41.2-60.4-58
				c-58.2-43.5-128-69.2-198.1-85.9c-23.8-5.7-47.8-10.3-71.9-14.2C0.3,388.8-0.5,391.7,1.4,392L1.4,392z"/>
		</g>
	</g>
	<g>
		<g>
			
				<linearGradient id="SVGID_00000139271205988630946820000005587756378560955520_" gradientUnits="userSpaceOnUse" x1="0.3986" y1="477.7786" x2="1949.9299" y2="477.7786" gradientTransform="matrix(1 0 0 -1 0 1080)">
				<stop  offset="1.598337e-07" style="stop-color:#000000"/>
				<stop  offset="1" style="stop-color:#C1AE8C;stop-opacity:0.5"/>
			</linearGradient>
			<path style="fill:url(#SVGID_00000139271205988630946820000005587756378560955520_);" d="M1.5,412
				c80.3,11.6,161.4,31.4,232.6,71.5c25.8,14.5,50.1,31.8,71.8,52c23.3,21.7,41.6,47.2,57.2,74.9c20.4,36.1,38.4,73.6,59.1,109.6
				c20.9,36.4,43.3,73.7,72.5,104.2c16.2,16.9,37.2,35,61.8,36.3c24.5,1.3,48.5,6,73.1,2.7c38.5-5.3,69.2-27.3,101-47.9
				c30.1-19.5,55.5-43.3,74.8-73.6c22.5-35.3,35.8-75.2,51.8-113.7c18.1-43.5,38.3-86.1,61.2-127.3c23.2-41.8,47.8-86.2,85-117.1
				c18.9-15.7,39.6-29,63.5-35.5c19.9-5.4,40.2-6.6,60.6-3.4c47.1,7.3,92.5,29.2,133.8,52.2c43.4,24.1,85.1,51.3,127.4,77.2
				c43.4,26.7,86.5,54.5,131.3,78.9c10.4,5.7,21,11.3,31.9,16c8.7,3.8,20.9-1.2,30.1-2.2c7.2-0.8,13.8,0.6,20.8,0.6
				c8.6,0,18.6-3.6,27.2-4.9c47.1-7.3,95.8-9.5,143.1-2.9c36.2,5.1,72.6,11.9,108.3,19.7c23.4,5.1,46.6,11.2,69.6,18
				c1.8,0.5,2.7-2.3,0.8-2.9c-42.3-12.6-85.4-21.9-128.9-29.4c-40.8-7-80.7-13.2-122.4-12.1c-21,0.6-41.9,2.4-62.7,5.3
				c-9.1,1.3-18.2,2.8-27.3,4.5c-7.9,1.5-15.1-0.1-23.1,0.5c-9.4,0.6-18.9,3.8-28.3,3.8c-6.6,0-12.6-3.8-18.3-6.7
				c-6.5-3.2-12.9-6.6-19.3-10.1c-22.8-12.5-45-26.2-67.2-39.7c-44.4-27.1-88.7-54.5-133.1-81.8c-39.6-24.3-79.6-48.7-122.8-66
				c-37.4-15-77.6-28.2-118.3-21c-42.2,7.5-80.1,34.7-107,67.6c-28.6,35-50.9,76.4-71.7,116.3c-21.8,41.7-40.9,84.8-58.1,128.5
				c-14.1,35.8-28.9,71.7-52.2,102.7c-24,31.7-56.1,50.8-88.4,72.6c-33.8,22.9-70.3,34.7-111.2,31c-22-2-45.3-1.7-64.6-13.5
				c-31.8-19.5-55-53-74.7-83.8c-25-39.1-46.9-80.1-68.5-121.2c-14.7-28.1-29.6-56.4-49.7-81.2c-18-22.3-39.9-41.4-63.2-57.9
				c-58.8-41.7-128.3-66-198.2-81.4c-23.2-5.1-46.7-9.2-70.2-12.6C0.4,408.8-0.4,411.7,1.5,412L1.5,412z"/>
		</g>
	</g>
	<g>
		<g>
			
				<linearGradient id="SVGID_00000056428557238441470650000009419350801317519035_" gradientUnits="userSpaceOnUse" x1="0.5849" y1="478.9825" x2="1951.2017" y2="478.9825" gradientTransform="matrix(1 0 0 -1 0 1080)">
				<stop  offset="1.598337e-07" style="stop-color:#000000"/>
				<stop  offset="1" style="stop-color:#C1AE8C;stop-opacity:0.5"/>
			</linearGradient>
			<path style="fill:url(#SVGID_00000056428557238441470650000009419350801317519035_);" d="M2,432.1
				c79.7,10.1,160.2,28.5,231.4,66.8c25.7,13.8,50.1,30.3,72.1,49.6c25,22,44.6,48.3,61.8,76.5c21.4,35.1,40,72,62.9,106.2
				c22.6,33.7,43.2,68.9,74,96.1c9.6,8.5,20.3,16.3,32.3,21.2c10.1,4.1,19.4,4.5,30.1,4.6c26.5,0.2,51.2,2.6,77-5.6
				c19.4-6.1,37.2-16.3,53.5-28.4c13.6-10.1,27.8-19.4,41.2-29.7c28.4-21.7,50.6-48.6,67.8-79.9c21.7-39.4,36.1-82.3,55.3-122.9
				c19.1-40.4,40.8-79.8,66-116.8c13.2-19.4,26.9-39,42.9-56.3c16.2-17.6,35.8-32,56.7-43.6c37.4-20.9,78.8-22.1,119.3-10.4
				c46.9,13.5,91,35.4,133.7,58.7c43.1,23.5,86,47.5,129.3,70.7c41.9,22.4,83.7,46.8,128.1,63.8c3.2,1.2,7.1,3.3,10.6,3.5
				c5.1,0.3,12.2-2.7,17.1-3.8c8.9-2,17.7-4.1,26.9-4.1c7.3-0.1,14-2.7,21.2-4.5c9.8-2.6,19.8-4.9,29.8-6.9
				c45.2-9.1,92.3-13.2,138.3-8c34.5,4,69,8.1,103.1,14.5c22.9,4.3,45.5,9.7,68,15.9c1.9,0.5,2.7-2.4,0.8-2.9
				c-40.9-11.3-82.4-19.3-124.4-24.7c-37.5-4.9-74.7-9.4-112.6-7.3c-22.2,1.2-44.4,4-66.3,8.1c-8.9,1.7-17.7,3.5-26.5,5.6
				c-9.2,2.2-19.6,7-29.1,7.4c-6.3,0.3-12,0.3-18.3,1.5c-11.3,2.2-23.1,7.3-34.3,4c-24.9-7.3-49-21.7-71.9-33.6
				c-43.6-22.8-87.1-46.1-130.2-69.8c-42.4-23.3-84.2-47.9-128.5-67.4c-35.7-15.7-75.5-32-115.2-31.6c-41.7,0.4-79,19.9-110.3,46.4
				c-33.2,28.1-58,67.9-80.4,104.6c-23.6,38.7-44,79.3-62,120.9c-16.2,37.4-30.1,75.9-52.9,110c-10.9,16.3-23.6,31.3-38.4,44.3
				c-14.5,12.7-30.5,23.2-46.1,34.4c-17.6,12.6-34.5,25-54.9,32.8c-15.5,5.8-31.7,8.9-48.2,9.3c-11.7,0.3-23.3-1-35-1.2
				c-12.1-0.2-22.5-0.8-33.7-6.2c-31.9-15.3-55.8-47.2-75.5-75.4c-26.3-37.7-49-77.8-72-117.6c-16.1-27.9-32.6-55.9-53.9-80.1
				c-19.2-21.8-42.1-40.3-66.3-56.2c-59.6-39.1-128.7-61.4-198.1-75.1C45.9,435.3,24,431.9,2,429.1C0.1,428.8,0.1,431.8,2,432.1
				L2,432.1z"/>
		</g>
	</g>
	<g>
		<g>
			
				<linearGradient id="SVGID_00000144301456603930023500000010211105800330503562_" gradientUnits="userSpaceOnUse" x1="0.6999" y1="478.589" x2="1952.4016" y2="478.589" gradientTransform="matrix(1 0 0 -1 0 1080)">
				<stop  offset="1.598337e-07" style="stop-color:#000000"/>
				<stop  offset="1" style="stop-color:#C1AE8C;stop-opacity:0.5"/>
			</linearGradient>
			<path style="fill:url(#SVGID_00000144301456603930023500000010211105800330503562_);" d="M2.1,452.1
				c79.1,8.5,159,25.3,230.4,61.7c26.8,13.7,52.4,30,75.4,49.5c25.8,21.9,46.3,48.5,64.9,76.6c23.2,35,45.1,70.8,68.4,105.7
				c20.6,30.8,44,63,74.8,84.4c10,7,21.3,12.9,33.5,15c9.8,1.7,20,0.2,30,0.1c27.4-0.3,53.2-4.5,77.8-17.4
				c17.7-9.2,32.3-21.9,47.9-34c14.4-11.3,29.2-22.1,42.6-34.7c25.7-24.2,44.5-54.4,60-86c19.9-40.7,36-82.9,57.9-122.7
				c21.8-39.5,47.2-76.8,76.5-111.1c28.2-32.9,65.7-64.2,108.9-74.6c38.9-9.4,74.7-1.8,111.6,11.4c45.4,16.2,88.3,37.4,131.4,58.8
				c43.2,21.4,86.9,41.9,130.9,61.7c21.2,9.5,42.4,19.2,64,28c9.9,4,20,7.9,30.2,11.2c5.4,1.8,10.8,3.6,16.3,4.8
				c4.9,1.1,7.8-0.2,12.8-1.6c9-2.6,17.9-5.7,27-7.8c7.2-1.7,13.3-1.7,20.2-4.4c18.3-7,37.2-12.7,56.3-17.3
				c43-10.5,87.4-16,131.7-13.1c34.3,2.3,68.4,4.8,102.4,10.3c22.7,3.7,45.1,8.4,67.4,14.1c1.9,0.5,2.7-2.4,0.8-2.9
				c-40.6-10.3-81.9-17.3-123.6-21.1c-35.3-3.2-70.8-5.8-106.2-2.6c-41.4,3.8-82.8,12.9-122,26.9c-14.8,5.3-30,7.6-45.1,12.1
				c-4.8,1.4-9.9,3.6-14.8,4.3c-6.6,1-12.9-1.7-19.1-3.6c-11.3-3.6-22.5-7.8-33.5-12.3c-90.1-36.6-175.5-83-263.9-123.2
				c-37.4-17-77.9-35.1-119-40.4c-35.9-4.6-69.6,5.3-100.6,22.9c-38.2,21.7-66.7,54.3-92.7,89.1c-25.7,34.4-47.7,71.5-66.8,110
				c-19.4,39-33.9,80.5-55.8,118.3c-19.7,33.9-45.4,60.7-76.4,84.5c-30,23-57.9,47.8-96.1,55.8c-12.8,2.7-25.8,3.2-38.9,3.4
				c-10.5,0.1-21.4,1.8-31.8-0.5c-32.2-7-57.8-36.5-77.3-61c-28.7-36-52.7-75.8-77.2-114.7c-17.8-28.1-35.8-56.5-58.4-81.1
				c-20.2-21.9-44.1-40.3-69.4-56.1c-60.2-37.5-129.3-58.5-198.8-70.8c-21.4-3.8-42.9-6.6-64.5-9C0.2,448.9,0.2,451.9,2.1,452.1
				L2.1,452.1z"/>
		</g>
	</g>
	<g>
		<g>
			
				<linearGradient id="SVGID_00000133504975937625127560000015542961716554840484_" gradientUnits="userSpaceOnUse" x1="0.8238" y1="478.2828" x2="1953.6099" y2="478.2828" gradientTransform="matrix(1 0 0 -1 0 1080)">
				<stop  offset="1.598337e-07" style="stop-color:#000000"/>
				<stop  offset="1" style="stop-color:#C1AE8C;stop-opacity:0.5"/>
			</linearGradient>
			<path style="fill:url(#SVGID_00000133504975937625127560000015542961716554840484_);" d="M2.3,472.1
				c78.2,6.7,157,21.8,228.3,55.7c28.5,13.6,56.1,30.1,80.5,50.2c26.1,21.5,47.5,47.5,67.2,74.9c25.5,35.3,49,72,75.3,106.7
				c20.2,26.6,43.6,55,73.9,70.5c20.9,10.7,42,8.1,64.5,5.5c28.9-3.3,55-14.5,78.3-31.8c14.9-11.1,28.3-24.3,42.5-36.3
				c15.5-13.1,30.8-26.7,43.7-42.4c22.8-27.7,39.4-60.1,54.1-92.6c35.9-79,78.5-155.5,144.9-213.1c32.5-28.2,75.7-49.4,119.2-51.1
				c37.8-1.5,74.9,13.9,109.4,27.4c43.4,17,85.4,37,128.3,55.1c43.1,18.2,87,34.7,131,50.7c21.9,8,43.9,16,66.7,21.4
				c9,2.2,17.6,5.2,26.4,2.2c9.8-3.3,19.3-7.1,29.1-10.6c5.3-1.9,10.9-2.5,16.1-4.1c9-2.8,18-8.5,26.8-12
				c18.3-7.4,37.1-13.6,56.2-18.8c73-19.9,149.4-19.8,224.1-9.6c22.1,3,44,7.2,65.8,12.3c1.9,0.4,2.7-2.5,0.8-2.9
				c-39.8-9.3-80.2-15.3-121-17.6c-33.5-1.9-67.7-2.9-101.1,1.1c-40,4.8-79.6,15-117.3,29.4c-14.7,5.6-28.5,12.7-43.6,16.9
				c-7.5,2.1-14.8,5.1-22.1,7.9c-4.8,1.8-9.6,3.8-14.5,5.2c-7.4,2-14.1,0.2-21.4-1.5c-46-10.4-90.8-29.4-134.8-46.3
				c-44.1-16.9-87.3-35.6-130.5-54.7c-40-17.7-80.6-35.6-122.8-47.5c-32.8-9.3-68-10-100.1,2.7c-19,7.5-37.7,16.4-54.5,28.1
				c-17.2,12-32.4,26.9-46.8,42.1c-27.6,29.1-51.3,61.6-71.8,96.1c-42.1,71.2-63.7,153.9-126.9,210.8c-13.7,12.3-27.8,24-41.6,36.2
				c-14.9,13.2-31.4,25-49.8,33.1c-22.8,10.1-48.2,12.7-72.9,14.1c-31.9,1.8-59.7-24.3-79.7-46c-30.5-32.9-55.1-71.3-80.4-108.1
				c-19.9-28.9-39.9-58-64.4-83.2c-21.4-21.9-46.2-40.2-72.5-55.6c-61.1-35.8-130.3-55.5-199.9-66.2c-20.8-3.2-41.8-5.6-62.8-7.4
				C0.3,468.9,0.3,471.9,2.3,472.1L2.3,472.1z"/>
		</g>
	</g>
	<g>
		<g>
			
				<linearGradient id="SVGID_00000106121406907513431830000018393840559677659012_" gradientUnits="userSpaceOnUse" x1="0.95" y1="477.4526" x2="1954.8197" y2="477.4526" gradientTransform="matrix(1 0 0 -1 0 1080)">
				<stop  offset="1.598337e-07" style="stop-color:#000000"/>
				<stop  offset="1" style="stop-color:#C1AE8C;stop-opacity:0.5"/>
			</linearGradient>
			<path style="fill:url(#SVGID_00000106121406907513431830000018393840559677659012_);" d="M2.4,492.1
				c77.9,4.8,156.5,18.4,228.2,50.5c29.7,13.3,58.6,29.7,84.2,50c26.4,20.8,48.6,46,69.3,72.4c27.3,34.8,52.2,71.6,81.1,105.1
				c20.3,23.6,45.1,49.6,76,58.7c20.1,5.9,44.5,0.7,64.3-4.8c30-8.3,55.6-27.1,77.6-48.7c27.2-26.7,56.3-51.5,77.9-83.3
				c21.9-32.3,37.2-67.8,54.5-102.6c18.4-37,40.1-72.6,66.7-104.4c27.8-33.4,61.6-65.9,101-85.1c34.3-16.8,72-27.6,110.3-21.6
				c38,6,75.3,22.9,110.9,36.9c86,33.8,172.3,65.1,262,87.8c10.9,2.8,21.9,5.2,33,7c8.6,1.4,19,4.2,27.3,1.1
				c15.8-5.8,30.8-13.3,46.5-19c6.2-2.3,12-6.3,17.9-9.4c8.6-4.5,17.4-8.6,26.4-12.5c19-8.3,38.6-15.3,58.4-21.3
				c68.6-20.6,141.2-23.5,212.1-15.9c22.8,2.5,45.4,6.3,67.9,11.1c1.9,0.4,2.7-2.5,0.8-2.9c-68.2-14.7-141.2-20.4-210.7-11
				c-40.6,5.5-80.4,17-118.3,32.4c-16.3,6.6-32.3,14-47.7,22.5c-5.8,3.2-11.9,5-18,7.5c-8.8,3.7-17.4,7.8-26.2,11.5
				c-5.3,2.2-10.8,4.8-16.7,5.1c-6.7,0.3-14.4-1.4-20.9-2.5c-11.8-2-23.4-4.7-34.9-7.7c-22-5.7-43.8-12-65.5-18.4
				c-44.9-13.2-89.3-27.9-133-44.8c-42.1-16.3-83.7-33.6-126.4-48.4c-30.9-10.7-60.3-16.5-93-12.1c-36.4,4.9-73.6,23.9-102.2,46.1
				c-32,24.9-60,54.7-83.6,87.6c-25.1,35-44,73-62.5,111.7c-16.6,34.6-35.1,69.3-60.9,98c-12.7,14.1-26.8,26.7-40.5,39.7
				c-15.2,14.4-29.3,29.4-46.6,41.3c-22.3,15.4-46.3,22.9-72.8,26.8c-13.1,1.9-24.8,2.7-37.6-1.6c-16.6-5.7-31.1-16.6-43.9-28.2
				c-33-29.8-58.6-67.5-85.1-103c-21.2-28.4-42.7-56.9-68.2-81.6c-22.5-21.9-48.3-40-75.7-55.2C204.5,523,136,504.6,67,495.3
				c-21.4-2.9-43-4.8-64.5-6.2C0.5,489,0.5,492,2.4,492.1L2.4,492.1z"/>
		</g>
	</g>
	<g>
		<g>
			
				<linearGradient id="SVGID_00000050646417544806997950000004097958736406140059_" gradientUnits="userSpaceOnUse" x1="1.0663" y1="477.2911" x2="1956.0189" y2="477.2911" gradientTransform="matrix(1 0 0 -1 0 1080)">
				<stop  offset="1.598337e-07" style="stop-color:#000000"/>
				<stop  offset="1" style="stop-color:#C1AE8C;stop-opacity:0.5"/>
			</linearGradient>
			<path style="fill:url(#SVGID_00000050646417544806997950000004097958736406140059_);" d="M2.5,512.1
				c77.4,2.8,155.4,14.7,227.2,44.6c30.9,12.9,60.8,28.9,87.7,48.9c29.1,21.7,54,48.2,77.3,75.8c28.1,33.3,53.8,69.3,85.1,99.9
				c21,20.5,48.1,42.9,79,43c20.5,0,43.6-7.4,61.6-16.7c31.4-16.3,53.6-43.3,77.8-68.3c27-27.9,50.8-56.1,70.2-89.8
				c20.9-36.3,37.1-75.1,59.5-110.6c20.9-33.2,46.1-64,76.2-89.4c33.8-28.6,70.7-48.6,113.6-59.7c33.8-8.8,66.4-6.2,99.3,4.6
				c40.7,13.4,80.6,29.4,121.1,43.4c43.2,15,87.1,27.3,131.7,37.4c21.3,4.8,42.8,9.1,64.2,13.5c21,4.3,42.3,10.8,63.9,10.8
				c31.3,0,54.9-19.8,81.8-32.5c35.7-16.7,71.2-34.1,108.2-47.8c34.2-12.6,68.5-20.5,104.8-23.3c32.7-2.5,65.5-2.6,98.2,0.2
				c22.2,2,44.3,5.3,66.2,9.6c1.9,0.4,2.7-2.5,0.8-2.9c-66.2-13.1-137.5-17.6-204.4-5.5c-38.4,6.9-75.2,21.4-110.7,37.1
				c-17.4,7.7-34.6,15.8-51.8,24c-12.3,5.8-24.6,11.2-36.1,18.5c-16.2,10.2-34.2,18.6-53.6,19.5c-23,1-45.9-6.5-68.2-10.9
				c-45.3-9.1-90.6-18.8-135.1-31.6c-43.7-12.6-86.3-28.6-129-44.1c-30.6-11.1-62.1-25.2-94.9-28c-76.8-6.4-150.6,39.5-201,93.5
				c-25.4,27.1-46.3,58-64.2,90.5C789,601.5,773,638.9,750.5,673c-22.4,34-52.4,63.5-80.8,92.6c-21.6,22.1-46.4,41.1-76.5,49.5
				c-10.9,3-23,6.2-34.3,6.2c-16.1,0-31.3-6.8-44.5-15.4c-36.3-23.5-63.5-60.2-90.2-93.4c-24-29.8-48.2-59.7-76.4-85.6
				c-24-22.2-51-40.5-80-55.7c-62.7-32.8-132.2-50.1-202.2-57.7c-20.9-2.3-41.9-3.6-62.9-4.4C0.6,509,0.6,512,2.5,512.1L2.5,512.1z"
				/>
		</g>
	</g>
	<g>
		<g>
			
				<linearGradient id="SVGID_00000135672519980430976730000007038134528627363741_" gradientUnits="userSpaceOnUse" x1="1.1925" y1="494.2263" x2="1957.2267" y2="494.2263" gradientTransform="matrix(1 0 0 -1 0 1080)">
				<stop  offset="1.598337e-07" style="stop-color:#000000"/>
				<stop  offset="1" style="stop-color:#C1AE8C;stop-opacity:0.5"/>
			</linearGradient>
			<path style="fill:url(#SVGID_00000135672519980430976730000007038134528627363741_);" d="M2.6,532.1
				c78.5,0.5,157.7,11.2,231,40.3c32.3,12.8,63.4,28.9,91.6,49.2c30.9,22.3,57.9,49.5,83.3,77.7c28.6,31.7,55.1,66.5,89.2,92.6
				c22.7,17.4,48.8,29.8,77.8,23.1c60-13.8,95.1-65.4,133.2-109.5c25.9-30,46.5-63.1,65.2-97.9c19.5-36.4,38-73,64.1-105.3
				c25.4-31.4,56.2-57.8,91.4-77.6c18.4-10.3,37.7-18.3,58-23.7c18.6-4.9,38.6-9.4,57.8-9.3c30.6,0.2,58.6,9.6,87.1,19.8
				c41,14.6,82.2,29.2,124.3,40.3c43.1,11.4,86.9,18.9,131,24.7c22.3,2.9,44.6,5.8,66.9,8.4c19.7,2.3,39.1,2.9,58-3.9
				c14.2-5.1,27.1-12.8,39.3-21.5c11.1-7.9,23.2-14.2,35.1-20.9c34.8-19.3,70.3-37.7,107.4-52.2c62.5-24.5,129.8-31.8,196.5-27.4
				c22.5,1.5,44.9,4.4,67.1,8.4c1.9,0.3,2.7-2.5,0.8-2.9c-65.8-12-134.6-13.8-200.5-0.8c-37.3,7.4-73,22-107.2,38.2
				c-31.8,15.1-64.7,31.1-94.3,50.3c-11.2,7.3-21.5,15.4-33.7,21.1c-21,9.9-42.1,11.3-64.9,8.8c-45.6-4.9-91.4-10.8-136.6-19.1
				c-44.6-8.2-88.3-20.2-131.3-34.6c-34.1-11.4-67.8-26.2-102.8-34.7c-68.4-16.8-143,11.3-197.2,52.9c-29,22.2-53.5,49.6-73.9,79.8
				c-23.3,34.4-40.2,72.4-61.1,108.2C745,652.5,733.9,670,721,686.1c-12.4,15.6-26.1,30.2-38.9,45.5c-21.6,25.9-43.9,53.1-74.4,68.9
				c-22.6,11.7-49.5,18.1-74,8.8c-39.6-14.9-66.7-50.4-94.5-80.3c-27.2-29.3-52.6-60-82.7-86.4c-25.4-22.3-53.5-41-83.7-56.1
				c-64.3-32.2-135.1-48.8-206.5-54.7c-21.2-1.8-42.4-2.6-63.6-2.7C0.7,529.1,0.7,532.1,2.6,532.1L2.6,532.1z"/>
		</g>
	</g>
	<g>
		<g>
			
				<linearGradient id="SVGID_00000037680630425722031720000010267224819683695751_" gradientUnits="userSpaceOnUse" x1="1.3175" y1="516.0417" x2="1958.46" y2="516.0417" gradientTransform="matrix(1 0 0 -1 0 1080)">
				<stop  offset="1.598337e-07" style="stop-color:#000000"/>
				<stop  offset="1" style="stop-color:#C1AE8C;stop-opacity:0.5"/>
			</linearGradient>
			<path style="fill:url(#SVGID_00000037680630425722031720000010267224819683695751_);" d="M2.8,552.1c78.8-2,158.3,7.2,232.6,34.6
				c33.8,12.5,66.4,28.5,96.3,48.8c32.4,22,61.2,48.7,88.4,76.7c42.6,44,98.2,117.7,168.2,92c21.9-8,39.6-23.2,55.1-40.2
				c12.7-13.9,24-28.9,35.2-44c12.7-17,26.3-33.2,38.8-50.3c47-64.3,73.2-142.5,132.6-197.6c30.4-28.2,67.5-49.8,107.3-61.7
				c34.4-10.3,73.5-15.5,109.1-9.1c30,5.4,58.5,19.2,87.2,29c41.7,14.2,84.4,25.5,128,32.2c44,6.8,88.4,9.3,132.8,11
				c21.2,0.8,42.8,2.9,63.9-0.1c16.9-2.4,32.7-9.3,47.2-18.2c10.3-6.4,19.3-14.3,29.2-21.2c13.9-9.8,28.3-18.8,42.8-27.6
				c34.1-20.7,69.6-39.6,106.7-54.5c60.2-24.2,125.5-33,190.1-29.9c21.9,1.1,43.7,3.6,65.3,7.2c1.9,0.3,2.7-2.6,0.8-2.9
				c-65-10.8-131.1-10.6-195.6,3.2c-71.8,15.4-139.6,54-200.2,94.2c-25.8,17.1-48.6,39.1-80,45.6c-21.8,4.5-44.5,2.2-66.5,1.3
				c-22.5-0.9-45.1-1.8-67.5-3.5c-46.4-3.4-92.3-10.1-137.3-21.9c-38.6-10.1-75.7-24.1-113.3-37.5c-61.1-21.9-130.2-11.3-187.4,17.5
				c-33,16.6-62.2,39.5-86.5,67.4c-25.7,29.5-44.2,63.4-63.1,97.4c-21.3,38.5-44.7,74.4-71.9,109c-22.1,28.1-42,59.1-69.7,82.2
				c-18.5,15.4-43.5,27.9-68.1,25.9c-40.7-3.3-74.9-38.4-101.4-66.2C399,685.6,345.7,633.1,275.7,600.3
				c-65.5-30.7-137.1-46.2-209.1-50.3c-21.2-1.2-42.5-1.4-63.8-0.8C0.8,549.1,0.8,552.1,2.8,552.1L2.8,552.1z"/>
		</g>
	</g>
	<g>
		<g>
			
				<linearGradient id="SVGID_00000036217866183464846060000000410094502974239639_" gradientUnits="userSpaceOnUse" x1="1.4437" y1="537.8493" x2="1959.7014" y2="537.8493" gradientTransform="matrix(1 0 0 -1 0 1080)">
				<stop  offset="1.598337e-07" style="stop-color:#000000"/>
				<stop  offset="1" style="stop-color:#C1AE8C;stop-opacity:0.5"/>
			</linearGradient>
			<path style="fill:url(#SVGID_00000036217866183464846060000000410094502974239639_);" d="M2.9,572.1
				c81.3-5.1,163.5,3.3,240.6,30.7c35.5,12.6,69.5,29,101,49.6c34.2,22.4,64.1,49.6,93.9,77.5c43.4,40.5,102,99.8,164.5,59.4
				c22.3-14.4,38.5-37.2,53.5-58.5c24.3-34.5,49.2-69.2,71.2-105.3c22-36.1,41-74.3,65.8-108.6c21.8-30.1,48.5-56.2,80.6-75.2
				c36.2-21.4,77-32.6,118.7-36.2c29.5-2.6,60.2-0.4,88.3,9.5c33.3,11.7,65.5,25.4,99.7,34.4c41.7,10.9,84.4,16.4,127.4,17.9
				c44,1.6,88.7,0.5,132.7-2.9c35-2.6,64.7-15,92-37.1c55-44.5,113.7-83.2,179.3-110.4c58-24,120.7-34.2,183.3-32.3
				c21.9,0.7,43.6,2.8,65.3,6.1c1.9,0.3,2.7-2.6,0.8-2.9c-64.5-9.8-130-8.4-193.4,7.2c-69.7,17.2-135.7,54.4-193.8,95.7
				c-23.4,16.7-44.2,37.6-69.2,51.9c-38.1,21.9-82.6,20-125.2,21.4c-45.9,1.5-92.1,1-137.7-5.5c-42.6-6-84-17.5-124.2-32.6
				c-24.2-9.1-47.7-19.9-73.7-22.6c-34.7-3.7-69.9-1.1-103.7,7.6c-35.9,9.3-69.8,25.9-98.7,49.2c-27.8,22.5-50,51-68.7,81.3
				c-22.6,36.5-42.2,74.8-66.3,110.4c-12.2,18.1-25.1,35.6-37.2,53.7c-11.2,16.7-22.4,33.3-35.1,49c-15,18.5-32.3,35.2-55.6,42.4
				c-40.8,12.6-78.9-14.8-108-40.4c-30.9-27.1-59-57.1-91.5-82.5c-28.6-22.4-59.6-41.6-92.6-56.8c-69.3-31.8-145.2-47.4-221.2-49.4
				c-21-0.6-42,0-63,1.3C1,569.2,1,572.2,2.9,572.1L2.9,572.1z"/>
		</g>
	</g>
	<g>
		<g>
			
				<linearGradient id="SVGID_00000007419951724971805030000017610452170707883149_" gradientUnits="userSpaceOnUse" x1="1.5875" y1="559.6017" x2="1960.9634" y2="559.6017" gradientTransform="matrix(1 0 0 -1 0 1080)">
				<stop  offset="1.598337e-07" style="stop-color:#000000"/>
				<stop  offset="1" style="stop-color:#C1AE8C;stop-opacity:0.5"/>
			</linearGradient>
			<path style="fill:url(#SVGID_00000007419951724971805030000017610452170707883149_);" d="M3,592.1c84.5-8.8,170.5-0.8,251,26.8
				c37.5,12.8,73.3,29.9,106.8,51c35.1,22.1,65.8,49.2,97.3,76c26.3,22.5,57.4,47.4,93.3,50.2c23.7,1.9,46-7.7,62.4-24.4
				c21.7-22,36.8-50.8,52.6-77c22.5-37.2,45.6-73.9,67.7-111.3c20-33.9,40-68.5,66.9-97.6c25.9-27.9,57.9-49,93.9-61.5
				c37.1-12.9,76-16.4,115.1-14.2c28.9,1.6,53.9,8.5,80.4,19.6c34.9,14.7,70.9,26.3,108.3,32.3c42.2,6.8,85.1,6.9,127.7,3.9
				c22-1.6,44-4,65.9-6.6c19.2-2.3,38.6-4.3,57.4-8.8c32.4-7.8,60.6-26.7,84.7-49.3c51.8-48.6,113.4-87.8,178.3-116.6
				c57.8-25.7,119.8-38.2,183.1-37.5c22.1,0.2,44.2,2.1,66.1,5.1c1.9,0.3,2.7-2.6,0.8-2.9c-65.1-8.9-131.5-6.5-194.8,11.8
				c-67.5,19.5-131.5,56-187.6,97.8c-22.8,17-42.6,37.4-64.8,54.9c-16.9,13.4-35.9,25-56.6,31.3c-20.3,6.2-41.7,8.3-62.8,10.9
				c-88.5,10.9-177.3,15.3-263.2-13.2c-25.9-8.6-50.4-21.8-76.8-28.9c-31.2-8.4-65.9-9-97.9-6c-37.9,3.5-75.5,14.6-108.2,34.2
				c-27.8,16.7-51.1,39.5-70.6,65.2c-24.6,32.4-44.1,68.6-64.8,103.5c-21.8,36.8-44.5,73-67,109.3c-14.1,22.8-29.2,49.3-53,63.2
				c-33.7,19.7-71,6.5-100.9-13.6c-33.7-22.6-61.9-52.5-94.3-76.8c-30.7-23.1-63.8-43-98.8-58.8c-73-32.9-153.2-48.7-233.2-48.5
				c-21.5,0-42.9,1.3-64.3,3.5C1.1,589.3,1.1,592.3,3,592.1L3,592.1z"/>
		</g>
	</g>
	<g>
		<g>
			
				<linearGradient id="SVGID_00000171706156913072161660000002337563981727277971_" gradientUnits="userSpaceOnUse" x1="1.6608" y1="581.6686" x2="1962.1577" y2="581.6686" gradientTransform="matrix(1 0 0 -1 0 1080)">
				<stop  offset="1.598337e-07" style="stop-color:#000000"/>
				<stop  offset="1" style="stop-color:#C1AE8C;stop-opacity:0.5"/>
			</linearGradient>
			<path style="fill:url(#SVGID_00000171706156913072161660000002337563981727277971_);" d="M3.5,612.1
				c82.2-12.5,166.8-6.2,246.4,17.6c39.8,11.9,78.2,28.1,114.5,48.4c35.8,20,67.1,45.2,99.7,69.9c28.8,21.8,63.7,45.5,101.7,41.1
				c25.2-2.9,43.1-17.5,56.8-38c21.8-32.5,38.4-69.1,57.2-103.4c19-34.5,37.9-69.2,59-102.5c31.6-49.7,69.3-94.9,125.6-116.6
				c37-14.3,77.2-18.5,116.6-16c26.6,1.7,54.2,5.2,79,15.2c31.1,12.4,60.2,27.1,93.2,34.8c43.4,10,88.4,10.2,132.5,5.7
				c44.3-4.5,88.7-12.6,132-23c39.3-9.5,73-28.3,102.5-55.9c10.3-9.6,19.7-20.2,30.1-29.8c14.5-13.4,30-25.9,45.9-37.6
				c32.8-24.1,67.7-45.3,104.1-63.5c61.4-30.7,126-48.2,195-48.8c22.8-0.2,45.4,1.4,68,4.1c1.9,0.2,1.9-2.8,0-3
				c-69.5-8.6-140.7-4-206.9,19.9c-71.3,25.8-139.9,67.2-197.2,116.8c-25.5,22.1-46.7,47.5-75,66.4c-38.8,25.9-85.4,33-130.5,41.3
				c-46.1,8.5-93,14.6-140,12.4c-43.8-2.1-86.2-12.8-126.2-30.7c-10.7-4.8-21.1-10.1-32.1-14c-14-5-28.7-7.8-43.4-9.9
				c-28.6-4.1-57.5-5.4-86.2-2.1c-62.7,7.1-115.7,36-155.4,84.5c-19.9,24.3-36.6,51.1-52.5,78.1c-22.1,37.5-42.9,75.8-63.5,114.1
				c-14.7,27.5-28,61.6-52,82.6c-29.6,25.9-70.9,16.7-102.1-1.1c-35.5-20.3-65.1-49.4-99.2-72c-33-21.9-68.4-40.2-105.3-54.7
				c-74.6-29.3-155.5-43-235.7-39.2c-19.3,0.9-38.6,2.9-57.7,5.9C0.8,609.5,1.6,612.3,3.5,612.1L3.5,612.1z"/>
		</g>
	</g>
</g>
</svg>
