<?xml version="1.0" encoding="utf-8"?>
<!-- Generator: Adobe Illustrator 26.4.0, SVG Export Plug-In . SVG Version: 6.00 Build 0)  -->
<svg version="1.1" id="Calque_1" xmlns="http://www.w3.org/2000/svg" xmlns:xlink="http://www.w3.org/1999/xlink" x="0px" y="0px"
	 viewBox="0 0 245 241" style="enable-background:new 0 0 245 241;" xml:space="preserve">
<style type="text/css">
	.st0{fill:#FFFFFF;stroke:#FFFFFF;stroke-miterlimit:10;}
</style>
<circle class="st0" cx="121.5" cy="122.7" r="114.3"/>
<g transform="translate(0.000000,241.000000) scale(0.100000,-0.100000)">
	<path d="M1095,2323c-400-46-747-296-916-658c-67-143-91-249-96-427c-3-98-1-182,6-225c29-164,96-330,192-469c59-85,211-235,297-293
		c90-61,224-123,279-129c66-7,73,6,73,143v111l-88-4c-165-8-243,33-306,163c-28,55-53,89-98,129c-68,60-73,86-16,86
		c39,0,63-13,54-29c-4-6-1-11,8-11c8,0,16,6,19,13s24-9,53-41c27-29,71-77,98-105c28-29,49-60,47-69c-1-12,4-18,18-18
		c12,0,21,6,21,14c0,10,12,12,48,9c26-2,67,2,92,9c40,12,46,18,62,63c10,27,27,62,38,77l20,27l-38,6c-326,56-471,221-472,541
		c0,117,22,195,76,274c33,48,34,51,23,102c-13,57-8,141,11,206c12,37,17,42,43,42c49,0,129-28,209-74l77-44l63,16
		c83,20,357,21,445,0l61-14l64,38c67,41,171,78,218,78c25,0,30-6,44-47c18-53,21-187,6-229c-9-22-7-31,8-48c151-166,125-538-48-700
		c-76-71-156-105-338-142l-23-5l25-42c37-65,47-136,45-325c-1-124,2-176,11-187c29-35,137-3,284,83c383,226,606,683,545,1117
		c-36,263-143,476-331,661c-171,169-343,261-572,309C1354,2321,1166,2332,1095,2323z"/>
	<path d="M532,679c2-7,10-15,17-17c8-3,12,1,9,9c-2,7-10,15-17,17C533,691,529,687,532,679z"/>
	<path d="M570,621c0-12,6-21,15-21c8,0,15,4,15,9s-7,14-15,21C572,640,570,639,570,621z"/>
	<path d="M620,546c0-14,29-31,38-22c2,3,2,12-1,21C649,564,620,565,620,546z"/>
	<path d="M795,490c-8-12,20-24,35-15c5,3,10,10,10,16C840,503,803,503,795,490z"/>
	<path d="M890,484c0-9,7-14,17-12c25,5,28,28,4,28C899,500,890,494,890,484z"/>
</g>
</svg>
