<?xml version="1.0" standalone="no"?>
<!DOCTYPE svg PUBLIC "-//W3C//DTD SVG 20010904//EN"
 "http://www.w3.org/TR/2001/REC-SVG-20010904/DTD/svg10.dtd">
<svg version="1.0" xmlns="http://www.w3.org/2000/svg"
 width="245.000000pt" height="241.000000pt" viewBox="0 0 245.000000 241.000000"
 preserveAspectRatio="xMidYMid meet">

<g transform="translate(0.000000,241.000000) scale(0.100000,-0.100000)"
fill="#000000" stroke="none">
<path d="M1095 2323 c-400 -46 -747 -296 -916 -658 -67 -143 -91 -249 -96
-427 -3 -98 -1 -182 6 -225 29 -164 96 -330 192 -469 59 -85 211 -235 297
-293 90 -61 224 -123 279 -129 66 -7 73 6 73 143 l0 111 -88 -4 c-165 -8 -243
33 -306 163 -28 55 -53 89 -98 129 -68 60 -73 86 -16 86 39 0 63 -13 54 -29
-4 -6 -1 -11 8 -11 8 0 16 6 19 13 3 7 24 -9 53 -41 27 -29 71 -77 98 -105 28
-29 49 -60 47 -69 -1 -12 4 -18 18 -18 12 0 21 6 21 14 0 10 12 12 48 9 26 -2
67 2 92 9 40 12 46 18 62 63 10 27 27 62 38 77 l20 27 -38 6 c-326 56 -471
221 -472 541 0 117 22 195 76 274 33 48 34 51 23 102 -13 57 -8 141 11 206 12
37 17 42 43 42 49 0 129 -28 209 -74 l77 -44 63 16 c83 20 357 21 445 0 l61
-14 64 38 c67 41 171 78 218 78 25 0 30 -6 44 -47 18 -53 21 -187 6 -229 -9
-22 -7 -31 8 -48 151 -166 125 -538 -48 -700 -76 -71 -156 -105 -338 -142
l-23 -5 25 -42 c37 -65 47 -136 45 -325 -1 -124 2 -176 11 -187 29 -35 137 -3
284 83 383 226 606 683 545 1117 -36 263 -143 476 -331 661 -171 169 -343 261
-572 309 -82 16 -270 27 -341 18z"/>
<path d="M532 679 c2 -7 10 -15 17 -17 8 -3 12 1 9 9 -2 7 -10 15 -17 17 -8 3
-12 -1 -9 -9z"/>
<path d="M570 621 c0 -12 6 -21 15 -21 8 0 15 4 15 9 0 5 -7 14 -15 21 -13 10
-15 9 -15 -9z"/>
<path d="M620 546 c0 -14 29 -31 38 -22 2 3 2 12 -1 21 -8 19 -37 20 -37 1z"/>
<path d="M795 490 c-8 -12 20 -24 35 -15 5 3 10 10 10 16 0 12 -37 12 -45 -1z"/>
<path d="M890 484 c0 -9 7 -14 17 -12 25 5 28 28 4 28 -12 0 -21 -6 -21 -16z"/>
</g>
</svg>
