<?xml version="1.0" encoding="utf-8"?>
<!-- Generator: Adobe Illustrator 26.4.0, SVG Export Plug-In . SVG Version: 6.00 Build 0)  -->
<svg version="1.1" id="Calque_1" xmlns="http://www.w3.org/2000/svg" xmlns:xlink="http://www.w3.org/1999/xlink" x="0px" y="0px"
	 viewBox="0 0 231 234" style="enable-background:new 0 0 231 234;" xml:space="preserve">
<style type="text/css">
	.st0{fill:#2679BE;}
</style>
<g transform="translate(0.000000,234.000000) scale(0.100000,-0.100000)">
	<path class="st0" d="M1050,2249c-407-31-788-321-934-711c-74-199-88-443-37-649C194,425,574,95,1046,49c693-68,1282,526,1205,1216
		C2183,1871,1663,2296,1050,2249z M795,1780c56-27,89-86,82-146c-13-123-156-177-243-93c-78,75-61,188,34,239
		C715,1805,744,1805,795,1780z M1606,1405c48-20,110-81,136-133c22-46,23-57,26-354l3-308h-125h-126v240c0,256-4,285-50,325
		c-35,31-129,28-165-5c-51-47-55-70-55-325V610h-120h-120v395v395h120h120v-41v-41l35,31c69,61,137,83,230,75
		C1547,1421,1588,1413,1606,1405z M860,1005V610H735H610v395v395h125h125V1005z"/>
</g>
</svg>
